<?xml version="1.0" encoding="UTF-8" standalone="no"?>
<!DOCTYPE svg PUBLIC "-//W3C//DTD SVG 1.1//EN"
 "http://www.w3.org/Graphics/SVG/1.1/DTD/svg11.dtd">
<!-- Generated by graphviz version 2.38.0 (20140413.2041)
 -->
<!-- Title: ARXIV_PLAN Pages: 1 -->
<svg width="801pt" height="290pt"
 viewBox="0.00 0.00 800.54 290.02" xmlns="http://www.w3.org/2000/svg" xmlns:xlink="http://www.w3.org/1999/xlink">
<g id="graph0" class="graph" transform="scale(1 1) rotate(0) translate(4 286.02)">
<title>ARXIV_PLAN</title>
<polygon fill="white" stroke="none" points="-4,4 -4,-286.02 796.544,-286.02 796.544,4 -4,4"/>
<!-- Article -->
<g id="node1" class="node"><title>Article</title>
<ellipse fill="lightgrey" stroke="black" cx="263.683" cy="-256.564" rx="97.7791" ry="25.4118"/>
<text text-anchor="middle" x="263.683" y="-259.364" font-family="Times,serif" font-size="14.00">Article</text>
<text text-anchor="middle" x="263.683" y="-245.364" font-family="Times,serif" font-size="14.00">(e.g. /art/1501.12345)</text>
</g>
<!-- Splash Page -->
<g id="node2" class="node"><title>Splash Page</title>
<ellipse fill="none" stroke="black" cx="379.683" cy="-141.652" rx="100.289" ry="25.4118"/>
<text text-anchor="middle" x="379.683" y="-144.452" font-family="Times,serif" font-size="14.00">Splash Page</text>
<text text-anchor="middle" x="379.683" y="-130.452" font-family="Times,serif" font-size="14.00">(e.g. /abs/1501.12345)</text>
</g>
<!-- Article&#45;&gt;Splash Page -->
<g id="edge1" class="edge"><title>Article&#45;&gt;Splash Page</title>
<path fill="none" stroke="black" d="M311.477,-234.116C321.523,-228.232 331.533,-221.202 339.683,-213.108 350.181,-202.682 358.805,-188.929 365.323,-176.343"/>
<polygon fill="black" stroke="black" points="368.634,-177.54 369.892,-167.02 362.348,-174.459 368.634,-177.54"/>
<text text-anchor="middle" x="406.834" y="-201.908" font-family="Times,serif" font-size="14.00">rel=describedby</text>
<text text-anchor="middle" x="406.834" y="-187.908" font-family="Times,serif" font-size="14.00">text/html</text>
</g>
<!-- Article&#45;&gt;Splash Page -->
<g id="edge2" class="edge"><title>Article&#45;&gt;Splash Page</title>
<path fill="none" stroke="black" stroke-dasharray="5,2" d="M354.316,-247.03C399.276,-240.726 446.891,-230.189 460.683,-213.108 468.501,-203.426 467.124,-195.756 460.683,-185.108 456.841,-178.757 451.701,-173.31 445.865,-168.648"/>
<polygon fill="black" stroke="black" points="447.721,-165.673 437.533,-162.766 443.684,-171.392 447.721,-165.673"/>
<text text-anchor="middle" x="499.147" y="-201.908" font-family="Times,serif" font-size="14.00">conneg 303</text>
<text text-anchor="middle" x="499.147" y="-187.908" font-family="Times,serif" font-size="14.00">text/html</text>
</g>
<!-- RDF -->
<g id="node3" class="node"><title>RDF</title>
<ellipse fill="none" stroke="black" cx="40.6827" cy="-141.652" rx="27.1216" ry="18"/>
<text text-anchor="middle" x="40.6827" y="-137.452" font-family="Times,serif" font-size="14.00">RDF</text>
</g>
<!-- Article&#45;&gt;RDF -->
<g id="edge3" class="edge"><title>Article&#45;&gt;RDF</title>
<path fill="none" stroke="black" stroke-dasharray="5,2" d="M175.074,-245.727C129.285,-238.945 79.5416,-228.366 62.7549,-213.108 50.6951,-202.146 45.1699,-184.695 42.6632,-169.903"/>
<polygon fill="black" stroke="black" points="46.0994,-169.189 41.3211,-159.733 39.1596,-170.105 46.0994,-169.189"/>
<text text-anchor="middle" x="96.1465" y="-201.908" font-family="Times,serif" font-size="14.00">conneg 303</text>
<text text-anchor="middle" x="96.1465" y="-187.908" font-family="Times,serif" font-size="14.00">text/turtle</text>
</g>
<!-- Splash Page&#45;&gt;Article -->
<g id="edge7" class="edge"><title>Splash Page&#45;&gt;Article</title>
<path fill="none" stroke="black" d="M281.952,-147.709C224.796,-152.941 160.417,-163.565 142.387,-185.108 123.608,-207.544 149.17,-224.439 181.589,-236.053"/>
<polygon fill="black" stroke="black" points="180.761,-239.466 191.355,-239.338 182.992,-232.832 180.761,-239.466"/>
<text text-anchor="middle" x="180.831" y="-194.908" font-family="Times,serif" font-size="14.00">rel=canonical</text>
</g>
<!-- Splash Page&#45;&gt;Article -->
<g id="edge8" class="edge"><title>Splash Page&#45;&gt;Article</title>
<path fill="none" stroke="black" d="M295.786,-155.776C280.161,-162.112 265.7,-171.43 255.932,-185.108 248.613,-195.357 248.384,-208.672 250.747,-220.963"/>
<polygon fill="black" stroke="black" points="247.424,-222.103 253.242,-230.957 254.216,-220.407 247.424,-222.103"/>
<text text-anchor="middle" x="294.058" y="-194.908" font-family="Times,serif" font-size="14.00">rel=describes</text>
</g>
<!-- PDF -->
<g id="node4" class="node"><title>PDF</title>
<ellipse fill="none" stroke="black" cx="129.683" cy="-34.1962" rx="27" ry="18"/>
<text text-anchor="middle" x="129.683" y="-29.9962" font-family="Times,serif" font-size="14.00">PDF</text>
</g>
<!-- Splash Page&#45;&gt;PDF -->
<g id="edge4" class="edge"><title>Splash Page&#45;&gt;PDF</title>
<path fill="none" stroke="black" stroke-dasharray="5,2" d="M285.11,-133.041C177.482,-123.917 15.2742,-108.561 6.02057,-98.1962 -2.2674,-88.9132 -1.48576,-80.1219 6.02057,-70.1962 16.5861,-56.2253 60.7073,-46.2261 93.2499,-40.5821"/>
<polygon fill="black" stroke="black" points="94.0608,-43.9954 103.352,-38.9031 92.913,-37.0901 94.0608,-43.9954"/>
<text text-anchor="middle" x="26.5137" y="-86.9962" font-family="Times,serif" font-size="14.00">HTML</text>
<text text-anchor="middle" x="26.5137" y="-72.9962" font-family="Times,serif" font-size="14.00">link</text>
</g>
<!-- Splash Page&#45;&gt;PDF -->
<g id="edge10" class="edge"><title>Splash Page&#45;&gt;PDF</title>
<path fill="none" stroke="black" d="M279.544,-139.645C204.933,-136.518 111.864,-126.769 87.1387,-98.1962 78.9956,-88.7859 81.8248,-81.449 87.1387,-70.1962 90.3397,-63.4179 95.5683,-57.5095 101.283,-52.5736"/>
<polygon fill="black" stroke="black" points="103.442,-55.3282 109.232,-46.4553 99.1729,-49.781 103.442,-55.3282"/>
<text text-anchor="middle" x="111.455" y="-79.9962" font-family="Times,serif" font-size="14.00">rel=item</text>
</g>
<!-- PS -->
<g id="node5" class="node"><title>PS</title>
<ellipse fill="none" stroke="black" cx="340.683" cy="-34.1962" rx="27" ry="18"/>
<text text-anchor="middle" x="340.683" y="-29.9962" font-family="Times,serif" font-size="14.00">PS</text>
</g>
<!-- Splash Page&#45;&gt;PS -->
<g id="edge5" class="edge"><title>Splash Page&#45;&gt;PS</title>
<path fill="none" stroke="black" stroke-dasharray="5,2" d="M319.269,-120.985C309.62,-115.166 300.893,-107.711 295.021,-98.1962 288.484,-87.6065 289.514,-81.3558 295.021,-70.1962 298.626,-62.8905 304.569,-56.6873 310.994,-51.6256"/>
<polygon fill="black" stroke="black" points="313.078,-54.4387 319.251,-45.8276 309.055,-48.7101 313.078,-54.4387"/>
<text text-anchor="middle" x="315.514" y="-86.9962" font-family="Times,serif" font-size="14.00">HTML</text>
<text text-anchor="middle" x="315.514" y="-72.9962" font-family="Times,serif" font-size="14.00">link</text>
</g>
<!-- Splash Page&#45;&gt;PS -->
<g id="edge11" class="edge"><title>Splash Page&#45;&gt;PS</title>
<path fill="none" stroke="black" d="M370.637,-116.193C364.6,-99.8678 356.664,-78.409 350.477,-61.6806"/>
<polygon fill="black" stroke="black" points="353.635,-60.1294 346.884,-51.9642 347.07,-62.5574 353.635,-60.1294"/>
<text text-anchor="middle" x="387.455" y="-79.9962" font-family="Times,serif" font-size="14.00">rel=item</text>
</g>
<!-- AUX_DATA -->
<g id="node6" class="node"><title>AUX_DATA</title>
<ellipse fill="none" stroke="black" cx="668.683" cy="-34.1962" rx="56.6306" ry="18"/>
<text text-anchor="middle" x="668.683" y="-29.9962" font-family="Times,serif" font-size="14.00">AUX_DATA</text>
</g>
<!-- Splash Page&#45;&gt;AUX_DATA -->
<g id="edge6" class="edge"><title>Splash Page&#45;&gt;AUX_DATA</title>
<path fill="none" stroke="black" stroke-dasharray="5,2" d="M442.102,-121.569C464.196,-114.553 489.153,-106.328 511.683,-98.1962 533.33,-90.3828 587.311,-68.5255 625.926,-52.7474"/>
<polygon fill="black" stroke="black" points="627.452,-55.9045 635.383,-48.8792 624.802,-49.4256 627.452,-55.9045"/>
<text text-anchor="middle" x="601.514" y="-86.9962" font-family="Times,serif" font-size="14.00">HTML</text>
<text text-anchor="middle" x="601.514" y="-72.9962" font-family="Times,serif" font-size="14.00">link</text>
</g>
<!-- Splash Page&#45;&gt;AUX_DATA -->
<g id="edge12" class="edge"><title>Splash Page&#45;&gt;AUX_DATA</title>
<path fill="none" stroke="black" d="M473.564,-132.589C533.101,-125.983 603.489,-114.955 628.683,-98.1962 641.964,-89.3617 651.722,-74.4534 658.274,-61.3567"/>
<polygon fill="black" stroke="black" points="661.463,-62.7989 662.483,-52.2533 655.109,-59.8613 661.463,-62.7989"/>
<text text-anchor="middle" x="676.455" y="-79.9962" font-family="Times,serif" font-size="14.00">rel=item</text>
</g>
<!-- Journal Version\nDOI -->
<g id="node7" class="node"><title>Journal Version\nDOI</title>
<ellipse fill="lightgrey" stroke="black" cx="656.683" cy="-256.564" rx="73.0037" ry="25.4118"/>
<text text-anchor="middle" x="656.683" y="-259.364" font-family="Times,serif" font-size="14.00">Journal Version</text>
<text text-anchor="middle" x="656.683" y="-245.364" font-family="Times,serif" font-size="14.00">DOI</text>
</g>
<!-- Splash Page&#45;&gt;Journal Version\nDOI -->
<g id="edge9" class="edge"><title>Splash Page&#45;&gt;Journal Version\nDOI</title>
<path fill="none" stroke="black" stroke-dasharray="5,2" d="M456.538,-158.14C483.692,-164.851 514.078,-173.802 540.683,-185.108 567.485,-196.498 595.445,-213.312 617.198,-227.658"/>
<polygon fill="black" stroke="black" points="615.258,-230.571 625.516,-233.222 619.15,-224.753 615.258,-230.571"/>
<text text-anchor="middle" x="612.514" y="-201.908" font-family="Times,serif" font-size="14.00">HTML</text>
<text text-anchor="middle" x="612.514" y="-187.908" font-family="Times,serif" font-size="14.00">link</text>
</g>
<!-- PDF&#45;&gt;Splash Page -->
<g id="edge13" class="edge"><title>PDF&#45;&gt;Splash Page</title>
<path fill="none" stroke="black" d="M142.979,-49.96C156.795,-64.3961 179.734,-85.9419 203.821,-98.1962 228.629,-110.817 257.335,-119.787 284.267,-126.122"/>
<polygon fill="black" stroke="black" points="283.574,-129.554 294.099,-128.339 285.114,-122.725 283.574,-129.554"/>
<text text-anchor="middle" x="243.613" y="-79.9962" font-family="Times,serif" font-size="14.00">rel=collection</text>
</g>
<!-- PDF&#45;&gt;PS -->
<g id="edge16" class="edge"><title>PDF&#45;&gt;PS</title>
<path fill="none" stroke="black" d="M156.835,-34.1962C194.185,-34.1962 261.547,-34.1962 303.539,-34.1962"/>
<polygon fill="black" stroke="black" points="303.634,-37.6963 313.634,-34.1962 303.634,-30.6963 303.634,-37.6963"/>
<text text-anchor="middle" x="235.183" y="-53.9962" font-family="Times,serif" font-size="14.00">rel=alternate</text>
<text text-anchor="middle" x="235.183" y="-39.9962" font-family="Times,serif" font-size="14.00">application/postscript</text>
</g>
<!-- PS&#45;&gt;Splash Page -->
<g id="edge14" class="edge"><title>PS&#45;&gt;Splash Page</title>
<path fill="none" stroke="black" d="M366.748,-39.0292C385.245,-43.2584 408.817,-52.0532 420.683,-70.1962 428.88,-82.7296 423.295,-96.94 413.921,-109.299"/>
<polygon fill="black" stroke="black" points="411.097,-107.219 407.32,-117.118 416.446,-111.734 411.097,-107.219"/>
<text text-anchor="middle" x="463.613" y="-79.9962" font-family="Times,serif" font-size="14.00">rel=collection</text>
</g>
<!-- PS&#45;&gt;PDF -->
<g id="edge17" class="edge"><title>PS&#45;&gt;PDF</title>
<path fill="none" stroke="black" d="M321.096,-21.6695C309.055,-14.7256 293.019,-6.78759 277.559,-3.19618 259.213,1.06539 211.152,1.06539 192.807,-3.19618 180.97,-5.94586 168.795,-11.2434 158.335,-16.692"/>
<polygon fill="black" stroke="black" points="156.35,-13.7887 149.269,-21.6695 159.719,-19.9246 156.35,-13.7887"/>
<text text-anchor="middle" x="235.183" y="-19.9962" font-family="Times,serif" font-size="14.00">rel=alternate</text>
<text text-anchor="middle" x="235.183" y="-5.99618" font-family="Times,serif" font-size="14.00">application/pdf</text>
</g>
<!-- AUX_DATA&#45;&gt;Splash Page -->
<g id="edge15" class="edge"><title>AUX_DATA&#45;&gt;Splash Page</title>
<path fill="none" stroke="black" d="M693.594,-50.6118C700.041,-55.9507 706.155,-62.5473 709.683,-70.1962 714.894,-81.4969 717.902,-88.8521 709.683,-98.1962 705.837,-102.569 575.841,-118.285 480.182,-129.314"/>
<polygon fill="black" stroke="black" points="479.697,-125.847 470.162,-130.467 480.497,-132.801 479.697,-125.847"/>
<text text-anchor="middle" x="753.613" y="-79.9962" font-family="Times,serif" font-size="14.00">rel=collection</text>
</g>
<!-- Journal Splash Page -->
<g id="node8" class="node"><title>Journal Splash Page</title>
<ellipse fill="none" stroke="black" cx="697.683" cy="-141.652" rx="81.1767" ry="18"/>
<text text-anchor="middle" x="697.683" y="-137.452" font-family="Times,serif" font-size="14.00">Journal Splash Page</text>
</g>
<!-- Journal Version\nDOI&#45;&gt;Journal Splash Page -->
<g id="edge18" class="edge"><title>Journal Version\nDOI&#45;&gt;Journal Splash Page</title>
<path fill="none" stroke="black" stroke-dasharray="5,2" d="M665.579,-231.064C672.207,-212.811 681.248,-187.913 688.047,-169.189"/>
<polygon fill="black" stroke="black" points="691.345,-170.36 691.468,-159.766 684.765,-167.971 691.345,-170.36"/>
<text text-anchor="middle" x="714.147" y="-201.908" font-family="Times,serif" font-size="14.00">conneg 303</text>
<text text-anchor="middle" x="714.147" y="-187.908" font-family="Times,serif" font-size="14.00">text/html</text>
</g>
</g>
</svg>
