<?xml version="1.0" encoding="UTF-8" standalone="no"?>
<!DOCTYPE svg PUBLIC "-//W3C//DTD SVG 1.1//EN"
 "http://www.w3.org/Graphics/SVG/1.1/DTD/svg11.dtd">
<!-- Generated by graphviz version 2.38.0 (20140413.2041)
 -->
<!-- Title: ARXIV_PLAN Pages: 1 -->
<svg width="567pt" height="290pt"
 viewBox="0.00 0.00 566.56 290.46" xmlns="http://www.w3.org/2000/svg" xmlns:xlink="http://www.w3.org/1999/xlink">
<g id="graph0" class="graph" transform="scale(1 1) rotate(0) translate(4 286.456)">
<title>ARXIV_PLAN</title>
<polygon fill="white" stroke="none" points="-4,4 -4,-286.456 562.562,-286.456 562.562,4 -4,4"/>
<!-- Article -->
<g id="node1" class="node"><title>Article</title>
<ellipse fill="lightgrey" stroke="black" cx="195.224" cy="-257" rx="97.7791" ry="25.4118"/>
<text text-anchor="middle" x="195.224" y="-259.8" font-family="Times,serif" font-size="14.00">Article</text>
<text text-anchor="middle" x="195.224" y="-245.8" font-family="Times,serif" font-size="14.00">(e.g. /art/1501.12345)</text>
</g>
<!-- Splash Page -->
<g id="node2" class="node"><title>Splash Page</title>
<ellipse fill="none" stroke="black" cx="256.224" cy="-142.088" rx="100.289" ry="25.4118"/>
<text text-anchor="middle" x="256.224" y="-144.888" font-family="Times,serif" font-size="14.00">Splash Page</text>
<text text-anchor="middle" x="256.224" y="-130.888" font-family="Times,serif" font-size="14.00">(e.g. /abs/1501.12345)</text>
</g>
<!-- Article&#45;&gt;Splash Page -->
<g id="edge1" class="edge"><title>Article&#45;&gt;Splash Page</title>
<path fill="none" stroke="black" d="M208.46,-231.5C217.173,-215.372 228.689,-194.056 238.23,-176.396"/>
<polygon fill="black" stroke="black" points="241.34,-178.002 243.014,-167.541 235.181,-174.675 241.34,-178.002"/>
<text text-anchor="middle" x="267.045" y="-202.344" font-family="Times,serif" font-size="14.00">describedby</text>
<text text-anchor="middle" x="267.045" y="-188.344" font-family="Times,serif" font-size="14.00">text/html</text>
</g>
<!-- Article&#45;&gt;Splash Page -->
<g id="edge2" class="edge"><title>Article&#45;&gt;Splash Page</title>
<path fill="none" stroke="black" stroke-dasharray="5,2" d="M270.14,-240.566C283.569,-234.374 295.914,-225.699 304.224,-213.544 311.247,-203.271 309.336,-196.89 304.224,-185.544 302.375,-181.439 299.91,-177.571 297.072,-173.968"/>
<polygon fill="black" stroke="black" points="299.648,-171.598 290.354,-166.512 294.448,-176.284 299.648,-171.598"/>
<text text-anchor="middle" x="341.688" y="-202.344" font-family="Times,serif" font-size="14.00">conneg 303</text>
<text text-anchor="middle" x="341.688" y="-188.344" font-family="Times,serif" font-size="14.00">text/html</text>
</g>
<!-- RDF -->
<g id="node3" class="node"><title>RDF</title>
<ellipse fill="none" stroke="black" cx="67.2239" cy="-142.088" rx="27.1216" ry="18"/>
<text text-anchor="middle" x="67.2239" y="-137.888" font-family="Times,serif" font-size="14.00">RDF</text>
</g>
<!-- Article&#45;&gt;RDF -->
<g id="edge3" class="edge"><title>Article&#45;&gt;RDF</title>
<path fill="none" stroke="black" stroke-dasharray="5,2" d="M123.646,-239.662C109.329,-233.516 95.5583,-225.089 85.2962,-213.544 74.8668,-201.811 70.3048,-184.86 68.3712,-170.524"/>
<polygon fill="black" stroke="black" points="71.8176,-169.809 67.3512,-160.202 64.8516,-170.497 71.8176,-169.809"/>
<text text-anchor="middle" x="118.688" y="-202.344" font-family="Times,serif" font-size="14.00">conneg 303</text>
<text text-anchor="middle" x="118.688" y="-188.344" font-family="Times,serif" font-size="14.00">text/turtle</text>
</g>
<!-- Splash Page&#45;&gt;Article -->
<g id="edge7" class="edge"><title>Splash Page&#45;&gt;Article</title>
<path fill="none" stroke="black" d="M186.891,-160.817C175.493,-166.82 165.122,-174.839 158.089,-185.544 150.132,-197.656 154.915,-211.661 163.341,-223.978"/>
<polygon fill="black" stroke="black" points="160.779,-226.389 169.643,-232.191 166.332,-222.127 160.779,-226.389"/>
<text text-anchor="middle" x="186.791" y="-202.344" font-family="Times,serif" font-size="14.00">canonical,</text>
<text text-anchor="middle" x="186.791" y="-188.344" font-family="Times,serif" font-size="14.00">describes</text>
</g>
<!-- PDF -->
<g id="node4" class="node"><title>PDF</title>
<ellipse fill="none" stroke="black" cx="65.2239" cy="-34.6324" rx="27" ry="18"/>
<text text-anchor="middle" x="65.2239" y="-30.4324" font-family="Times,serif" font-size="14.00">PDF</text>
</g>
<!-- Splash Page&#45;&gt;PDF -->
<g id="edge4" class="edge"><title>Splash Page&#45;&gt;PDF</title>
<path fill="none" stroke="black" stroke-dasharray="5,2" d="M173.384,-127.693C100.92,-115.88 6.95938,-100.287 5.56183,-98.6324 -2.46943,-89.1264 -0.62297,-81.4311 5.56183,-70.6324 11.4107,-60.4201 21.5248,-52.8975 31.7814,-47.5019"/>
<polygon fill="black" stroke="black" points="33.5499,-50.5385 41.1224,-43.1285 30.5818,-44.1989 33.5499,-50.5385"/>
<text text-anchor="middle" x="26.055" y="-87.4324" font-family="Times,serif" font-size="14.00">HTML</text>
<text text-anchor="middle" x="26.055" y="-73.4324" font-family="Times,serif" font-size="14.00">link</text>
</g>
<!-- Splash Page&#45;&gt;PDF -->
<g id="edge9" class="edge"><title>Splash Page&#45;&gt;PDF</title>
<path fill="none" stroke="black" d="M174.321,-127.293C127.071,-118.522 75.5764,-107.24 68.3411,-98.6324 60.1662,-88.9071 58.7607,-75.0577 59.6678,-62.8196"/>
<polygon fill="black" stroke="black" points="63.1748,-62.982 60.9483,-52.6238 56.2294,-62.1097 63.1748,-62.982"/>
<text text-anchor="middle" x="81.6653" y="-80.4324" font-family="Times,serif" font-size="14.00">item</text>
</g>
<!-- PS -->
<g id="node5" class="node"><title>PS</title>
<ellipse fill="none" stroke="black" cx="258.224" cy="-34.6324" rx="27" ry="18"/>
<text text-anchor="middle" x="258.224" y="-30.4324" font-family="Times,serif" font-size="14.00">PS</text>
</g>
<!-- Splash Page&#45;&gt;PS -->
<g id="edge5" class="edge"><title>Splash Page&#45;&gt;PS</title>
<path fill="none" stroke="black" stroke-dasharray="5,2" d="M212.265,-118.93C205.137,-113.314 198.734,-106.571 194.562,-98.6324 188.772,-87.6167 188.227,-81.3439 194.562,-70.6324 201.133,-59.5216 212.624,-51.7007 224.052,-46.315"/>
<polygon fill="black" stroke="black" points="225.657,-49.4376 233.527,-42.345 222.952,-42.9814 225.657,-49.4376"/>
<text text-anchor="middle" x="215.055" y="-87.4324" font-family="Times,serif" font-size="14.00">HTML</text>
<text text-anchor="middle" x="215.055" y="-73.4324" font-family="Times,serif" font-size="14.00">link</text>
</g>
<!-- Splash Page&#45;&gt;PS -->
<g id="edge10" class="edge"><title>Splash Page&#45;&gt;PS</title>
<path fill="none" stroke="black" d="M256.555,-116.632C256.753,-103.077 257.027,-85.921 257.341,-70.6324 257.394,-68.08 257.453,-65.4231 257.515,-62.7645"/>
<polygon fill="black" stroke="black" points="261.015,-62.8043 257.761,-52.7215 254.017,-62.6326 261.015,-62.8043"/>
<text text-anchor="middle" x="270.665" y="-80.4324" font-family="Times,serif" font-size="14.00">item</text>
</g>
<!-- AUX_DATA -->
<g id="node6" class="node"><title>AUX_DATA</title>
<ellipse fill="none" stroke="black" cx="445.224" cy="-34.6324" rx="56.6306" ry="18"/>
<text text-anchor="middle" x="445.224" y="-30.4324" font-family="Times,serif" font-size="14.00">AUX_DATA</text>
</g>
<!-- Splash Page&#45;&gt;AUX_DATA -->
<g id="edge6" class="edge"><title>Splash Page&#45;&gt;AUX_DATA</title>
<path fill="none" stroke="black" stroke-dasharray="5,2" d="M304.491,-119.611C317.616,-113.286 331.667,-106.058 344.224,-98.6324 362.696,-87.7086 365.465,-82.1664 383.562,-70.6324 391.566,-65.5309 400.343,-60.3272 408.701,-55.5457"/>
<polygon fill="black" stroke="black" points="410.563,-58.5135 417.549,-50.5478 407.12,-52.4186 410.563,-58.5135"/>
<text text-anchor="middle" x="404.055" y="-87.4324" font-family="Times,serif" font-size="14.00">HTML</text>
<text text-anchor="middle" x="404.055" y="-73.4324" font-family="Times,serif" font-size="14.00">link</text>
</g>
<!-- Splash Page&#45;&gt;AUX_DATA -->
<g id="edge11" class="edge"><title>Splash Page&#45;&gt;AUX_DATA</title>
<path fill="none" stroke="black" d="M339.051,-127.589C374.331,-120.341 410.323,-110.457 423.224,-98.6324 433.299,-89.3978 438.76,-75.296 441.721,-62.7737"/>
<polygon fill="black" stroke="black" points="445.193,-63.2522 443.665,-52.768 438.322,-61.9165 445.193,-63.2522"/>
<text text-anchor="middle" x="452.665" y="-80.4324" font-family="Times,serif" font-size="14.00">item</text>
</g>
<!-- Journal Version\nDOI -->
<g id="node7" class="node"><title>Journal Version\nDOI</title>
<ellipse fill="lightgrey" stroke="black" cx="445.224" cy="-257" rx="73.0037" ry="25.4118"/>
<text text-anchor="middle" x="445.224" y="-259.8" font-family="Times,serif" font-size="14.00">Journal Version</text>
<text text-anchor="middle" x="445.224" y="-245.8" font-family="Times,serif" font-size="14.00">DOI</text>
</g>
<!-- Splash Page&#45;&gt;Journal Version\nDOI -->
<g id="edge8" class="edge"><title>Splash Page&#45;&gt;Journal Version\nDOI</title>
<path fill="none" stroke="black" stroke-dasharray="5,2" d="M325.044,-160.673C343.15,-166.967 362.109,-175.153 378.224,-185.544 394.352,-195.943 409.369,-211.001 421.081,-224.529"/>
<polygon fill="black" stroke="black" points="418.469,-226.861 427.578,-232.271 423.83,-222.361 418.469,-226.861"/>
<text text-anchor="middle" x="431.055" y="-202.344" font-family="Times,serif" font-size="14.00">HTML</text>
<text text-anchor="middle" x="431.055" y="-188.344" font-family="Times,serif" font-size="14.00">link</text>
</g>
<!-- PDF&#45;&gt;Splash Page -->
<g id="edge12" class="edge"><title>PDF&#45;&gt;Splash Page</title>
<path fill="none" stroke="black" d="M77.6098,-50.8323C89.8561,-64.9763 109.795,-85.7536 131.024,-98.6324 145.162,-107.209 161.258,-114.321 177.091,-120.113"/>
<polygon fill="black" stroke="black" points="176.301,-123.545 186.896,-123.551 178.617,-116.939 176.301,-123.545"/>
<text text-anchor="middle" x="158.824" y="-80.4324" font-family="Times,serif" font-size="14.00">collection</text>
</g>
<!-- PDF&#45;&gt;PS -->
<g id="edge15" class="edge"><title>PDF&#45;&gt;PS</title>
<path fill="none" stroke="black" d="M92.4668,-34.6324C126.089,-34.6324 183.418,-34.6324 221.061,-34.6324"/>
<polygon fill="black" stroke="black" points="221.12,-38.1325 231.12,-34.6324 221.12,-31.1325 221.12,-38.1325"/>
<text text-anchor="middle" x="161.724" y="-54.4324" font-family="Times,serif" font-size="14.00">alternate</text>
<text text-anchor="middle" x="161.724" y="-40.4324" font-family="Times,serif" font-size="14.00">application/postscript</text>
</g>
<!-- PS&#45;&gt;Splash Page -->
<g id="edge13" class="edge"><title>PS&#45;&gt;Splash Page</title>
<path fill="none" stroke="black" d="M271.415,-50.5981C275.737,-56.4397 279.999,-63.4541 282.224,-70.6324 285.908,-82.519 285.6,-86.6546 282.224,-98.6324 281.333,-101.794 280.133,-104.952 278.737,-108.038"/>
<polygon fill="black" stroke="black" points="275.578,-106.527 274.067,-117.013 281.788,-109.758 275.578,-106.527"/>
<text text-anchor="middle" x="312.824" y="-80.4324" font-family="Times,serif" font-size="14.00">collection</text>
</g>
<!-- PS&#45;&gt;PDF -->
<g id="edge16" class="edge"><title>PS&#45;&gt;PDF</title>
<path fill="none" stroke="black" d="M240.244,-21.1601C230.18,-14.4664 217.076,-7.08528 204.1,-3.63236 185.9,1.21079 137.548,1.21079 119.348,-3.63236 109.819,-6.1681 100.22,-10.8223 91.8079,-15.7671"/>
<polygon fill="black" stroke="black" points="89.8184,-12.8833 83.2043,-21.1601 93.5362,-18.8144 89.8184,-12.8833"/>
<text text-anchor="middle" x="161.724" y="-20.4324" font-family="Times,serif" font-size="14.00">alternate</text>
<text text-anchor="middle" x="161.724" y="-6.43236" font-family="Times,serif" font-size="14.00">application/pdf</text>
</g>
<!-- AUX_DATA&#45;&gt;Splash Page -->
<g id="edge14" class="edge"><title>AUX_DATA&#45;&gt;Splash Page</title>
<path fill="none" stroke="black" d="M459.888,-52.1098C470.205,-65.7625 480.359,-85.0589 469.224,-98.6324 467.119,-101.199 402.85,-113.793 345.461,-124.604"/>
<polygon fill="black" stroke="black" points="344.765,-121.174 335.583,-126.46 346.057,-128.053 344.765,-121.174"/>
<text text-anchor="middle" x="501.824" y="-80.4324" font-family="Times,serif" font-size="14.00">collection</text>
</g>
<!-- Journal Splash Page -->
<g id="node8" class="node"><title>Journal Splash Page</title>
<ellipse fill="none" stroke="black" cx="477.224" cy="-142.088" rx="81.1767" ry="18"/>
<text text-anchor="middle" x="477.224" y="-137.888" font-family="Times,serif" font-size="14.00">Journal Splash Page</text>
</g>
<!-- Journal Version\nDOI&#45;&gt;Journal Splash Page -->
<g id="edge17" class="edge"><title>Journal Version\nDOI&#45;&gt;Journal Splash Page</title>
<path fill="none" stroke="black" stroke-dasharray="5,2" d="M452.167,-231.5C457.317,-213.331 464.332,-188.578 469.63,-169.884"/>
<polygon fill="black" stroke="black" points="473.014,-170.778 472.374,-160.203 466.279,-168.869 473.014,-170.778"/>
<text text-anchor="middle" x="497.688" y="-202.344" font-family="Times,serif" font-size="14.00">conneg 303</text>
<text text-anchor="middle" x="497.688" y="-188.344" font-family="Times,serif" font-size="14.00">text/html</text>
</g>
</g>
</svg>
