<?xml version="1.0" encoding="UTF-8" standalone="no"?>
<!DOCTYPE svg PUBLIC "-//W3C//DTD SVG 1.1//EN"
 "http://www.w3.org/Graphics/SVG/1.1/DTD/svg11.dtd">
<!-- Generated by graphviz version 2.38.0 (20140413.2041)
 -->
<!-- Title: ARXIV_NO_ITEM Pages: 1 -->
<svg width="1048pt" height="183pt"
 viewBox="0.00 0.00 1048.36 182.56" xmlns="http://www.w3.org/2000/svg" xmlns:xlink="http://www.w3.org/1999/xlink">
<g id="graph0" class="graph" transform="scale(1 1) rotate(0) translate(4 178.564)">
<title>ARXIV_NO_ITEM</title>
<polygon fill="white" stroke="none" points="-4,4 -4,-178.564 1044.36,-178.564 1044.36,4 -4,4"/>
<!-- Splash Page -->
<g id="node1" class="node"><title>Splash Page</title>
<ellipse fill="none" stroke="black" cx="425.021" cy="-149.108" rx="100.289" ry="25.4118"/>
<text text-anchor="middle" x="425.021" y="-151.908" font-family="Times,serif" font-size="14.00">Splash Page</text>
<text text-anchor="middle" x="425.021" y="-137.908" font-family="Times,serif" font-size="14.00">(e.g. /abs/1501.12345)</text>
</g>
<!-- Splash Page&#45;&gt;Splash Page -->
<g id="edge4" class="edge"><title>Splash Page&#45;&gt;Splash Page</title>
<path fill="none" stroke="black" d="M516.816,-159.544C542.097,-159.04 561.416,-155.561 561.416,-149.108 561.416,-143.537 547.018,-140.183 526.817,-139.046"/>
<polygon fill="black" stroke="black" points="526.94,-135.548 516.816,-138.672 526.678,-142.543 526.94,-135.548"/>
<text text-anchor="middle" x="599.564" y="-144.908" font-family="Times,serif" font-size="14.00">rel=canonical</text>
</g>
<!-- PDF -->
<g id="node2" class="node"><title>PDF</title>
<ellipse fill="none" stroke="black" cx="131.021" cy="-34.1962" rx="27" ry="18"/>
<text text-anchor="middle" x="131.021" y="-29.9962" font-family="Times,serif" font-size="14.00">PDF</text>
</g>
<!-- Splash Page&#45;&gt;PDF -->
<g id="edge1" class="edge"><title>Splash Page&#45;&gt;PDF</title>
<path fill="none" stroke="black" stroke-dasharray="5,2" d="M325.905,-144.885C209.16,-140.046 28.3393,-128.873 7.35934,-105.652 -22.0552,-73.0959 48.8334,-51.8056 95.03,-41.816"/>
<polygon fill="black" stroke="black" points="95.9518,-45.1994 105.034,-39.7434 94.5317,-38.345 95.9518,-45.1994"/>
<text text-anchor="middle" x="27.8525" y="-94.452" font-family="Times,serif" font-size="14.00">HTML</text>
<text text-anchor="middle" x="27.8525" y="-80.452" font-family="Times,serif" font-size="14.00">link</text>
</g>
<!-- Splash Page&#45;&gt;PDF -->
<g id="edge6" class="edge"><title>Splash Page&#45;&gt;PDF</title>
<path fill="none" stroke="black" d="M328.165,-142.344C234.429,-135.753 104.228,-123.514 88.4775,-105.652 74.8335,-90.1787 90.1103,-69.7492 106.027,-54.8752"/>
<polygon fill="black" stroke="black" points="108.571,-57.2986 113.768,-48.0658 103.948,-52.0427 108.571,-57.2986"/>
<text text-anchor="middle" x="112.793" y="-87.452" font-family="Times,serif" font-size="14.00">rel=item</text>
</g>
<!-- PS -->
<g id="node3" class="node"><title>PS</title>
<ellipse fill="none" stroke="black" cx="342.021" cy="-34.1962" rx="27" ry="18"/>
<text text-anchor="middle" x="342.021" y="-29.9962" font-family="Times,serif" font-size="14.00">PS</text>
</g>
<!-- Splash Page&#45;&gt;PS -->
<g id="edge2" class="edge"><title>Splash Page&#45;&gt;PS</title>
<path fill="none" stroke="black" stroke-dasharray="5,2" d="M338.85,-136.015C322.224,-129.639 306.765,-120.043 296.359,-105.652 284.176,-88.8016 299.75,-68.8525 315.929,-54.4907"/>
<polygon fill="black" stroke="black" points="318.362,-57.0192 323.802,-47.9272 313.88,-51.6427 318.362,-57.0192"/>
<text text-anchor="middle" x="316.853" y="-94.452" font-family="Times,serif" font-size="14.00">HTML</text>
<text text-anchor="middle" x="316.853" y="-80.452" font-family="Times,serif" font-size="14.00">link</text>
</g>
<!-- Splash Page&#45;&gt;PS -->
<g id="edge7" class="edge"><title>Splash Page&#45;&gt;PS</title>
<path fill="none" stroke="black" d="M395.149,-124.555C388.863,-118.78 382.594,-112.327 377.478,-105.652 367.153,-92.1849 358.516,-75.2463 352.352,-61.3529"/>
<polygon fill="black" stroke="black" points="355.451,-59.6962 348.312,-51.8676 349.011,-62.4394 355.451,-59.6962"/>
<text text-anchor="middle" x="401.793" y="-87.452" font-family="Times,serif" font-size="14.00">rel=item</text>
</g>
<!-- AUX_DATA -->
<g id="node4" class="node"><title>AUX_DATA</title>
<ellipse fill="none" stroke="black" cx="670.021" cy="-34.1962" rx="56.6306" ry="18"/>
<text text-anchor="middle" x="670.021" y="-29.9962" font-family="Times,serif" font-size="14.00">AUX_DATA</text>
</g>
<!-- Splash Page&#45;&gt;AUX_DATA -->
<g id="edge3" class="edge"><title>Splash Page&#45;&gt;AUX_DATA</title>
<path fill="none" stroke="black" stroke-dasharray="5,2" d="M475.322,-127.049C490.987,-120.353 508.279,-112.822 524.021,-105.652 560.885,-88.8631 602.445,-68.6826 631.77,-54.2306"/>
<polygon fill="black" stroke="black" points="633.423,-57.3177 640.839,-49.7512 630.323,-51.0414 633.423,-57.3177"/>
<text text-anchor="middle" x="604.853" y="-94.452" font-family="Times,serif" font-size="14.00">HTML</text>
<text text-anchor="middle" x="604.853" y="-80.452" font-family="Times,serif" font-size="14.00">link</text>
</g>
<!-- Splash Page&#45;&gt;AUX_DATA -->
<g id="edge8" class="edge"><title>Splash Page&#45;&gt;AUX_DATA</title>
<path fill="none" stroke="black" d="M513.691,-137.106C560.167,-129.916 611.253,-119.317 630.021,-105.652 644.853,-94.8536 654.954,-76.7696 661.296,-61.6269"/>
<polygon fill="black" stroke="black" points="664.596,-62.7964 664.932,-52.2069 658.066,-60.2756 664.596,-62.7964"/>
<text text-anchor="middle" x="677.793" y="-87.452" font-family="Times,serif" font-size="14.00">rel=item</text>
</g>
<!-- Journal Version\nDOI -->
<g id="node5" class="node"><title>Journal Version\nDOI</title>
<ellipse fill="lightgrey" stroke="black" cx="918.021" cy="-34.1962" rx="73.0037" ry="25.4118"/>
<text text-anchor="middle" x="918.021" y="-36.9962" font-family="Times,serif" font-size="14.00">Journal Version</text>
<text text-anchor="middle" x="918.021" y="-22.9962" font-family="Times,serif" font-size="14.00">DOI</text>
</g>
<!-- Splash Page&#45;&gt;Journal Version\nDOI -->
<g id="edge5" class="edge"><title>Splash Page&#45;&gt;Journal Version\nDOI</title>
<path fill="none" stroke="black" stroke-dasharray="5,2" d="M521.608,-142.127C616.302,-135.397 753.564,-123.08 804.021,-105.652 831.784,-96.0629 859.888,-78.7978 881.245,-63.759"/>
<polygon fill="black" stroke="black" points="883.302,-66.5911 889.377,-57.911 879.215,-60.908 883.302,-66.5911"/>
<text text-anchor="middle" x="879.853" y="-94.452" font-family="Times,serif" font-size="14.00">HTML</text>
<text text-anchor="middle" x="879.853" y="-80.452" font-family="Times,serif" font-size="14.00">link</text>
</g>
<!-- PDF&#45;&gt;Splash Page -->
<g id="edge9" class="edge"><title>PDF&#45;&gt;Splash Page</title>
<path fill="none" stroke="black" d="M142.591,-50.4923C155.842,-66.8509 179.11,-92.2439 205.16,-105.652 240.063,-123.617 281.639,-134.015 319.192,-140.021"/>
<polygon fill="black" stroke="black" points="318.745,-143.493 329.156,-141.528 319.792,-136.572 318.745,-143.493"/>
<text text-anchor="middle" x="244.952" y="-87.452" font-family="Times,serif" font-size="14.00">rel=collection</text>
</g>
<!-- PDF&#45;&gt;PS -->
<g id="edge12" class="edge"><title>PDF&#45;&gt;PS</title>
<path fill="none" stroke="black" d="M158.174,-34.1962C195.524,-34.1962 262.886,-34.1962 304.878,-34.1962"/>
<polygon fill="black" stroke="black" points="304.973,-37.6963 314.973,-34.1962 304.973,-30.6963 304.973,-37.6963"/>
<text text-anchor="middle" x="236.521" y="-53.9962" font-family="Times,serif" font-size="14.00">rel=alternate</text>
<text text-anchor="middle" x="236.521" y="-39.9962" font-family="Times,serif" font-size="14.00">application/postscript</text>
</g>
<!-- PS&#45;&gt;Splash Page -->
<g id="edge10" class="edge"><title>PS&#45;&gt;Splash Page</title>
<path fill="none" stroke="black" d="M367.831,-39.9215C388.605,-45.2306 416.492,-56.1029 430.021,-77.652 436.644,-88.1997 437.225,-101.468 435.515,-113.637"/>
<polygon fill="black" stroke="black" points="432.067,-113.038 433.623,-123.517 438.942,-114.354 432.067,-113.038"/>
<text text-anchor="middle" x="475.952" y="-87.452" font-family="Times,serif" font-size="14.00">rel=collection</text>
</g>
<!-- PS&#45;&gt;PDF -->
<g id="edge13" class="edge"><title>PS&#45;&gt;PDF</title>
<path fill="none" stroke="black" d="M322.435,-21.6695C310.394,-14.7256 294.358,-6.78759 278.897,-3.19618 260.552,1.06539 212.491,1.06539 194.145,-3.19618 182.309,-5.94586 170.134,-11.2434 159.674,-16.692"/>
<polygon fill="black" stroke="black" points="157.689,-13.7887 150.608,-21.6695 161.058,-19.9246 157.689,-13.7887"/>
<text text-anchor="middle" x="236.521" y="-19.9962" font-family="Times,serif" font-size="14.00">rel=alternate</text>
<text text-anchor="middle" x="236.521" y="-5.99618" font-family="Times,serif" font-size="14.00">application/pdf</text>
</g>
<!-- AUX_DATA&#45;&gt;Splash Page -->
<g id="edge11" class="edge"><title>AUX_DATA&#45;&gt;Splash Page</title>
<path fill="none" stroke="black" d="M690.185,-51.1082C706.825,-66.1393 725.533,-88.8268 711.021,-105.652 688.249,-132.054 605.974,-142.304 535.48,-146.157"/>
<polygon fill="black" stroke="black" points="534.983,-142.678 525.173,-146.68 535.338,-149.669 534.983,-142.678"/>
<text text-anchor="middle" x="755.952" y="-87.452" font-family="Times,serif" font-size="14.00">rel=collection</text>
</g>
<!-- Journal Splash Page -->
<g id="node6" class="node"><title>Journal Splash Page</title>
<ellipse fill="none" stroke="black" cx="959.021" cy="-149.108" rx="81.1767" ry="18"/>
<text text-anchor="middle" x="959.021" y="-144.908" font-family="Times,serif" font-size="14.00">Journal Splash Page</text>
</g>
<!-- Journal Version\nDOI&#45;&gt;Journal Splash Page -->
<g id="edge14" class="edge"><title>Journal Version\nDOI&#45;&gt;Journal Splash Page</title>
<path fill="none" stroke="black" stroke-dasharray="5,2" d="M926.897,-59.6398C933.522,-77.884 942.566,-102.79 949.37,-121.528"/>
<polygon fill="black" stroke="black" points="946.091,-122.754 952.794,-130.959 952.671,-120.365 946.091,-122.754"/>
<text text-anchor="middle" x="976.485" y="-94.452" font-family="Times,serif" font-size="14.00">conneg 303</text>
<text text-anchor="middle" x="976.485" y="-80.452" font-family="Times,serif" font-size="14.00">text/html</text>
</g>
</g>
</svg>
