<?xml version="1.0" encoding="UTF-8" standalone="no"?>
<!DOCTYPE svg PUBLIC "-//W3C//DTD SVG 1.1//EN"
 "http://www.w3.org/Graphics/SVG/1.1/DTD/svg11.dtd">
<!-- Generated by graphviz version 2.38.0 (20140413.2041)
 -->
<!-- Title: ARXIV_NO_ITEM Pages: 1 -->
<svg width="723pt" height="183pt"
 viewBox="0.00 0.00 723.33 183.00" xmlns="http://www.w3.org/2000/svg" xmlns:xlink="http://www.w3.org/1999/xlink">
<g id="graph0" class="graph" transform="scale(1 1) rotate(0) translate(4 179)">
<title>ARXIV_NO_ITEM</title>
<polygon fill="white" stroke="none" points="-4,4 -4,-179 719.326,-179 719.326,4 -4,4"/>
<!-- Splash Page -->
<g id="node1" class="node"><title>Splash Page</title>
<ellipse fill="none" stroke="black" cx="279.988" cy="-149.544" rx="100.289" ry="25.4118"/>
<text text-anchor="middle" x="279.988" y="-152.344" font-family="Times,serif" font-size="14.00">Splash Page</text>
<text text-anchor="middle" x="279.988" y="-138.344" font-family="Times,serif" font-size="14.00">(e.g. /abs/1501.12345)</text>
</g>
<!-- Splash Page&#45;&gt;Splash Page -->
<g id="edge4" class="edge"><title>Splash Page&#45;&gt;Splash Page</title>
<path fill="none" stroke="black" d="M372.809,-159.259C387.966,-157.868 398.383,-154.63 398.383,-149.544 398.383,-145.69 392.401,-142.897 382.907,-141.165"/>
<polygon fill="black" stroke="black" points="383.182,-137.671 372.809,-139.829 382.264,-144.61 383.182,-137.671"/>
<text text-anchor="middle" x="425.2" y="-145.344" font-family="Times,serif" font-size="14.00">canonical</text>
</g>
<!-- PDF -->
<g id="node2" class="node"><title>PDF</title>
<ellipse fill="none" stroke="black" cx="64.9882" cy="-34.6324" rx="27" ry="18"/>
<text text-anchor="middle" x="64.9882" y="-30.4324" font-family="Times,serif" font-size="14.00">PDF</text>
</g>
<!-- Splash Page&#45;&gt;PDF -->
<g id="edge1" class="edge"><title>Splash Page&#45;&gt;PDF</title>
<path fill="none" stroke="black" stroke-dasharray="5,2" d="M180.173,-146.36C111.142,-142.493 27.8196,-132.326 5.32613,-106.088 -2.77347,-96.6404 -0.378049,-89.1483 5.32613,-78.0882 11.4875,-66.1416 22.737,-56.821 33.8205,-49.9951"/>
<polygon fill="black" stroke="black" points="35.5862,-53.0175 42.5733,-45.0532 32.1446,-46.922 35.5862,-53.0175"/>
<text text-anchor="middle" x="25.8193" y="-94.8882" font-family="Times,serif" font-size="14.00">HTML</text>
<text text-anchor="middle" x="25.8193" y="-80.8882" font-family="Times,serif" font-size="14.00">link</text>
</g>
<!-- Splash Page&#45;&gt;PDF -->
<g id="edge6" class="edge"><title>Splash Page&#45;&gt;PDF</title>
<path fill="none" stroke="black" d="M185.479,-140.953C136.495,-134.891 83.7008,-124.283 68.1054,-106.088 58.0387,-94.3437 57.1487,-77.0321 58.8296,-62.5083"/>
<polygon fill="black" stroke="black" points="62.3,-62.9705 60.4135,-52.545 55.3868,-61.8714 62.3,-62.9705"/>
<text text-anchor="middle" x="81.4296" y="-87.8882" font-family="Times,serif" font-size="14.00">item</text>
</g>
<!-- PS -->
<g id="node3" class="node"><title>PS</title>
<ellipse fill="none" stroke="black" cx="257.988" cy="-34.6324" rx="27" ry="18"/>
<text text-anchor="middle" x="257.988" y="-30.4324" font-family="Times,serif" font-size="14.00">PS</text>
</g>
<!-- Splash Page&#45;&gt;PS -->
<g id="edge2" class="edge"><title>Splash Page&#45;&gt;PS</title>
<path fill="none" stroke="black" stroke-dasharray="5,2" d="M219.306,-129.257C209.371,-123.39 200.364,-115.82 194.326,-106.088 187.765,-95.5138 188.455,-89.0606 194.326,-78.0882 201.169,-65.3005 213.753,-55.6984 225.937,-48.8905"/>
<polygon fill="black" stroke="black" points="227.762,-51.8887 235.075,-44.2226 224.577,-45.6549 227.762,-51.8887"/>
<text text-anchor="middle" x="214.819" y="-94.8882" font-family="Times,serif" font-size="14.00">HTML</text>
<text text-anchor="middle" x="214.819" y="-80.8882" font-family="Times,serif" font-size="14.00">link</text>
</g>
<!-- Splash Page&#45;&gt;PS -->
<g id="edge7" class="edge"><title>Splash Page&#45;&gt;PS</title>
<path fill="none" stroke="black" d="M264.267,-124.243C261.312,-118.507 258.662,-112.258 257.105,-106.088 253.598,-92.1885 253.487,-76.2505 254.397,-63.053"/>
<polygon fill="black" stroke="black" points="257.917,-62.9956 255.35,-52.7165 250.947,-62.3529 257.917,-62.9956"/>
<text text-anchor="middle" x="270.43" y="-87.8882" font-family="Times,serif" font-size="14.00">item</text>
</g>
<!-- AUX_DATA -->
<g id="node4" class="node"><title>AUX_DATA</title>
<ellipse fill="none" stroke="black" cx="444.988" cy="-34.6324" rx="56.6306" ry="18"/>
<text text-anchor="middle" x="444.988" y="-30.4324" font-family="Times,serif" font-size="14.00">AUX_DATA</text>
</g>
<!-- Splash Page&#45;&gt;AUX_DATA -->
<g id="edge3" class="edge"><title>Splash Page&#45;&gt;AUX_DATA</title>
<path fill="none" stroke="black" stroke-dasharray="5,2" d="M315.633,-125.74C325.231,-119.47 335.563,-112.602 344.988,-106.088 362.346,-94.0927 366.116,-90.2944 383.326,-78.0882 393.166,-71.1096 403.976,-63.6107 413.759,-56.8861"/>
<polygon fill="black" stroke="black" points="415.773,-59.7492 422.042,-51.2084 411.815,-53.9754 415.773,-59.7492"/>
<text text-anchor="middle" x="403.819" y="-94.8882" font-family="Times,serif" font-size="14.00">HTML</text>
<text text-anchor="middle" x="403.819" y="-80.8882" font-family="Times,serif" font-size="14.00">link</text>
</g>
<!-- Splash Page&#45;&gt;AUX_DATA -->
<g id="edge8" class="edge"><title>Splash Page&#45;&gt;AUX_DATA</title>
<path fill="none" stroke="black" d="M367.415,-137.03C387.761,-130.713 407.867,-120.998 422.988,-106.088 434.516,-94.7215 440.024,-77.4147 442.646,-62.7991"/>
<polygon fill="black" stroke="black" points="446.131,-63.152 444.09,-52.7556 439.202,-62.1557 446.131,-63.152"/>
<text text-anchor="middle" x="451.43" y="-87.8882" font-family="Times,serif" font-size="14.00">item</text>
</g>
<!-- Journal Version\nDOI -->
<g id="node5" class="node"><title>Journal Version\nDOI</title>
<ellipse fill="lightgrey" stroke="black" cx="612.988" cy="-34.6324" rx="73.0037" ry="25.4118"/>
<text text-anchor="middle" x="612.988" y="-37.4324" font-family="Times,serif" font-size="14.00">Journal Version</text>
<text text-anchor="middle" x="612.988" y="-23.4324" font-family="Times,serif" font-size="14.00">DOI</text>
</g>
<!-- Splash Page&#45;&gt;Journal Version\nDOI -->
<g id="edge5" class="edge"><title>Splash Page&#45;&gt;Journal Version\nDOI</title>
<path fill="none" stroke="black" stroke-dasharray="5,2" d="M378.69,-144.648C427.098,-139.637 485.131,-128.862 532.988,-106.088 552.769,-96.6751 571.361,-80.9041 585.634,-66.667"/>
<polygon fill="black" stroke="black" points="588.232,-69.0158 592.688,-59.4036 583.21,-64.1391 588.232,-69.0158"/>
<text text-anchor="middle" x="593.819" y="-94.8882" font-family="Times,serif" font-size="14.00">HTML</text>
<text text-anchor="middle" x="593.819" y="-80.8882" font-family="Times,serif" font-size="14.00">link</text>
</g>
<!-- PDF&#45;&gt;Splash Page -->
<g id="edge9" class="edge"><title>PDF&#45;&gt;Splash Page</title>
<path fill="none" stroke="black" d="M75.7292,-51.4371C87.4467,-67.4939 107.65,-91.9535 130.788,-106.088 148.743,-117.057 169.635,-125.285 189.999,-131.423"/>
<polygon fill="black" stroke="black" points="189.043,-134.79 199.621,-134.185 190.975,-128.062 189.043,-134.79"/>
<text text-anchor="middle" x="158.588" y="-87.8882" font-family="Times,serif" font-size="14.00">collection</text>
</g>
<!-- PDF&#45;&gt;PS -->
<g id="edge12" class="edge"><title>PDF&#45;&gt;PS</title>
<path fill="none" stroke="black" d="M92.2311,-34.6324C125.853,-34.6324 183.183,-34.6324 220.825,-34.6324"/>
<polygon fill="black" stroke="black" points="220.884,-38.1325 230.884,-34.6324 220.884,-31.1325 220.884,-38.1325"/>
<text text-anchor="middle" x="161.488" y="-54.4324" font-family="Times,serif" font-size="14.00">alternate</text>
<text text-anchor="middle" x="161.488" y="-40.4324" font-family="Times,serif" font-size="14.00">application/postscript</text>
</g>
<!-- PS&#45;&gt;Splash Page -->
<g id="edge10" class="edge"><title>PS&#45;&gt;Splash Page</title>
<path fill="none" stroke="black" d="M269.429,-51.3145C274.327,-58.9821 279.489,-68.5897 281.988,-78.0882 284.992,-89.5045 285.448,-102.322 284.849,-113.863"/>
<polygon fill="black" stroke="black" points="281.345,-113.781 284.046,-124.026 288.323,-114.333 281.345,-113.781"/>
<text text-anchor="middle" x="313.588" y="-87.8882" font-family="Times,serif" font-size="14.00">collection</text>
</g>
<!-- PS&#45;&gt;PDF -->
<g id="edge13" class="edge"><title>PS&#45;&gt;PDF</title>
<path fill="none" stroke="black" d="M240.008,-21.1601C229.944,-14.4664 216.84,-7.08528 203.864,-3.63236 185.664,1.21079 137.313,1.21079 119.112,-3.63236 109.583,-6.1681 99.9847,-10.8223 91.5722,-15.7671"/>
<polygon fill="black" stroke="black" points="89.5827,-12.8833 82.9686,-21.1601 93.3005,-18.8144 89.5827,-12.8833"/>
<text text-anchor="middle" x="161.488" y="-20.4324" font-family="Times,serif" font-size="14.00">alternate</text>
<text text-anchor="middle" x="161.488" y="-6.43236" font-family="Times,serif" font-size="14.00">application/pdf</text>
</g>
<!-- AUX_DATA&#45;&gt;Splash Page -->
<g id="edge11" class="edge"><title>AUX_DATA&#45;&gt;Splash Page</title>
<path fill="none" stroke="black" d="M458.512,-52.3081C469.239,-67.6759 480.521,-90.409 467.988,-106.088 456.385,-120.604 419.459,-130.516 381.368,-137.086"/>
<polygon fill="black" stroke="black" points="380.445,-133.691 371.146,-138.769 381.582,-140.598 380.445,-133.691"/>
<text text-anchor="middle" x="501.588" y="-87.8882" font-family="Times,serif" font-size="14.00">collection</text>
</g>
<!-- Journal Splash Page -->
<g id="node6" class="node"><title>Journal Splash Page</title>
<ellipse fill="none" stroke="black" cx="633.988" cy="-149.544" rx="81.1767" ry="18"/>
<text text-anchor="middle" x="633.988" y="-145.344" font-family="Times,serif" font-size="14.00">Journal Splash Page</text>
</g>
<!-- Journal Version\nDOI&#45;&gt;Journal Splash Page -->
<g id="edge14" class="edge"><title>Journal Version\nDOI&#45;&gt;Journal Splash Page</title>
<path fill="none" stroke="black" stroke-dasharray="5,2" d="M617.534,-60.076C620.896,-78.152 625.474,-102.768 628.948,-121.445"/>
<polygon fill="black" stroke="black" points="625.529,-122.204 630.799,-131.395 632.411,-120.924 625.529,-122.204"/>
<text text-anchor="middle" x="658.452" y="-94.8882" font-family="Times,serif" font-size="14.00">conneg 303</text>
<text text-anchor="middle" x="658.452" y="-80.8882" font-family="Times,serif" font-size="14.00">text/html</text>
</g>
</g>
</svg>
