<?xml version="1.0" encoding="UTF-8" standalone="no"?>
<!DOCTYPE svg PUBLIC "-//W3C//DTD SVG 1.1//EN"
 "http://www.w3.org/Graphics/SVG/1.1/DTD/svg11.dtd">
<!-- Generated by graphviz version 2.38.0 (20140413.2041)
 -->
<!-- Title: DLIB Pages: 1 -->
<svg width="480pt" height="144pt"
 viewBox="0.00 0.00 479.79 144.00" xmlns="http://www.w3.org/2000/svg" xmlns:xlink="http://www.w3.org/1999/xlink">
<g id="graph0" class="graph" transform="scale(1 1) rotate(0) translate(4 140)">
<title>DLIB</title>
<polygon fill="white" stroke="none" points="-4,4 -4,-140 475.791,-140 475.791,4 -4,4"/>
<!-- DOI -->
<g id="node1" class="node"><title>DOI</title>
<ellipse fill="lightgrey" stroke="black" cx="221.701" cy="-118" rx="27" ry="18"/>
<text text-anchor="middle" x="221.701" y="-113.8" font-family="Times,serif" font-size="14.00">DOI</text>
</g>
<!-- HTML Article -->
<g id="node2" class="node"><title>HTML Article</title>
<ellipse fill="none" stroke="black" cx="92.7014" cy="-18" rx="61.2333" ry="18"/>
<text text-anchor="middle" x="92.7014" y="-13.8" font-family="Times,serif" font-size="14.00">HTML Article</text>
</g>
<!-- DOI&#45;&gt;HTML Article -->
<g id="edge1" class="edge"><title>DOI&#45;&gt;HTML Article</title>
<path fill="none" stroke="black" stroke-dasharray="5,2" d="M194.448,-116.781C141.917,-115.718 29.7086,-110.127 5.77371,-82 -2.2912,-72.5226 -1.19131,-64.3127 5.77371,-54 12.3233,-44.3023 22.0551,-37.2911 32.6637,-32.2223"/>
<polygon fill="black" stroke="black" points="34.2815,-35.3395 42.1542,-28.2493 31.5783,-28.8824 34.2815,-35.3395"/>
<text text-anchor="middle" x="39.1653" y="-70.8" font-family="Times,serif" font-size="14.00">conneg 303</text>
<text text-anchor="middle" x="39.1653" y="-56.8" font-family="Times,serif" font-size="14.00">text/html</text>
</g>
<!-- DOI&#45;&gt;HTML Article -->
<g id="edge2" class="edge"><title>DOI&#45;&gt;HTML Article</title>
<path fill="none" stroke="black" d="M195.454,-113.511C161.847,-108.448 106.46,-97.8995 94.0598,-82 86.3064,-72.0584 85.2584,-58.3007 86.4498,-46.1773"/>
<polygon fill="black" stroke="black" points="89.9421,-46.489 87.9612,-36.081 83.0192,-45.4527 89.9421,-46.489"/>
<text text-anchor="middle" x="128.522" y="-70.8" font-family="Times,serif" font-size="14.00">describedby</text>
<text text-anchor="middle" x="128.522" y="-56.8" font-family="Times,serif" font-size="14.00">text/html</text>
</g>
<!-- RDF -->
<g id="node3" class="node"><title>RDF</title>
<ellipse fill="none" stroke="black" cx="348.701" cy="-18" rx="27.1216" ry="18"/>
<text text-anchor="middle" x="348.701" y="-13.8" font-family="Times,serif" font-size="14.00">RDF</text>
</g>
<!-- DOI&#45;&gt;RDF -->
<g id="edge3" class="edge"><title>DOI&#45;&gt;RDF</title>
<path fill="none" stroke="black" stroke-dasharray="5,2" d="M230.508,-100.772C239.625,-84.4476 253.65,-60.7534 261.774,-54 276.729,-41.568 296.671,-33.1147 313.683,-27.6352"/>
<polygon fill="black" stroke="black" points="314.73,-30.975 323.3,-24.745 312.716,-24.2712 314.73,-30.975"/>
<text text-anchor="middle" x="295.165" y="-70.8" font-family="Times,serif" font-size="14.00">conneg 303</text>
<text text-anchor="middle" x="295.165" y="-56.8" font-family="Times,serif" font-size="14.00">text/turtle</text>
</g>
<!-- DOI&#45;&gt;RDF -->
<g id="edge4" class="edge"><title>DOI&#45;&gt;RDF</title>
<path fill="none" stroke="black" d="M248.389,-114.653C271.912,-111.221 305.629,-102.775 326.701,-82 336.369,-72.4685 341.796,-58.4619 344.839,-46.0745"/>
<polygon fill="black" stroke="black" points="348.287,-46.684 346.874,-36.1837 341.43,-45.2728 348.287,-46.684"/>
<text text-anchor="middle" x="376.522" y="-70.8" font-family="Times,serif" font-size="14.00">describedby</text>
<text text-anchor="middle" x="376.522" y="-56.8" font-family="Times,serif" font-size="14.00">text/turtle</text>
</g>
<!-- HTML Article&#45;&gt;DOI -->
<g id="edge5" class="edge"><title>HTML Article&#45;&gt;DOI</title>
<path fill="none" stroke="black" d="M126.987,-32.9996C138.622,-38.6063 151.298,-45.7172 161.701,-54 174.381,-64.0956 173.997,-70.1607 185.067,-82 189.377,-86.6101 194.149,-91.3854 198.785,-95.8712"/>
<polygon fill="black" stroke="black" points="196.695,-98.7133 206.354,-103.067 201.518,-93.64 196.695,-98.7133"/>
<text text-anchor="middle" x="212.519" y="-70.8" font-family="Times,serif" font-size="14.00">canonical</text>
<text text-anchor="middle" x="212.519" y="-56.8" font-family="Times,serif" font-size="14.00">describes</text>
</g>
<!-- HTML Article&#45;&gt;HTML Article -->
<g id="edge7" class="edge"><title>HTML Article&#45;&gt;HTML Article</title>
<path fill="none" stroke="black" d="M145.199,-27.3384C160.229,-26.9722 171.818,-23.8594 171.818,-18 171.818,-13.5597 165.162,-10.6967 155.398,-9.411"/>
<polygon fill="black" stroke="black" points="155.428,-5.9039 145.199,-8.66162 154.915,-12.8851 155.428,-5.9039"/>
<text text-anchor="middle" x="184.259" y="-13.8" font-family="Times,serif" font-size="14.00">item</text>
</g>
<!-- RDF&#45;&gt;DOI -->
<g id="edge6" class="edge"><title>RDF&#45;&gt;DOI</title>
<path fill="none" stroke="black" d="M373.943,-25.3544C388.604,-30.483 405.876,-39.33 414.701,-54 421.117,-64.6635 422.677,-72.4476 414.701,-82 395.242,-105.306 309.252,-113.126 258.856,-115.725"/>
<polygon fill="black" stroke="black" points="258.503,-112.238 248.679,-116.205 258.833,-119.23 258.503,-112.238"/>
<text text-anchor="middle" x="445.746" y="-63.8" font-family="Times,serif" font-size="14.00">describes</text>
</g>
</g>
</svg>
