<?xml version="1.0" encoding="UTF-8" standalone="no"?>
<!DOCTYPE svg PUBLIC "-//W3C//DTD SVG 1.1//EN"
 "http://www.w3.org/Graphics/SVG/1.1/DTD/svg11.dtd">
<!-- Generated by graphviz version 2.38.0 (20140413.2041)
 -->
<!-- Title: DLIB Pages: 1 -->
<svg width="569pt" height="144pt"
 viewBox="0.00 0.00 568.50 144.00" xmlns="http://www.w3.org/2000/svg" xmlns:xlink="http://www.w3.org/1999/xlink">
<g id="graph0" class="graph" transform="scale(1 1) rotate(0) translate(4 140)">
<title>DLIB</title>
<polygon fill="white" stroke="none" points="-4,4 -4,-140 564.502,-140 564.502,4 -4,4"/>
<!-- DOI -->
<g id="node1" class="node"><title>DOI</title>
<ellipse fill="lightgrey" stroke="black" cx="254.751" cy="-118" rx="27" ry="18"/>
<text text-anchor="middle" x="254.751" y="-113.8" font-family="Times,serif" font-size="14.00">DOI</text>
</g>
<!-- HTML Article -->
<g id="node2" class="node"><title>HTML Article</title>
<ellipse fill="none" stroke="black" cx="92.751" cy="-18" rx="61.2333" ry="18"/>
<text text-anchor="middle" x="92.751" y="-13.8" font-family="Times,serif" font-size="14.00">HTML Article</text>
</g>
<!-- DOI&#45;&gt;HTML Article -->
<g id="edge1" class="edge"><title>DOI&#45;&gt;HTML Article</title>
<path fill="none" stroke="black" stroke-dasharray="5,2" d="M227.461,-117.441C168.927,-117.743 34.3106,-114.773 5.82326,-82 -2.34075,-72.6078 -1.14177,-64.3127 5.82326,-54 12.3729,-44.3023 22.1046,-37.2911 32.7132,-32.2223"/>
<polygon fill="black" stroke="black" points="34.331,-35.3395 42.2037,-28.2493 31.6278,-28.8824 34.331,-35.3395"/>
<text text-anchor="middle" x="39.2149" y="-70.8" font-family="Times,serif" font-size="14.00">conneg 303</text>
<text text-anchor="middle" x="39.2149" y="-56.8" font-family="Times,serif" font-size="14.00">text/html</text>
</g>
<!-- DOI&#45;&gt;HTML Article -->
<g id="edge2" class="edge"><title>DOI&#45;&gt;HTML Article</title>
<path fill="none" stroke="black" d="M227.941,-115.129C186.563,-111.623 110.154,-102.487 93.4483,-82 85.482,-72.2309 84.5467,-58.4904 85.9265,-46.3337"/>
<polygon fill="black" stroke="black" points="89.4241,-46.6374 87.6165,-36.1979 82.5194,-45.4861 89.4241,-46.6374"/>
<text text-anchor="middle" x="138.902" y="-70.8" font-family="Times,serif" font-size="14.00">rel=describedby</text>
<text text-anchor="middle" x="138.902" y="-56.8" font-family="Times,serif" font-size="14.00">text/html</text>
</g>
<!-- RDF -->
<g id="node3" class="node"><title>RDF</title>
<ellipse fill="none" stroke="black" cx="392.751" cy="-18" rx="27.1216" ry="18"/>
<text text-anchor="middle" x="392.751" y="-13.8" font-family="Times,serif" font-size="14.00">RDF</text>
</g>
<!-- DOI&#45;&gt;RDF -->
<g id="edge3" class="edge"><title>DOI&#45;&gt;RDF</title>
<path fill="none" stroke="black" stroke-dasharray="5,2" d="M266.989,-101.712C281.705,-83.3574 304.599,-54.9045 305.823,-54 321.212,-42.6336 340.805,-34.3244 357.493,-28.6621"/>
<polygon fill="black" stroke="black" points="358.988,-31.8583 367.444,-25.4749 356.853,-25.1919 358.988,-31.8583"/>
<text text-anchor="middle" x="339.215" y="-70.8" font-family="Times,serif" font-size="14.00">conneg 303</text>
<text text-anchor="middle" x="339.215" y="-56.8" font-family="Times,serif" font-size="14.00">text/turtle</text>
</g>
<!-- DOI&#45;&gt;RDF -->
<g id="edge4" class="edge"><title>DOI&#45;&gt;RDF</title>
<path fill="none" stroke="black" d="M281.69,-115.699C307.7,-113.035 346.598,-105.137 370.751,-82 380.62,-72.5457 386.065,-58.4266 389.068,-45.9497"/>
<polygon fill="black" stroke="black" points="392.53,-46.4859 391.059,-35.9937 385.666,-45.113 392.53,-46.4859"/>
<text text-anchor="middle" x="431.902" y="-70.8" font-family="Times,serif" font-size="14.00">rel=describedby</text>
<text text-anchor="middle" x="431.902" y="-56.8" font-family="Times,serif" font-size="14.00">text/turtle</text>
</g>
<!-- HTML Article&#45;&gt;DOI -->
<g id="edge5" class="edge"><title>HTML Article&#45;&gt;DOI</title>
<path fill="none" stroke="black" d="M137.473,-30.5668C153.114,-36.0129 170.148,-43.645 183.751,-54 196.066,-63.3743 193.355,-71.2145 204.455,-82 211.036,-88.394 218.891,-94.4525 226.416,-99.6757"/>
<polygon fill="black" stroke="black" points="224.737,-102.763 235,-105.394 228.618,-96.9371 224.737,-102.763"/>
<text text-anchor="middle" x="242.899" y="-70.8" font-family="Times,serif" font-size="14.00">rel=canonical</text>
<text text-anchor="middle" x="242.899" y="-56.8" font-family="Times,serif" font-size="14.00">describes</text>
</g>
<!-- HTML Article&#45;&gt;HTML Article -->
<g id="edge7" class="edge"><title>HTML Article&#45;&gt;HTML Article</title>
<path fill="none" stroke="black" d="M145.248,-27.3384C160.278,-26.9722 171.868,-23.8594 171.868,-18 171.868,-13.5597 165.212,-10.6967 155.447,-9.411"/>
<polygon fill="black" stroke="black" points="155.478,-5.9039 145.248,-8.66162 154.965,-12.8851 155.478,-5.9039"/>
<text text-anchor="middle" x="195.639" y="-13.8" font-family="Times,serif" font-size="14.00">rel=item</text>
</g>
<!-- RDF&#45;&gt;DOI -->
<g id="edge6" class="edge"><title>RDF&#45;&gt;DOI</title>
<path fill="none" stroke="black" d="M419.646,-21.7544C440.18,-25.4278 467.181,-33.9994 480.751,-54 487.738,-64.298 488.849,-72.5511 480.751,-82 456.914,-109.813 350.031,-115.715 292.199,-116.843"/>
<polygon fill="black" stroke="black" points="291.947,-113.346 282.003,-117.002 292.056,-120.345 291.947,-113.346"/>
<text text-anchor="middle" x="523.126" y="-63.8" font-family="Times,serif" font-size="14.00">rel=describes</text>
</g>
</g>
</svg>
