<?xml version="1.0" encoding="UTF-8" standalone="no"?>
<!DOCTYPE svg PUBLIC "-//W3C//DTD SVG 1.1//EN"
 "http://www.w3.org/Graphics/SVG/1.1/DTD/svg11.dtd">
<!-- Generated by graphviz version 2.38.0 (20140413.2041)
 -->
<!-- Title: JOURNAL2 Pages: 1 -->
<svg width="472pt" height="344pt"
 viewBox="0.00 0.00 471.83 344.00" xmlns="http://www.w3.org/2000/svg" xmlns:xlink="http://www.w3.org/1999/xlink">
<g id="graph0" class="graph" transform="scale(1 1) rotate(0) translate(4 340)">
<title>JOURNAL2</title>
<polygon fill="white" stroke="none" points="-4,4 -4,-340 467.829,-340 467.829,4 -4,4"/>
<!-- DOI -->
<g id="node1" class="node"><title>DOI</title>
<ellipse fill="lightgrey" stroke="black" cx="245.187" cy="-318" rx="27" ry="18"/>
<text text-anchor="middle" x="245.187" y="-313.8" font-family="Times,serif" font-size="14.00">DOI</text>
</g>
<!-- Splash Page -->
<g id="node2" class="node"><title>Splash Page</title>
<ellipse fill="none" stroke="black" cx="154.187" cy="-218" rx="53.1871" ry="18"/>
<text text-anchor="middle" x="154.187" y="-213.8" font-family="Times,serif" font-size="14.00">Splash Page</text>
</g>
<!-- DOI&#45;&gt;Splash Page -->
<g id="edge1" class="edge"><title>DOI&#45;&gt;Splash Page</title>
<path fill="none" stroke="black" stroke-dasharray="5,2" d="M218.173,-315.741C173.203,-313.018 86.0574,-304.856 67.2593,-282 59.3545,-272.389 60.2943,-264.313 67.2593,-254 74.6605,-243.042 86.1249,-235.513 98.3264,-230.342"/>
<polygon fill="black" stroke="black" points="99.599,-233.603 107.745,-226.829 97.1528,-227.044 99.599,-233.603"/>
<text text-anchor="middle" x="100.651" y="-270.8" font-family="Times,serif" font-size="14.00">conneg 303</text>
<text text-anchor="middle" x="100.651" y="-256.8" font-family="Times,serif" font-size="14.00">text/html</text>
</g>
<!-- DOI&#45;&gt;Splash Page -->
<g id="edge2" class="edge"><title>DOI&#45;&gt;Splash Page</title>
<path fill="none" stroke="black" d="M218.349,-314.389C197.459,-310.797 169.712,-302.266 155.545,-282 148.371,-271.736 147.341,-258.055 148.395,-246.065"/>
<polygon fill="black" stroke="black" points="151.872,-246.473 149.755,-236.092 144.936,-245.527 151.872,-246.473"/>
<text text-anchor="middle" x="190.008" y="-270.8" font-family="Times,serif" font-size="14.00">describedby</text>
<text text-anchor="middle" x="190.008" y="-256.8" font-family="Times,serif" font-size="14.00">text/html</text>
</g>
<!-- RDF -->
<g id="node3" class="node"><title>RDF</title>
<ellipse fill="none" stroke="black" cx="369.187" cy="-218" rx="27.1216" ry="18"/>
<text text-anchor="middle" x="369.187" y="-213.8" font-family="Times,serif" font-size="14.00">RDF</text>
</g>
<!-- DOI&#45;&gt;RDF -->
<g id="edge3" class="edge"><title>DOI&#45;&gt;RDF</title>
<path fill="none" stroke="black" stroke-dasharray="5,2" d="M264.921,-305.702C275.487,-299.291 288.491,-290.804 299.187,-282 312.552,-270.999 313.513,-265.712 326.259,-254 331.906,-248.811 338.201,-243.459 344.192,-238.548"/>
<polygon fill="black" stroke="black" points="346.497,-241.185 352.083,-232.182 342.102,-235.737 346.497,-241.185"/>
<text text-anchor="middle" x="359.651" y="-270.8" font-family="Times,serif" font-size="14.00">conneg 303</text>
<text text-anchor="middle" x="359.651" y="-256.8" font-family="Times,serif" font-size="14.00">text/turtle</text>
</g>
<!-- DOI&#45;&gt;RDF -->
<g id="edge4" class="edge"><title>DOI&#45;&gt;RDF</title>
<path fill="none" stroke="black" d="M271.677,-314.517C309.644,-310.349 376.58,-300.523 391.187,-282 400.135,-270.654 395.141,-255.409 387.667,-242.758"/>
<polygon fill="black" stroke="black" points="390.381,-240.515 381.951,-234.097 384.538,-244.371 390.381,-240.515"/>
<text text-anchor="middle" x="430.008" y="-270.8" font-family="Times,serif" font-size="14.00">describedby</text>
<text text-anchor="middle" x="430.008" y="-256.8" font-family="Times,serif" font-size="14.00">text/turtle</text>
</g>
<!-- Splash Page&#45;&gt;DOI -->
<g id="edge9" class="edge"><title>Splash Page&#45;&gt;DOI</title>
<path fill="none" stroke="black" d="M190.69,-231.217C202.378,-236.641 214.52,-244.092 223.187,-254 231.977,-264.049 237.312,-277.818 240.52,-289.92"/>
<polygon fill="black" stroke="black" points="237.183,-291.025 242.826,-299.992 244.006,-289.463 237.183,-291.025"/>
<text text-anchor="middle" x="266.754" y="-270.8" font-family="Times,serif" font-size="14.00">canonical,</text>
<text text-anchor="middle" x="266.754" y="-256.8" font-family="Times,serif" font-size="14.00">describes</text>
</g>
<!-- PDF -->
<g id="node4" class="node"><title>PDF</title>
<ellipse fill="none" stroke="black" cx="79.1871" cy="-118" rx="27" ry="18"/>
<text text-anchor="middle" x="79.1871" y="-113.8" font-family="Times,serif" font-size="14.00">PDF</text>
</g>
<!-- Splash Page&#45;&gt;PDF -->
<g id="edge5" class="edge"><title>Splash Page&#45;&gt;PDF</title>
<path fill="none" stroke="black" stroke-dasharray="5,2" d="M104.026,-211.833C65.8132,-206.739 17.7473,-197.434 5.52497,-182 -2.20077,-172.244 -1.12343,-164.52 5.52497,-154 14.0064,-140.58 29.1892,-132.201 43.576,-127.023"/>
<polygon fill="black" stroke="black" points="44.8474,-130.291 53.3169,-123.926 42.7265,-123.62 44.8474,-130.291"/>
<text text-anchor="middle" x="26.0181" y="-170.8" font-family="Times,serif" font-size="14.00">HTML</text>
<text text-anchor="middle" x="26.0181" y="-156.8" font-family="Times,serif" font-size="14.00">link</text>
</g>
<!-- Splash Page&#45;&gt;PDF -->
<g id="edge6" class="edge"><title>Splash Page&#45;&gt;PDF</title>
<path fill="none" stroke="black" d="M107.839,-208.887C92.6594,-203.79 77.3775,-195.495 68.3043,-182 60.9986,-171.134 62.737,-156.904 66.7356,-144.718"/>
<polygon fill="black" stroke="black" points="70.1204,-145.67 70.4771,-135.082 63.595,-143.137 70.1204,-145.67"/>
<text text-anchor="middle" x="81.6285" y="-163.8" font-family="Times,serif" font-size="14.00">item</text>
</g>
<!-- HTML -->
<g id="node5" class="node"><title>HTML</title>
<ellipse fill="none" stroke="black" cx="244.187" cy="-118" rx="35.3216" ry="18"/>
<text text-anchor="middle" x="244.187" y="-113.8" font-family="Times,serif" font-size="14.00">HTML</text>
</g>
<!-- Splash Page&#45;&gt;HTML -->
<g id="edge7" class="edge"><title>Splash Page&#45;&gt;HTML</title>
<path fill="none" stroke="black" stroke-dasharray="5,2" d="M162.721,-199.965C169.987,-186.521 181.328,-167.796 194.525,-154 200.164,-148.105 206.929,-142.577 213.625,-137.732"/>
<polygon fill="black" stroke="black" points="215.723,-140.537 221.979,-131.986 211.756,-134.77 215.723,-140.537"/>
<text text-anchor="middle" x="215.018" y="-170.8" font-family="Times,serif" font-size="14.00">HTML</text>
<text text-anchor="middle" x="215.018" y="-156.8" font-family="Times,serif" font-size="14.00">link</text>
</g>
<!-- Splash Page&#45;&gt;HTML -->
<g id="edge8" class="edge"><title>Splash Page&#45;&gt;HTML</title>
<path fill="none" stroke="black" d="M196.776,-207.213C210.683,-201.96 224.917,-193.996 234.187,-182 241.938,-171.969 244.757,-158.313 245.505,-146.279"/>
<polygon fill="black" stroke="black" points="249.005,-146.319 245.7,-136.253 242.006,-146.182 249.005,-146.319"/>
<text text-anchor="middle" x="257.628" y="-163.8" font-family="Times,serif" font-size="14.00">item</text>
</g>
<!-- PDF&#45;&gt;Splash Page -->
<g id="edge10" class="edge"><title>PDF&#45;&gt;Splash Page</title>
<path fill="none" stroke="black" d="M87.0244,-135.387C93.7552,-148.633 104.215,-167.41 115.987,-182 119.291,-186.095 123.08,-190.147 126.959,-193.96"/>
<polygon fill="black" stroke="black" points="124.735,-196.672 134.428,-200.95 129.518,-191.561 124.735,-196.672"/>
<text text-anchor="middle" x="143.787" y="-163.8" font-family="Times,serif" font-size="14.00">collection</text>
</g>
<!-- PDF&#45;&gt;HTML -->
<g id="edge12" class="edge"><title>PDF&#45;&gt;HTML</title>
<path fill="none" stroke="black" d="M97.286,-104.206C107.092,-97.6007 119.751,-90.4008 132.331,-87 154.02,-81.1365 161.028,-81.7885 182.883,-87 193.237,-89.469 203.823,-93.9844 213.22,-98.8191"/>
<polygon fill="black" stroke="black" points="211.713,-101.984 222.169,-103.696 215.063,-95.8375 211.713,-101.984"/>
<text text-anchor="middle" x="157.607" y="-103.8" font-family="Times,serif" font-size="14.00">alternate</text>
<text text-anchor="middle" x="157.607" y="-89.8" font-family="Times,serif" font-size="14.00">text/html</text>
</g>
<!-- HTML&#45;&gt;Splash Page -->
<g id="edge11" class="edge"><title>HTML&#45;&gt;Splash Page</title>
<path fill="none" stroke="black" d="M260.249,-134.188C272.42,-147.565 285.308,-167.172 274.187,-182 260.694,-199.991 238.461,-209.152 216.775,-213.683"/>
<polygon fill="black" stroke="black" points="216.11,-210.247 206.884,-215.454 217.344,-217.137 216.11,-210.247"/>
<text text-anchor="middle" x="306.787" y="-163.8" font-family="Times,serif" font-size="14.00">collection</text>
</g>
<!-- HTML&#45;&gt;PDF -->
<g id="edge13" class="edge"><title>HTML&#45;&gt;PDF</title>
<path fill="none" stroke="black" d="M208.835,-118C181.65,-118 144.183,-118 116.516,-118"/>
<polygon fill="black" stroke="black" points="116.434,-114.5 106.433,-118 116.433,-121.5 116.434,-114.5"/>
<text text-anchor="middle" x="157.607" y="-137.8" font-family="Times,serif" font-size="14.00">alternate</text>
<text text-anchor="middle" x="157.607" y="-123.8" font-family="Times,serif" font-size="14.00">application/pdf</text>
</g>
<!-- IMG -->
<g id="node6" class="node"><title>IMG</title>
<ellipse fill="none" stroke="black" cx="244.187" cy="-18" rx="27.1044" ry="18"/>
<text text-anchor="middle" x="244.187" y="-13.8" font-family="Times,serif" font-size="14.00">IMG</text>
</g>
<!-- HTML&#45;&gt;IMG -->
<g id="edge14" class="edge"><title>HTML&#45;&gt;IMG</title>
<path fill="none" stroke="black" d="M214.835,-107.834C202.586,-102.394 189.586,-94.127 182.525,-82 176.263,-71.2457 176.263,-64.7543 182.525,-54 188.705,-43.3864 199.434,-35.7295 210.227,-30.3367"/>
<polygon fill="black" stroke="black" points="211.9,-33.4234 219.617,-26.1631 209.057,-27.0268 211.9,-33.4234"/>
<text text-anchor="middle" x="203.018" y="-70.8" font-family="Times,serif" font-size="14.00">HTML</text>
<text text-anchor="middle" x="203.018" y="-56.8" font-family="Times,serif" font-size="14.00">img</text>
</g>
<!-- HTML&#45;&gt;IMG -->
<g id="edge15" class="edge"><title>HTML&#45;&gt;IMG</title>
<path fill="none" stroke="black" d="M244.187,-99.9297C244.187,-85.1248 244.187,-63.432 244.187,-46.2312"/>
<polygon fill="black" stroke="black" points="247.687,-46.2035 244.187,-36.2035 240.687,-46.2035 247.687,-46.2035"/>
<text text-anchor="middle" x="256.628" y="-63.8" font-family="Times,serif" font-size="14.00">item</text>
</g>
<!-- IMG&#45;&gt;HTML -->
<g id="edge16" class="edge"><title>IMG&#45;&gt;HTML</title>
<path fill="none" stroke="black" d="M258.186,-33.4596C262.96,-39.3482 267.715,-46.526 270.187,-54 274.095,-65.8148 274.095,-70.1852 270.187,-82 268.913,-85.8515 267.033,-89.6244 264.856,-93.1827"/>
<polygon fill="black" stroke="black" points="261.893,-91.313 259.011,-101.509 267.622,-95.335 261.893,-91.313"/>
<text text-anchor="middle" x="300.787" y="-63.8" font-family="Times,serif" font-size="14.00">collection</text>
</g>
</g>
</svg>
