<?xml version="1.0" encoding="UTF-8" standalone="no"?>
<!DOCTYPE svg PUBLIC "-//W3C//DTD SVG 1.1//EN"
 "http://www.w3.org/Graphics/SVG/1.1/DTD/svg11.dtd">
<!-- Generated by graphviz version 2.38.0 (20140413.2041)
 -->
<!-- Title: J1 Pages: 1 -->
<svg width="308pt" height="344pt"
 viewBox="0.00 0.00 308.37 344.00" xmlns="http://www.w3.org/2000/svg" xmlns:xlink="http://www.w3.org/1999/xlink">
<g id="graph0" class="graph" transform="scale(1 1) rotate(0) translate(4 340)">
<title>J1</title>
<polygon fill="white" stroke="none" points="-4,4 -4,-340 304.367,-340 304.367,4 -4,4"/>
<!-- DOI -->
<g id="node1" class="node"><title>DOI</title>
<ellipse fill="lightgrey" stroke="black" cx="132.439" cy="-318" rx="27" ry="18"/>
<text text-anchor="middle" x="132.439" y="-313.8" font-family="Times,serif" font-size="14.00">DOI</text>
</g>
<!-- Splash Page -->
<g id="node2" class="node"><title>Splash Page</title>
<ellipse fill="none" stroke="black" cx="92.4389" cy="-218" rx="53.1871" ry="18"/>
<text text-anchor="middle" x="92.4389" y="-213.8" font-family="Times,serif" font-size="14.00">Splash Page</text>
</g>
<!-- DOI&#45;&gt;Splash Page -->
<g id="edge1" class="edge"><title>DOI&#45;&gt;Splash Page</title>
<path fill="none" stroke="black" stroke-dasharray="5,2" d="M106.285,-313.528C72.807,-308.485 17.664,-297.958 5.51116,-282 -2.02864,-272.1 -1.45387,-264.313 5.51116,-254 12.9123,-243.042 24.3767,-235.513 36.5782,-230.342"/>
<polygon fill="black" stroke="black" points="37.8508,-233.603 45.9973,-226.829 35.4046,-227.044 37.8508,-233.603"/>
<text text-anchor="middle" x="38.9028" y="-270.8" font-family="Times,serif" font-size="14.00">conneg 303</text>
<text text-anchor="middle" x="38.9028" y="-256.8" font-family="Times,serif" font-size="14.00">text/html</text>
</g>
<!-- RDF -->
<g id="node3" class="node"><title>RDF</title>
<ellipse fill="none" stroke="black" cx="251.439" cy="-218" rx="27.1216" ry="18"/>
<text text-anchor="middle" x="251.439" y="-213.8" font-family="Times,serif" font-size="14.00">RDF</text>
</g>
<!-- DOI&#45;&gt;RDF -->
<g id="edge2" class="edge"><title>DOI&#45;&gt;RDF</title>
<path fill="none" stroke="black" stroke-dasharray="5,2" d="M157.295,-310.885C174.842,-305.57 198.054,-296.417 214.439,-282 225.898,-271.918 234.759,-257.395 240.933,-244.833"/>
<polygon fill="black" stroke="black" points="244.127,-246.263 245.129,-235.716 237.768,-243.337 244.127,-246.263"/>
<text text-anchor="middle" x="267.903" y="-270.8" font-family="Times,serif" font-size="14.00">conneg 303</text>
<text text-anchor="middle" x="267.903" y="-256.8" font-family="Times,serif" font-size="14.00">text/turtle</text>
</g>
<!-- Splash Page&#45;&gt;DOI -->
<g id="edge5" class="edge"><title>Splash Page&#45;&gt;DOI</title>
<path fill="none" stroke="black" d="M89.0776,-236.121C87.325,-249.272 86.7294,-267.566 93.3041,-282 96.0813,-288.097 100.49,-293.578 105.364,-298.294"/>
<polygon fill="black" stroke="black" points="103.371,-301.196 113.239,-305.054 107.931,-295.885 103.371,-301.196"/>
<text text-anchor="middle" x="122.006" y="-263.8" font-family="Times,serif" font-size="14.00">canonical </text>
</g>
<!-- Splash Page&#45;&gt;DOI -->
<g id="edge6" class="edge"><title>Splash Page&#45;&gt;DOI</title>
<path fill="none" stroke="black" d="M126.497,-231.915C135.937,-237.252 145.062,-244.475 150.439,-254 157.102,-265.803 153.663,-280.266 148.083,-292.356"/>
<polygon fill="black" stroke="black" points="144.859,-290.968 143.301,-301.448 151.054,-294.227 144.859,-290.968"/>
<text text-anchor="middle" x="182.234" y="-263.8" font-family="Times,serif" font-size="14.00">describes </text>
</g>
<!-- PDF -->
<g id="node4" class="node"><title>PDF</title>
<ellipse fill="none" stroke="black" cx="95.4389" cy="-18" rx="27" ry="18"/>
<text text-anchor="middle" x="95.4389" y="-13.8" font-family="Times,serif" font-size="14.00">PDF</text>
</g>
<!-- Splash Page&#45;&gt;PDF -->
<g id="edge3" class="edge"><title>Splash Page&#45;&gt;PDF</title>
<path fill="none" stroke="black" stroke-dasharray="5,2" d="M73.2529,-200.926C67.1561,-195.298 60.6502,-188.701 55.4389,-182 41.0666,-163.52 35.6692,-158.657 29.7768,-136 28.0713,-129.442 29.3725,-55.7565 30.4389,-54 37.3666,-42.5889 49.4169,-34.6695 61.2746,-29.2895"/>
<polygon fill="black" stroke="black" points="62.6833,-32.4952 70.6414,-25.5011 60.0586,-26.0059 62.6833,-32.4952"/>
<text text-anchor="middle" x="50.2699" y="-120.8" font-family="Times,serif" font-size="14.00">HTML</text>
<text text-anchor="middle" x="50.2699" y="-106.8" font-family="Times,serif" font-size="14.00">link</text>
</g>
<!-- HTML -->
<g id="node5" class="node"><title>HTML</title>
<ellipse fill="none" stroke="black" cx="113.439" cy="-118" rx="35.3216" ry="18"/>
<text text-anchor="middle" x="113.439" y="-113.8" font-family="Times,serif" font-size="14.00">HTML</text>
</g>
<!-- Splash Page&#45;&gt;HTML -->
<g id="edge4" class="edge"><title>Splash Page&#45;&gt;HTML</title>
<path fill="none" stroke="black" stroke-dasharray="5,2" d="M74.6224,-200.782C69.8404,-195.335 65.2999,-188.88 62.7768,-182 58.4919,-170.317 56.9958,-165.02 62.7768,-154 66.5479,-146.811 72.5396,-140.807 79.1025,-135.918"/>
<polygon fill="black" stroke="black" points="81.1758,-138.744 87.597,-130.317 77.322,-132.9 81.1758,-138.744"/>
<text text-anchor="middle" x="83.2699" y="-170.8" font-family="Times,serif" font-size="14.00">HTML</text>
<text text-anchor="middle" x="83.2699" y="-156.8" font-family="Times,serif" font-size="14.00">link</text>
</g>
<!-- PDF&#45;&gt;Splash Page -->
<g id="edge7" class="edge"><title>PDF&#45;&gt;Splash Page</title>
<path fill="none" stroke="black" d="M122.072,-21.4266C143.161,-24.9086 171.335,-33.3826 185.439,-54 192.465,-64.2712 186.546,-69.6049 185.439,-82 181.423,-126.98 194.988,-146.218 167.439,-182 160.929,-190.455 151.884,-196.95 142.323,-201.911"/>
<polygon fill="black" stroke="black" points="140.66,-198.824 133.064,-206.211 143.608,-205.173 140.66,-198.824"/>
<text text-anchor="middle" x="213.039" y="-113.8" font-family="Times,serif" font-size="14.00">collection</text>
</g>
<!-- PDF&#45;&gt;HTML -->
<g id="edge9" class="edge"><title>PDF&#45;&gt;HTML</title>
<path fill="none" stroke="black" d="M111.932,-32.2568C118.023,-38.1864 124.221,-45.7109 127.439,-54 132.018,-65.7944 129.833,-79.4417 125.961,-91.0124"/>
<polygon fill="black" stroke="black" points="122.616,-89.9587 122.251,-100.547 129.139,-92.4969 122.616,-89.9587"/>
<text text-anchor="middle" x="155.715" y="-70.8" font-family="Times,serif" font-size="14.00">alternate</text>
<text text-anchor="middle" x="155.715" y="-56.8" font-family="Times,serif" font-size="14.00">text/html</text>
</g>
<!-- HTML&#45;&gt;Splash Page -->
<g id="edge8" class="edge"><title>HTML&#45;&gt;Splash Page</title>
<path fill="none" stroke="black" d="M110.936,-136.211C108.964,-148.93 105.965,-166.633 102.439,-182 101.824,-184.679 101.129,-187.459 100.4,-190.227"/>
<polygon fill="black" stroke="black" points="96.9882,-189.432 97.6846,-200.004 103.733,-191.305 96.9882,-189.432"/>
<text text-anchor="middle" x="136.039" y="-163.8" font-family="Times,serif" font-size="14.00">collection</text>
</g>
<!-- HTML&#45;&gt;PDF -->
<g id="edge10" class="edge"><title>HTML&#45;&gt;PDF</title>
<path fill="none" stroke="black" d="M81.1483,-110.396C65.4855,-105.392 48.0687,-96.7519 38.6869,-82 32.0088,-71.4992 32.6218,-64.8664 38.6869,-54 44.074,-44.3485 53.3377,-37.0277 62.8368,-31.6415"/>
<polygon fill="black" stroke="black" points="64.5545,-34.695 71.8973,-27.0573 61.3943,-28.4489 64.5545,-34.695"/>
<text text-anchor="middle" x="81.8149" y="-70.8" font-family="Times,serif" font-size="14.00">alternate</text>
<text text-anchor="middle" x="81.8149" y="-56.8" font-family="Times,serif" font-size="14.00">application/pdf</text>
</g>
</g>
</svg>
