<?xml version="1.0" encoding="UTF-8" standalone="no"?>
<!DOCTYPE svg PUBLIC "-//W3C//DTD SVG 1.1//EN"
 "http://www.w3.org/Graphics/SVG/1.1/DTD/svg11.dtd">
<!-- Generated by graphviz version 2.38.0 (20140413.2041)
 -->
<!-- Title: J1 Pages: 1 -->
<svg width="322pt" height="244pt"
 viewBox="0.00 0.00 321.57 244.00" xmlns="http://www.w3.org/2000/svg" xmlns:xlink="http://www.w3.org/1999/xlink">
<g id="graph0" class="graph" transform="scale(1 1) rotate(0) translate(4 240)">
<title>J1</title>
<polygon fill="white" stroke="none" points="-4,4 -4,-240 317.572,-240 317.572,4 -4,4"/>
<!-- DOI -->
<g id="node1" class="node"><title>DOI</title>
<ellipse fill="lightgrey" stroke="black" cx="145.644" cy="-218" rx="27" ry="18"/>
<text text-anchor="middle" x="145.644" y="-213.8" font-family="Times,serif" font-size="14.00">DOI</text>
</g>
<!-- Splash Page -->
<g id="node2" class="node"><title>Splash Page</title>
<ellipse fill="none" stroke="black" cx="105.644" cy="-118" rx="53.1871" ry="18"/>
<text text-anchor="middle" x="105.644" y="-113.8" font-family="Times,serif" font-size="14.00">Splash Page</text>
</g>
<!-- DOI&#45;&gt;Splash Page -->
<g id="edge1" class="edge"><title>DOI&#45;&gt;Splash Page</title>
<path fill="none" stroke="black" stroke-dasharray="5,2" d="M119.491,-213.528C86.0126,-208.485 30.8696,-197.958 18.7167,-182 11.1769,-172.1 11.7517,-164.313 18.7167,-154 26.1179,-143.042 37.5823,-135.513 49.7838,-130.342"/>
<polygon fill="black" stroke="black" points="51.0564,-133.603 59.2029,-126.829 48.6102,-127.044 51.0564,-133.603"/>
<text text-anchor="middle" x="52.1083" y="-170.8" font-family="Times,serif" font-size="14.00">conneg 303</text>
<text text-anchor="middle" x="52.1083" y="-156.8" font-family="Times,serif" font-size="14.00">text/html</text>
</g>
<!-- RDF -->
<g id="node3" class="node"><title>RDF</title>
<ellipse fill="none" stroke="black" cx="264.644" cy="-118" rx="27.1216" ry="18"/>
<text text-anchor="middle" x="264.644" y="-113.8" font-family="Times,serif" font-size="14.00">RDF</text>
</g>
<!-- DOI&#45;&gt;RDF -->
<g id="edge2" class="edge"><title>DOI&#45;&gt;RDF</title>
<path fill="none" stroke="black" stroke-dasharray="5,2" d="M170.5,-210.885C188.048,-205.57 211.259,-196.417 227.644,-182 239.103,-171.918 247.964,-157.395 254.138,-144.833"/>
<polygon fill="black" stroke="black" points="257.333,-146.263 258.334,-135.716 250.974,-143.337 257.333,-146.263"/>
<text text-anchor="middle" x="281.108" y="-170.8" font-family="Times,serif" font-size="14.00">conneg 303</text>
<text text-anchor="middle" x="281.108" y="-156.8" font-family="Times,serif" font-size="14.00">text/turtle</text>
</g>
<!-- Splash Page&#45;&gt;DOI -->
<g id="edge5" class="edge"><title>Splash Page&#45;&gt;DOI</title>
<path fill="none" stroke="black" d="M102.283,-136.121C100.531,-149.272 99.9349,-167.566 106.51,-182 109.287,-188.097 113.695,-193.578 118.569,-198.294"/>
<polygon fill="black" stroke="black" points="116.577,-201.196 126.444,-205.054 121.136,-195.885 116.577,-201.196"/>
<text text-anchor="middle" x="135.212" y="-163.8" font-family="Times,serif" font-size="14.00">canonical </text>
</g>
<!-- Splash Page&#45;&gt;DOI -->
<g id="edge6" class="edge"><title>Splash Page&#45;&gt;DOI</title>
<path fill="none" stroke="black" d="M139.703,-131.915C149.143,-137.252 158.268,-144.475 163.644,-154 170.307,-165.803 166.869,-180.266 161.289,-192.356"/>
<polygon fill="black" stroke="black" points="158.064,-190.968 156.506,-201.448 164.259,-194.227 158.064,-190.968"/>
<text text-anchor="middle" x="195.439" y="-163.8" font-family="Times,serif" font-size="14.00">describes </text>
</g>
<!-- PDF -->
<g id="node4" class="node"><title>PDF</title>
<ellipse fill="none" stroke="black" cx="50.6445" cy="-18" rx="27" ry="18"/>
<text text-anchor="middle" x="50.6445" y="-13.8" font-family="Times,serif" font-size="14.00">PDF</text>
</g>
<!-- Splash Page&#45;&gt;PDF -->
<g id="edge3" class="edge"><title>Splash Page&#45;&gt;PDF</title>
<path fill="none" stroke="black" stroke-dasharray="5,2" d="M55.4865,-111.826C36.4696,-107.14 16.6154,-98.3609 4.98237,-82 -2.2289,-71.8579 -0.524572,-65.1596 4.98237,-54 8.58748,-46.6943 14.5305,-40.4911 20.9557,-35.4294"/>
<polygon fill="black" stroke="black" points="23.04,-38.2426 29.2125,-29.6314 19.0173,-32.5139 23.04,-38.2426"/>
<text text-anchor="middle" x="25.4755" y="-70.8" font-family="Times,serif" font-size="14.00">HTML</text>
<text text-anchor="middle" x="25.4755" y="-56.8" font-family="Times,serif" font-size="14.00">link</text>
</g>
<!-- HTML -->
<g id="node5" class="node"><title>HTML</title>
<ellipse fill="none" stroke="black" cx="160.644" cy="-18" rx="35.3216" ry="18"/>
<text text-anchor="middle" x="160.644" y="-13.8" font-family="Times,serif" font-size="14.00">HTML</text>
</g>
<!-- Splash Page&#45;&gt;HTML -->
<g id="edge4" class="edge"><title>Splash Page&#45;&gt;HTML</title>
<path fill="none" stroke="black" stroke-dasharray="5,2" d="M115.225,-99.9297C123.794,-84.6604 136.476,-62.0643 146.262,-44.6261"/>
<polygon fill="black" stroke="black" points="149.515,-45.9816 151.357,-35.5481 143.411,-42.5557 149.515,-45.9816"/>
<text text-anchor="middle" x="160.476" y="-70.8" font-family="Times,serif" font-size="14.00">HTML</text>
<text text-anchor="middle" x="160.476" y="-56.8" font-family="Times,serif" font-size="14.00">link</text>
</g>
<!-- PDF&#45;&gt;Splash Page -->
<g id="edge7" class="edge"><title>PDF&#45;&gt;Splash Page</title>
<path fill="none" stroke="black" d="M52.5398,-36.0706C54.619,-49.3626 58.8787,-67.8662 67.4443,-82 70.1146,-86.4063 73.5025,-90.5931 77.1532,-94.4379"/>
<polygon fill="black" stroke="black" points="74.7414,-96.9744 84.3777,-101.378 79.5908,-91.9263 74.7414,-96.9744"/>
<text text-anchor="middle" x="95.2446" y="-63.8" font-family="Times,serif" font-size="14.00">collection</text>
</g>
<!-- HTML&#45;&gt;Splash Page -->
<g id="edge8" class="edge"><title>HTML&#45;&gt;Splash Page</title>
<path fill="none" stroke="black" d="M174.31,-34.6251C184.202,-47.9297 194.284,-67.1866 184.644,-82 178.38,-91.6275 168.795,-98.627 158.437,-103.709"/>
<polygon fill="black" stroke="black" points="156.991,-100.521 149.199,-107.7 159.767,-106.947 156.991,-100.521"/>
<text text-anchor="middle" x="216.245" y="-63.8" font-family="Times,serif" font-size="14.00">collection</text>
</g>
</g>
</svg>
