<?xml version="1.0" encoding="UTF-8" standalone="no"?>
<!DOCTYPE svg PUBLIC "-//W3C//DTD SVG 1.1//EN"
 "http://www.w3.org/Graphics/SVG/1.1/DTD/svg11.dtd">
<!-- Generated by graphviz version 2.38.0 (20140413.2041)
 -->
<!-- Title: JOURNAL1 Pages: 1 -->
<svg width="511pt" height="261pt"
 viewBox="0.00 0.00 510.57 260.89" xmlns="http://www.w3.org/2000/svg" xmlns:xlink="http://www.w3.org/1999/xlink">
<g id="graph0" class="graph" transform="scale(1 1) rotate(0) translate(4 256.888)">
<title>JOURNAL1</title>
<polygon fill="white" stroke="none" points="-4,4 -4,-256.888 506.569,-256.888 506.569,4 -4,4"/>
<!-- DOI -->
<g id="node1" class="node"><title>DOI</title>
<ellipse fill="lightgrey" stroke="black" cx="204.934" cy="-234.888" rx="27" ry="18"/>
<text text-anchor="middle" x="204.934" y="-230.688" font-family="Times,serif" font-size="14.00">DOI</text>
</g>
<!-- Splash Page -->
<g id="node2" class="node"><title>Splash Page</title>
<ellipse fill="none" stroke="black" cx="274.934" cy="-134.888" rx="53.1871" ry="18"/>
<text text-anchor="middle" x="274.934" y="-130.688" font-family="Times,serif" font-size="14.00">Splash Page</text>
</g>
<!-- DOI&#45;&gt;Splash Page -->
<g id="edge1" class="edge"><title>DOI&#45;&gt;Splash Page</title>
<path fill="none" stroke="black" stroke-dasharray="5,2" d="M231.641,-231.523C270.322,-227.482 338.959,-217.789 353.934,-198.888 361.662,-189.134 360.721,-181.319 353.934,-170.888 347.669,-161.261 338.085,-154.261 327.727,-149.179"/>
<polygon fill="black" stroke="black" points="329.057,-145.941 318.489,-145.188 326.281,-152.367 329.057,-145.941"/>
<text text-anchor="middle" x="391.398" y="-187.688" font-family="Times,serif" font-size="14.00">conneg 303</text>
<text text-anchor="middle" x="391.398" y="-173.688" font-family="Times,serif" font-size="14.00">text/html</text>
</g>
<!-- DOI&#45;&gt;Splash Page -->
<g id="edge2" class="edge"><title>DOI&#45;&gt;Splash Page</title>
<path fill="none" stroke="black" d="M200.86,-217.034C198.577,-203.516 197.686,-184.603 206.293,-170.888 211.253,-162.983 218.608,-156.788 226.683,-151.957"/>
<polygon fill="black" stroke="black" points="228.433,-154.991 235.65,-147.234 225.171,-148.797 228.433,-154.991"/>
<text text-anchor="middle" x="240.755" y="-187.688" font-family="Times,serif" font-size="14.00">describedby</text>
<text text-anchor="middle" x="240.755" y="-173.688" font-family="Times,serif" font-size="14.00">text/html</text>
</g>
<!-- RDF -->
<g id="node3" class="node"><title>RDF</title>
<ellipse fill="none" stroke="black" cx="102.934" cy="-134.888" rx="27.1216" ry="18"/>
<text text-anchor="middle" x="102.934" y="-130.688" font-family="Times,serif" font-size="14.00">RDF</text>
</g>
<!-- DOI&#45;&gt;RDF -->
<g id="edge3" class="edge"><title>DOI&#45;&gt;RDF</title>
<path fill="none" stroke="black" stroke-dasharray="5,2" d="M177.92,-232.63C132.95,-229.906 45.8044,-221.744 27.0064,-198.888 19.1015,-189.277 20.2969,-181.369 27.0064,-170.888 32.0577,-162.998 51.3223,-154.165 69.1809,-147.347"/>
<polygon fill="black" stroke="black" points="70.6828,-150.523 78.8585,-143.785 68.265,-143.954 70.6828,-150.523"/>
<text text-anchor="middle" x="60.398" y="-187.688" font-family="Times,serif" font-size="14.00">conneg 303</text>
<text text-anchor="middle" x="60.398" y="-173.688" font-family="Times,serif" font-size="14.00">text/turtle</text>
</g>
<!-- DOI&#45;&gt;RDF -->
<g id="edge4" class="edge"><title>DOI&#45;&gt;RDF</title>
<path fill="none" stroke="black" d="M179.983,-227.738C163.418,-222.515 142.236,-213.485 128.293,-198.888 118.748,-188.898 112.628,-174.852 108.798,-162.558"/>
<polygon fill="black" stroke="black" points="112.13,-161.476 106.093,-152.77 105.383,-163.341 112.13,-161.476"/>
<text text-anchor="middle" x="162.755" y="-187.688" font-family="Times,serif" font-size="14.00">describedby</text>
<text text-anchor="middle" x="162.755" y="-173.688" font-family="Times,serif" font-size="14.00">text/turtle</text>
</g>
<!-- Splash Page&#45;&gt;DOI -->
<g id="edge9" class="edge"><title>Splash Page&#45;&gt;DOI</title>
<path fill="none" stroke="black" d="M279.18,-153.01C281.522,-166.504 282.457,-185.252 273.934,-198.888 266.275,-211.142 252.869,-219.277 239.897,-224.592"/>
<polygon fill="black" stroke="black" points="238.369,-221.424 230.165,-228.128 240.76,-228.003 238.369,-221.424"/>
<text text-anchor="middle" x="309.502" y="-187.688" font-family="Times,serif" font-size="14.00">canonical,</text>
<text text-anchor="middle" x="309.502" y="-173.688" font-family="Times,serif" font-size="14.00">describes</text>
</g>
<!-- PDF -->
<g id="node4" class="node"><title>PDF</title>
<ellipse fill="none" stroke="black" cx="154.934" cy="-34.8882" rx="27" ry="18"/>
<text text-anchor="middle" x="154.934" y="-30.6882" font-family="Times,serif" font-size="14.00">PDF</text>
</g>
<!-- Splash Page&#45;&gt;PDF -->
<g id="edge5" class="edge"><title>Splash Page&#45;&gt;PDF</title>
<path fill="none" stroke="black" stroke-dasharray="5,2" d="M225.866,-127.998C173.28,-121.183 96.1138,-109.532 87.272,-98.8882 79.32,-89.316 80.8024,-81.5188 87.272,-70.8882 94.6139,-58.8244 107.603,-50.7352 120.251,-45.4037"/>
<polygon fill="black" stroke="black" points="121.62,-48.6285 129.757,-41.844 119.165,-42.073 121.62,-48.6285"/>
<text text-anchor="middle" x="107.765" y="-87.6882" font-family="Times,serif" font-size="14.00">HTML</text>
<text text-anchor="middle" x="107.765" y="-73.6882" font-family="Times,serif" font-size="14.00">link</text>
</g>
<!-- Splash Page&#45;&gt;PDF -->
<g id="edge6" class="edge"><title>Splash Page&#45;&gt;PDF</title>
<path fill="none" stroke="black" d="M227.447,-126.64C196.291,-120.804 159.609,-111.492 150.051,-98.8882 142.232,-88.5761 142.656,-74.3898 145.387,-62.0898"/>
<polygon fill="black" stroke="black" points="148.794,-62.8994 148.092,-52.3278 142.048,-61.0295 148.794,-62.8994"/>
<text text-anchor="middle" x="163.376" y="-80.6882" font-family="Times,serif" font-size="14.00">item</text>
</g>
<!-- HTML -->
<g id="node5" class="node"><title>HTML</title>
<ellipse fill="none" stroke="black" cx="331.934" cy="-34.8882" rx="35.3216" ry="18"/>
<text text-anchor="middle" x="331.934" y="-30.6882" font-family="Times,serif" font-size="14.00">HTML</text>
</g>
<!-- Splash Page&#45;&gt;HTML -->
<g id="edge7" class="edge"><title>Splash Page&#45;&gt;HTML</title>
<path fill="none" stroke="black" stroke-dasharray="5,2" d="M271.103,-116.687C269.072,-103.323 268.4,-84.7861 276.272,-70.8882 280.76,-62.9639 287.857,-56.5794 295.501,-51.5447"/>
<polygon fill="black" stroke="black" points="297.723,-54.301 304.601,-46.2429 294.199,-48.2526 297.723,-54.301"/>
<text text-anchor="middle" x="296.765" y="-87.6882" font-family="Times,serif" font-size="14.00">HTML</text>
<text text-anchor="middle" x="296.765" y="-73.6882" font-family="Times,serif" font-size="14.00">link</text>
</g>
<!-- Splash Page&#45;&gt;HTML -->
<g id="edge8" class="edge"><title>Splash Page&#45;&gt;HTML</title>
<path fill="none" stroke="black" d="M297.828,-118.554C304.525,-113.062 311.288,-106.358 315.934,-98.8882 322.597,-88.1771 326.491,-74.8083 328.765,-63.145"/>
<polygon fill="black" stroke="black" points="332.258,-63.4745 330.431,-53.0385 325.351,-62.3363 332.258,-63.4745"/>
<text text-anchor="middle" x="339.376" y="-80.6882" font-family="Times,serif" font-size="14.00">item</text>
</g>
<!-- PDF&#45;&gt;DOI -->
<g id="edge12" class="edge"><title>PDF&#45;&gt;DOI</title>
<path fill="none" stroke="black" d="M129.649,-41.4606C95.5232,-50.5419 36.3448,-72.2011 13.2994,-116.888 -3.43146,-149.331 -6.76242,-172.008 17.9341,-198.888 37.66,-220.358 119.115,-228.861 167.776,-232.071"/>
<polygon fill="black" stroke="black" points="167.725,-235.574 177.921,-232.695 168.155,-228.588 167.725,-235.574"/>
<text text-anchor="middle" x="40.7515" y="-130.688" font-family="Times,serif" font-size="14.00">canonical</text>
</g>
<!-- PDF&#45;&gt;Splash Page -->
<g id="edge10" class="edge"><title>PDF&#45;&gt;Splash Page</title>
<path fill="none" stroke="black" d="M166.272,-51.514C176.731,-65.1789 193.247,-84.9621 210.734,-98.8882 218.325,-104.934 227.108,-110.49 235.693,-115.309"/>
<polygon fill="black" stroke="black" points="234.045,-118.397 244.51,-120.055 237.363,-112.234 234.045,-118.397"/>
<text text-anchor="middle" x="238.534" y="-80.6882" font-family="Times,serif" font-size="14.00">collection</text>
</g>
<!-- PDF&#45;&gt;HTML -->
<g id="edge14" class="edge"><title>PDF&#45;&gt;HTML</title>
<path fill="none" stroke="black" d="M173.962,-21.8877C185.114,-15.0647 199.782,-7.40782 214.078,-3.88825 235.894,1.48262 242.684,0.923006 264.63,-3.88825 276.584,-6.50904 288.949,-11.463 299.767,-16.6541"/>
<polygon fill="black" stroke="black" points="298.322,-19.8453 308.827,-21.2243 301.475,-13.5955 298.322,-19.8453"/>
<text text-anchor="middle" x="239.354" y="-20.6882" font-family="Times,serif" font-size="14.00">alternate</text>
<text text-anchor="middle" x="239.354" y="-6.68825" font-family="Times,serif" font-size="14.00">text/html</text>
</g>
<!-- HTML&#45;&gt;DOI -->
<g id="edge13" class="edge"><title>HTML&#45;&gt;DOI</title>
<path fill="none" stroke="black" d="M365.237,-40.8867C383.743,-45.4766 405.483,-54.2338 417.934,-70.8882 470.417,-141.088 446.616,-177.045 427.934,-198.888 404.494,-226.294 299.499,-232.384 242.328,-233.643"/>
<polygon fill="black" stroke="black" points="242.175,-230.145 232.24,-233.826 242.302,-237.144 242.175,-230.145"/>
<text text-anchor="middle" x="475.752" y="-130.688" font-family="Times,serif" font-size="14.00">canonical</text>
</g>
<!-- HTML&#45;&gt;Splash Page -->
<g id="edge11" class="edge"><title>HTML&#45;&gt;Splash Page</title>
<path fill="none" stroke="black" d="M345.634,-51.5357C355.547,-64.8544 365.641,-84.1193 355.934,-98.8882 349.492,-108.69 339.656,-115.76 329.035,-120.855"/>
<polygon fill="black" stroke="black" points="327.422,-117.736 319.563,-124.843 330.138,-124.188 327.422,-117.736"/>
<text text-anchor="middle" x="386.534" y="-80.6882" font-family="Times,serif" font-size="14.00">collection</text>
</g>
<!-- HTML&#45;&gt;PDF -->
<g id="edge15" class="edge"><title>HTML&#45;&gt;PDF</title>
<path fill="none" stroke="black" d="M296.698,-34.8882C266.568,-34.8882 223.323,-34.8882 192.532,-34.8882"/>
<polygon fill="black" stroke="black" points="192.203,-31.3883 182.202,-34.8882 192.202,-38.3883 192.203,-31.3883"/>
<text text-anchor="middle" x="239.354" y="-54.6882" font-family="Times,serif" font-size="14.00">alternate</text>
<text text-anchor="middle" x="239.354" y="-40.6882" font-family="Times,serif" font-size="14.00">application/pdf</text>
</g>
</g>
</svg>
