<?xml version="1.0" encoding="UTF-8" standalone="no"?>
<!DOCTYPE svg PUBLIC "-//W3C//DTD SVG 1.1//EN"
 "http://www.w3.org/Graphics/SVG/1.1/DTD/svg11.dtd">
<!-- Generated by graphviz version 2.38.0 (20140413.2041)
 -->
<!-- Title: JOURNAL1 Pages: 1 -->
<svg width="472pt" height="261pt"
 viewBox="0.00 0.00 471.83 261.23" xmlns="http://www.w3.org/2000/svg" xmlns:xlink="http://www.w3.org/1999/xlink">
<g id="graph0" class="graph" transform="scale(1 1) rotate(0) translate(4 257.235)">
<title>JOURNAL1</title>
<polygon fill="white" stroke="none" points="-4,4 -4,-257.235 467.829,-257.235 467.829,4 -4,4"/>
<!-- DOI -->
<g id="node1" class="node"><title>DOI</title>
<ellipse fill="lightgrey" stroke="black" cx="245.187" cy="-235.235" rx="27" ry="18"/>
<text text-anchor="middle" x="245.187" y="-231.035" font-family="Times,serif" font-size="14.00">DOI</text>
</g>
<!-- Splash Page -->
<g id="node2" class="node"><title>Splash Page</title>
<ellipse fill="none" stroke="black" cx="154.187" cy="-135.235" rx="53.1871" ry="18"/>
<text text-anchor="middle" x="154.187" y="-131.035" font-family="Times,serif" font-size="14.00">Splash Page</text>
</g>
<!-- DOI&#45;&gt;Splash Page -->
<g id="edge1" class="edge"><title>DOI&#45;&gt;Splash Page</title>
<path fill="none" stroke="black" stroke-dasharray="5,2" d="M218.173,-232.976C173.203,-230.253 86.0574,-222.091 67.2593,-199.235 59.3545,-189.623 60.2943,-181.547 67.2593,-171.235 74.6605,-160.276 86.1249,-152.748 98.3264,-147.577"/>
<polygon fill="black" stroke="black" points="99.599,-150.838 107.745,-144.064 97.1528,-144.279 99.599,-150.838"/>
<text text-anchor="middle" x="100.651" y="-188.035" font-family="Times,serif" font-size="14.00">conneg 303</text>
<text text-anchor="middle" x="100.651" y="-174.035" font-family="Times,serif" font-size="14.00">text/html</text>
</g>
<!-- DOI&#45;&gt;Splash Page -->
<g id="edge2" class="edge"><title>DOI&#45;&gt;Splash Page</title>
<path fill="none" stroke="black" d="M218.349,-231.624C197.459,-228.032 169.712,-219.501 155.545,-199.235 148.371,-188.971 147.341,-175.29 148.395,-163.299"/>
<polygon fill="black" stroke="black" points="151.872,-163.708 149.755,-153.326 144.936,-162.761 151.872,-163.708"/>
<text text-anchor="middle" x="190.008" y="-188.035" font-family="Times,serif" font-size="14.00">describedby</text>
<text text-anchor="middle" x="190.008" y="-174.035" font-family="Times,serif" font-size="14.00">text/html</text>
</g>
<!-- RDF -->
<g id="node3" class="node"><title>RDF</title>
<ellipse fill="none" stroke="black" cx="369.187" cy="-135.235" rx="27.1216" ry="18"/>
<text text-anchor="middle" x="369.187" y="-131.035" font-family="Times,serif" font-size="14.00">RDF</text>
</g>
<!-- DOI&#45;&gt;RDF -->
<g id="edge3" class="edge"><title>DOI&#45;&gt;RDF</title>
<path fill="none" stroke="black" stroke-dasharray="5,2" d="M264.921,-222.936C275.487,-216.525 288.491,-208.038 299.187,-199.235 312.552,-188.234 313.513,-182.946 326.259,-171.235 331.906,-166.046 338.201,-160.694 344.192,-155.783"/>
<polygon fill="black" stroke="black" points="346.497,-158.42 352.083,-149.417 342.102,-152.971 346.497,-158.42"/>
<text text-anchor="middle" x="359.651" y="-188.035" font-family="Times,serif" font-size="14.00">conneg 303</text>
<text text-anchor="middle" x="359.651" y="-174.035" font-family="Times,serif" font-size="14.00">text/turtle</text>
</g>
<!-- DOI&#45;&gt;RDF -->
<g id="edge4" class="edge"><title>DOI&#45;&gt;RDF</title>
<path fill="none" stroke="black" d="M271.677,-231.752C309.644,-227.584 376.58,-217.757 391.187,-199.235 400.135,-187.888 395.141,-172.643 387.667,-159.992"/>
<polygon fill="black" stroke="black" points="390.381,-157.749 381.951,-151.331 384.538,-161.605 390.381,-157.749"/>
<text text-anchor="middle" x="430.008" y="-188.035" font-family="Times,serif" font-size="14.00">describedby</text>
<text text-anchor="middle" x="430.008" y="-174.035" font-family="Times,serif" font-size="14.00">text/turtle</text>
</g>
<!-- Splash Page&#45;&gt;DOI -->
<g id="edge9" class="edge"><title>Splash Page&#45;&gt;DOI</title>
<path fill="none" stroke="black" d="M190.69,-148.452C202.378,-153.875 214.52,-161.327 223.187,-171.235 231.977,-181.284 237.312,-195.052 240.52,-207.155"/>
<polygon fill="black" stroke="black" points="237.183,-208.26 242.826,-217.226 244.006,-206.698 237.183,-208.26"/>
<text text-anchor="middle" x="266.754" y="-188.035" font-family="Times,serif" font-size="14.00">canonical,</text>
<text text-anchor="middle" x="266.754" y="-174.035" font-family="Times,serif" font-size="14.00">describes</text>
</g>
<!-- PDF -->
<g id="node4" class="node"><title>PDF</title>
<ellipse fill="none" stroke="black" cx="79.1871" cy="-35.2346" rx="27" ry="18"/>
<text text-anchor="middle" x="79.1871" y="-31.0346" font-family="Times,serif" font-size="14.00">PDF</text>
</g>
<!-- Splash Page&#45;&gt;PDF -->
<g id="edge5" class="edge"><title>Splash Page&#45;&gt;PDF</title>
<path fill="none" stroke="black" stroke-dasharray="5,2" d="M104.026,-129.067C65.8132,-123.974 17.7473,-114.669 5.52497,-99.2346 -2.20077,-89.4787 -1.12343,-81.7542 5.52497,-71.2346 14.0064,-57.8146 29.1892,-49.436 43.576,-44.2571"/>
<polygon fill="black" stroke="black" points="44.8474,-47.5256 53.3169,-41.1603 42.7265,-40.8546 44.8474,-47.5256"/>
<text text-anchor="middle" x="26.0181" y="-88.0346" font-family="Times,serif" font-size="14.00">HTML</text>
<text text-anchor="middle" x="26.0181" y="-74.0346" font-family="Times,serif" font-size="14.00">link</text>
</g>
<!-- Splash Page&#45;&gt;PDF -->
<g id="edge6" class="edge"><title>Splash Page&#45;&gt;PDF</title>
<path fill="none" stroke="black" d="M107.839,-126.121C92.6594,-121.025 77.3775,-112.73 68.3043,-99.2346 60.9986,-88.3682 62.737,-74.1385 66.7356,-61.9527"/>
<polygon fill="black" stroke="black" points="70.1204,-62.9049 70.4771,-52.3161 63.595,-60.3714 70.1204,-62.9049"/>
<text text-anchor="middle" x="81.6285" y="-81.0346" font-family="Times,serif" font-size="14.00">item</text>
</g>
<!-- HTML -->
<g id="node5" class="node"><title>HTML</title>
<ellipse fill="none" stroke="black" cx="244.187" cy="-35.2346" rx="35.3216" ry="18"/>
<text text-anchor="middle" x="244.187" y="-31.0346" font-family="Times,serif" font-size="14.00">HTML</text>
</g>
<!-- Splash Page&#45;&gt;HTML -->
<g id="edge7" class="edge"><title>Splash Page&#45;&gt;HTML</title>
<path fill="none" stroke="black" stroke-dasharray="5,2" d="M162.721,-117.2C169.987,-103.756 181.328,-85.0306 194.525,-71.2346 200.164,-65.3392 206.929,-59.8114 213.625,-54.9671"/>
<polygon fill="black" stroke="black" points="215.723,-57.7715 221.979,-49.2203 211.756,-52.0043 215.723,-57.7715"/>
<text text-anchor="middle" x="215.018" y="-88.0346" font-family="Times,serif" font-size="14.00">HTML</text>
<text text-anchor="middle" x="215.018" y="-74.0346" font-family="Times,serif" font-size="14.00">link</text>
</g>
<!-- Splash Page&#45;&gt;HTML -->
<g id="edge8" class="edge"><title>Splash Page&#45;&gt;HTML</title>
<path fill="none" stroke="black" d="M196.776,-124.447C210.683,-119.195 224.917,-111.23 234.187,-99.2346 241.938,-89.2038 244.757,-75.5473 245.505,-63.5131"/>
<polygon fill="black" stroke="black" points="249.005,-63.5536 245.7,-53.4872 242.006,-63.4169 249.005,-63.5536"/>
<text text-anchor="middle" x="257.628" y="-81.0346" font-family="Times,serif" font-size="14.00">item</text>
</g>
<!-- PDF&#45;&gt;Splash Page -->
<g id="edge10" class="edge"><title>PDF&#45;&gt;Splash Page</title>
<path fill="none" stroke="black" d="M87.0244,-52.6216C93.7552,-65.8677 104.215,-84.6444 115.987,-99.2346 119.291,-103.33 123.08,-107.381 126.959,-111.195"/>
<polygon fill="black" stroke="black" points="124.735,-113.907 134.428,-118.184 129.518,-108.796 124.735,-113.907"/>
<text text-anchor="middle" x="143.787" y="-81.0346" font-family="Times,serif" font-size="14.00">collection</text>
</g>
<!-- PDF&#45;&gt;HTML -->
<g id="edge12" class="edge"><title>PDF&#45;&gt;HTML</title>
<path fill="none" stroke="black" d="M97.286,-21.4409C107.092,-14.8353 119.751,-7.63544 132.331,-4.2346 154.02,1.62886 161.028,0.976867 182.883,-4.2346 193.237,-6.70363 203.823,-11.219 213.22,-16.0537"/>
<polygon fill="black" stroke="black" points="211.713,-19.2185 222.169,-20.931 215.063,-13.0721 211.713,-19.2185"/>
<text text-anchor="middle" x="157.607" y="-21.0346" font-family="Times,serif" font-size="14.00">alternate</text>
<text text-anchor="middle" x="157.607" y="-7.0346" font-family="Times,serif" font-size="14.00">text/html</text>
</g>
<!-- HTML&#45;&gt;Splash Page -->
<g id="edge11" class="edge"><title>HTML&#45;&gt;Splash Page</title>
<path fill="none" stroke="black" d="M260.249,-51.4224C272.42,-64.7996 285.308,-84.4067 274.187,-99.2346 260.694,-117.226 238.461,-126.386 216.775,-130.918"/>
<polygon fill="black" stroke="black" points="216.11,-127.481 206.884,-132.689 217.344,-134.372 216.11,-127.481"/>
<text text-anchor="middle" x="306.787" y="-81.0346" font-family="Times,serif" font-size="14.00">collection</text>
</g>
<!-- HTML&#45;&gt;PDF -->
<g id="edge13" class="edge"><title>HTML&#45;&gt;PDF</title>
<path fill="none" stroke="black" d="M208.835,-35.2346C181.65,-35.2346 144.183,-35.2346 116.516,-35.2346"/>
<polygon fill="black" stroke="black" points="116.434,-31.7347 106.433,-35.2346 116.433,-38.7347 116.434,-31.7347"/>
<text text-anchor="middle" x="157.607" y="-55.0346" font-family="Times,serif" font-size="14.00">alternate</text>
<text text-anchor="middle" x="157.607" y="-41.0346" font-family="Times,serif" font-size="14.00">application/pdf</text>
</g>
</g>
</svg>
