<?xml version="1.0" encoding="UTF-8" standalone="no"?>
<!DOCTYPE svg PUBLIC "-//W3C//DTD SVG 1.1//EN"
 "http://www.w3.org/Graphics/SVG/1.1/DTD/svg11.dtd">
<!-- Generated by graphviz version 2.38.0 (20140413.2041)
 -->
<!-- Title: LDP Pages: 1 -->
<svg width="163pt" height="144pt"
 viewBox="0.00 0.00 163.24 144.00" xmlns="http://www.w3.org/2000/svg" xmlns:xlink="http://www.w3.org/1999/xlink">
<g id="graph0" class="graph" transform="scale(1 1) rotate(0) translate(4 140)">
<title>LDP</title>
<polygon fill="white" stroke="none" points="-4,4 -4,-140 159.245,-140 159.245,4 -4,4"/>
<!-- LDP_RS1 -->
<g id="node1" class="node"><title>LDP_RS1</title>
<ellipse fill="none" stroke="black" cx="47.942" cy="-118" rx="46.4477" ry="18"/>
<text text-anchor="middle" x="47.942" y="-113.8" font-family="Times,serif" font-size="14.00">LDP_RS1</text>
</g>
<!-- LDP_NR1 -->
<g id="node2" class="node"><title>LDP_NR1</title>
<ellipse fill="none" stroke="black" cx="47.942" cy="-18" rx="47.8841" ry="18"/>
<text text-anchor="middle" x="47.942" y="-13.8" font-family="Times,serif" font-size="14.00">LDP_NR1</text>
</g>
<!-- LDP_RS1&#45;&gt;LDP_NR1 -->
<g id="edge1" class="edge"><title>LDP_RS1&#45;&gt;LDP_NR1</title>
<path fill="none" stroke="black" d="M26.718,-101.768C20.7651,-96.2815 15.0499,-89.5556 11.8522,-82 7.00189,-70.5397 7.00189,-65.4603 11.8522,-54 13.7508,-49.5138 16.537,-45.3202 19.7334,-41.5048"/>
<polygon fill="black" stroke="black" points="22.3159,-43.8687 26.718,-34.2317 17.267,-39.0201 22.3159,-43.8687"/>
<text text-anchor="middle" x="37.9869" y="-70.8" font-family="Times,serif" font-size="14.00">RDF</text>
<text text-anchor="middle" x="37.9869" y="-56.8" font-family="Times,serif" font-size="14.00">describes</text>
</g>
<!-- LDP_NR1&#45;&gt;LDP_RS1 -->
<g id="edge2" class="edge"><title>LDP_NR1&#45;&gt;LDP_RS1</title>
<path fill="none" stroke="black" d="M57.4493,-35.9365C60.0937,-41.5145 62.6059,-47.8634 63.942,-54 66.5896,-66.1595 66.5896,-69.8405 63.942,-82 63.3157,-84.8765 62.431,-87.7997 61.3954,-90.6683"/>
<polygon fill="black" stroke="black" points="58.0948,-89.4884 57.4493,-100.064 64.5487,-92.199 58.0948,-89.4884"/>
<text text-anchor="middle" x="110.093" y="-70.8" font-family="Times,serif" font-size="14.00">HTTP Link</text>
<text text-anchor="middle" x="110.093" y="-56.8" font-family="Times,serif" font-size="14.00">rel=describedby</text>
</g>
</g>
</svg>
