<?xml version="1.0" encoding="UTF-8" standalone="no"?>
<!DOCTYPE svg PUBLIC "-//W3C//DTD SVG 1.1//EN"
 "http://www.w3.org/Graphics/SVG/1.1/DTD/svg11.dtd">
<!-- Generated by graphviz version 2.38.0 (20140413.2041)
 -->
<!-- Title: MSP Pages: 1 -->
<svg width="816pt" height="346pt"
 viewBox="0.00 0.00 816.46 346.06" xmlns="http://www.w3.org/2000/svg" xmlns:xlink="http://www.w3.org/1999/xlink">
<g id="graph0" class="graph" transform="scale(1 1) rotate(0) translate(4 342.063)">
<title>MSP</title>
<polygon fill="white" stroke="none" points="-4,4 -4,-342.063 812.464,-342.063 812.464,4 -4,4"/>
<!-- DOI -->
<g id="node1" class="node"><title>DOI</title>
<ellipse fill="lightgrey" stroke="black" cx="461.536" cy="-320.063" rx="27" ry="18"/>
<text text-anchor="middle" x="461.536" y="-315.863" font-family="Times,serif" font-size="14.00">DOI</text>
</g>
<!-- Choice_Page -->
<g id="node2" class="node"><title>Choice_Page</title>
<ellipse fill="none" stroke="black" cx="362.536" cy="-220.063" rx="56.5373" ry="18"/>
<text text-anchor="middle" x="362.536" y="-215.863" font-family="Times,serif" font-size="14.00">Choice_Page</text>
</g>
<!-- DOI&#45;&gt;Choice_Page -->
<g id="edge1" class="edge"><title>DOI&#45;&gt;Choice_Page</title>
<path fill="none" stroke="black" stroke-dasharray="5,2" d="M445.125,-305.276C437.981,-299.032 429.649,-291.414 422.609,-284.063 411.455,-272.418 410.542,-267.848 399.536,-256.063 395.932,-252.203 391.996,-248.24 388.079,-244.431"/>
<polygon fill="black" stroke="black" points="390.317,-241.729 380.663,-237.365 385.489,-246.797 390.317,-241.729"/>
<text text-anchor="middle" x="456" y="-272.863" font-family="Times,serif" font-size="14.00">conneg 303</text>
<text text-anchor="middle" x="456" y="-258.863" font-family="Times,serif" font-size="14.00">text/html</text>
</g>
<!-- DOI&#45;&gt;Choice_Page -->
<g id="edge2" class="edge"><title>DOI&#45;&gt;Choice_Page</title>
<path fill="none" stroke="black" d="M434.269,-318.62C383.498,-317.157 277.555,-310.884 254.895,-284.063 246.864,-274.557 247.581,-266.131 254.895,-256.063 258.556,-251.023 284.999,-242.389 310.757,-234.957"/>
<polygon fill="black" stroke="black" points="311.882,-238.276 320.546,-232.178 309.971,-231.542 311.882,-238.276"/>
<text text-anchor="middle" x="289.357" y="-265.863" font-family="Times,serif" font-size="14.00">describedby</text>
</g>
<!-- Splash_Page1 -->
<g id="node3" class="node"><title>Splash_Page1</title>
<ellipse fill="none" stroke="black" cx="193.536" cy="-120.063" rx="59.953" ry="18"/>
<text text-anchor="middle" x="193.536" y="-115.863" font-family="Times,serif" font-size="14.00">Splash_Page1</text>
</g>
<!-- DOI&#45;&gt;Splash_Page1 -->
<g id="edge3" class="edge"><title>DOI&#45;&gt;Splash_Page1</title>
<path fill="none" stroke="black" d="M434.657,-318.037C383.322,-315.554 273.906,-307.58 245.536,-284.063 204.95,-250.418 195.646,-185.079 193.757,-148.164"/>
<polygon fill="black" stroke="black" points="197.253,-147.986 193.391,-138.12 190.257,-148.241 197.253,-147.986"/>
<text text-anchor="middle" x="246.357" y="-215.863" font-family="Times,serif" font-size="14.00">describedby</text>
</g>
<!-- Splash_Page2 -->
<g id="node4" class="node"><title>Splash_Page2</title>
<ellipse fill="none" stroke="black" cx="493.536" cy="-120.063" rx="59.953" ry="18"/>
<text text-anchor="middle" x="493.536" y="-115.863" font-family="Times,serif" font-size="14.00">Splash_Page2</text>
</g>
<!-- DOI&#45;&gt;Splash_Page2 -->
<g id="edge4" class="edge"><title>DOI&#45;&gt;Splash_Page2</title>
<path fill="none" stroke="black" d="M475.535,-304.603C480.31,-298.714 485.064,-291.537 487.536,-284.063 491.445,-272.248 489.419,-268.364 487.536,-256.063 486.268,-247.775 483.163,-246.35 481.895,-238.063 479.474,-222.247 480.754,-218.022 481.895,-202.063 483.187,-183.986 486.082,-163.812 488.662,-148.12"/>
<polygon fill="black" stroke="black" points="492.148,-148.498 490.374,-138.053 485.247,-147.325 492.148,-148.498"/>
<text text-anchor="middle" x="516.357" y="-215.863" font-family="Times,serif" font-size="14.00">describedby</text>
</g>
<!-- RDF -->
<g id="node5" class="node"><title>RDF</title>
<ellipse fill="none" stroke="black" cx="682.536" cy="-220.063" rx="27.1216" ry="18"/>
<text text-anchor="middle" x="682.536" y="-215.863" font-family="Times,serif" font-size="14.00">RDF</text>
</g>
<!-- DOI&#45;&gt;RDF -->
<g id="edge5" class="edge"><title>DOI&#45;&gt;RDF</title>
<path fill="none" stroke="black" stroke-dasharray="5,2" d="M488.569,-317.633C554.845,-313.851 721.211,-302.59 737.536,-284.063 745.764,-274.726 743.525,-266.972 737.536,-256.063 732.471,-246.836 723.828,-239.694 714.874,-234.339"/>
<polygon fill="black" stroke="black" points="716.409,-231.191 705.938,-229.57 713.112,-237.367 716.409,-231.191"/>
<text text-anchor="middle" x="776" y="-272.863" font-family="Times,serif" font-size="14.00">conneg 303</text>
<text text-anchor="middle" x="776" y="-258.863" font-family="Times,serif" font-size="14.00">text/turtle</text>
</g>
<!-- DOI&#45;&gt;RDF -->
<g id="edge6" class="edge"><title>DOI&#45;&gt;RDF</title>
<path fill="none" stroke="black" d="M487.784,-314.827C510.856,-310.155 544.553,-300.952 569.536,-284.063 582.962,-274.986 579.742,-265.53 592.895,-256.063 602.243,-249.334 627.526,-239.7 648.866,-232.243"/>
<polygon fill="black" stroke="black" points="650.007,-235.552 658.323,-228.988 647.728,-228.933 650.007,-235.552"/>
<text text-anchor="middle" x="627.357" y="-265.863" font-family="Times,serif" font-size="14.00">describedby</text>
</g>
<!-- Choice_Page&#45;&gt;DOI -->
<g id="edge8" class="edge"><title>Choice_Page&#45;&gt;DOI</title>
<path fill="none" stroke="black" d="M349.346,-237.688C340.295,-251.249 331.618,-270.339 341.902,-284.063 360.773,-309.247 396.809,-317.113 424.419,-319.21"/>
<polygon fill="black" stroke="black" points="424.361,-322.712 434.535,-319.755 424.738,-315.722 424.361,-322.712"/>
<text text-anchor="middle" x="369.354" y="-272.863" font-family="Times,serif" font-size="14.00">describes</text>
<text text-anchor="middle" x="369.354" y="-258.863" font-family="Times,serif" font-size="14.00">canonical</text>
</g>
<!-- Choice_Page&#45;&gt;Splash_Page1 -->
<g id="edge9" class="edge"><title>Choice_Page&#45;&gt;Splash_Page1</title>
<path fill="none" stroke="black" stroke-dasharray="5,2" d="M336.501,-203.965C307.68,-187.252 261.062,-160.219 228.938,-141.592"/>
<polygon fill="black" stroke="black" points="230.287,-138.328 219.88,-136.339 226.775,-144.383 230.287,-138.328"/>
<text text-anchor="middle" x="318.367" y="-172.863" font-family="Times,serif" font-size="14.00">HTML</text>
<text text-anchor="middle" x="318.367" y="-158.863" font-family="Times,serif" font-size="14.00">link</text>
</g>
<!-- Choice_Page&#45;&gt;Splash_Page2 -->
<g id="edge10" class="edge"><title>Choice_Page&#45;&gt;Splash_Page2</title>
<path fill="none" stroke="black" stroke-dasharray="5,2" d="M372.99,-202.196C382.302,-188.306 397.033,-168.879 413.874,-156.063 423.265,-148.916 434.342,-142.873 445.202,-137.924"/>
<polygon fill="black" stroke="black" points="446.843,-141.028 454.642,-133.856 444.074,-134.599 446.843,-141.028"/>
<text text-anchor="middle" x="434.367" y="-172.863" font-family="Times,serif" font-size="14.00">HTML</text>
<text text-anchor="middle" x="434.367" y="-158.863" font-family="Times,serif" font-size="14.00">link</text>
</g>
<!-- Splash_Page1&#45;&gt;DOI -->
<g id="edge11" class="edge"><title>Splash_Page1&#45;&gt;DOI</title>
<path fill="none" stroke="black" d="M177.16,-137.494C156.169,-160.636 124.653,-203.828 143.902,-238.063 163.184,-272.358 182.511,-270.756 219.536,-284.063 289.135,-309.076 376.082,-316.254 424.532,-318.287"/>
<polygon fill="black" stroke="black" points="424.431,-321.786 434.553,-318.657 424.689,-314.791 424.431,-321.786"/>
<text text-anchor="middle" x="171.354" y="-222.863" font-family="Times,serif" font-size="14.00">describes</text>
<text text-anchor="middle" x="171.354" y="-208.863" font-family="Times,serif" font-size="14.00">canonical</text>
</g>
<!-- PDF1 -->
<g id="node6" class="node"><title>PDF1</title>
<ellipse fill="none" stroke="black" cx="81.5364" cy="-20.0627" rx="30.5053" ry="18"/>
<text text-anchor="middle" x="81.5364" y="-15.8627" font-family="Times,serif" font-size="14.00">PDF1</text>
</g>
<!-- Splash_Page1&#45;&gt;PDF1 -->
<g id="edge12" class="edge"><title>Splash_Page1&#45;&gt;PDF1</title>
<path fill="none" stroke="black" d="M135.123,-116.143C86.2358,-112.331 21.9282,-103.649 5.65361,-84.0627 -2.29947,-74.4913 -1.05467,-66.5443 5.65361,-56.0627 14.0412,-42.9573 28.7195,-34.6897 42.9454,-29.5066"/>
<polygon fill="black" stroke="black" points="44.1905,-32.7828 52.639,-26.3896 42.0476,-26.1189 44.1905,-32.7828"/>
<text text-anchor="middle" x="18.9778" y="-65.8627" font-family="Times,serif" font-size="14.00">item</text>
</g>
<!-- Splash_Page1&#45;&gt;PDF1 -->
<g id="edge14" class="edge"><title>Splash_Page1&#45;&gt;PDF1</title>
<path fill="none" stroke="black" stroke-dasharray="5,2" d="M139.382,-112.396C104.818,-106.901 64.5618,-97.759 53.8743,-84.0627 44.5306,-72.0885 51.2923,-56.4677 60.466,-43.7765"/>
<polygon fill="black" stroke="black" points="63.2209,-45.9355 66.6978,-35.9274 57.7386,-41.5829 63.2209,-45.9355"/>
<text text-anchor="middle" x="74.3675" y="-72.8627" font-family="Times,serif" font-size="14.00">HTML</text>
<text text-anchor="middle" x="74.3675" y="-58.8627" font-family="Times,serif" font-size="14.00">link</text>
</g>
<!-- HTML1 -->
<g id="node7" class="node"><title>HTML1</title>
<ellipse fill="none" stroke="black" cx="217.536" cy="-20.0627" rx="39.6645" ry="18"/>
<text text-anchor="middle" x="217.536" y="-15.8627" font-family="Times,serif" font-size="14.00">HTML1</text>
</g>
<!-- Splash_Page1&#45;&gt;HTML1 -->
<g id="edge13" class="edge"><title>Splash_Page1&#45;&gt;HTML1</title>
<path fill="none" stroke="black" d="M191.309,-101.814C190.245,-88.9201 190.055,-71.0146 194.654,-56.0627 195.71,-52.6279 197.213,-49.2128 198.952,-45.9383"/>
<polygon fill="black" stroke="black" points="202.073,-47.5415 204.295,-37.1821 196.098,-43.8951 202.073,-47.5415"/>
<text text-anchor="middle" x="207.978" y="-65.8627" font-family="Times,serif" font-size="14.00">item</text>
</g>
<!-- Splash_Page1&#45;&gt;HTML1 -->
<g id="edge15" class="edge"><title>Splash_Page1&#45;&gt;HTML1</title>
<path fill="none" stroke="black" stroke-dasharray="5,2" d="M209.184,-102.515C213.376,-97.0541 217.349,-90.6744 219.536,-84.0627 223.287,-72.7253 223.476,-59.6061 222.459,-48.2841"/>
<polygon fill="black" stroke="black" points="225.9,-47.5877 221.192,-38.0965 218.953,-48.4523 225.9,-47.5877"/>
<text text-anchor="middle" x="243.367" y="-72.8627" font-family="Times,serif" font-size="14.00">HTML</text>
<text text-anchor="middle" x="243.367" y="-58.8627" font-family="Times,serif" font-size="14.00">link</text>
</g>
<!-- Splash_Page2&#45;&gt;DOI -->
<g id="edge18" class="edge"><title>Splash_Page2&#45;&gt;DOI</title>
<path fill="none" stroke="black" d="M510.968,-137.471C532.547,-159.876 564.704,-201.446 549.536,-238.063 537.995,-265.927 511.221,-288.248 490.215,-302.345"/>
<polygon fill="black" stroke="black" points="488.14,-299.519 481.627,-307.876 491.93,-305.404 488.14,-299.519"/>
<text text-anchor="middle" x="580.354" y="-222.863" font-family="Times,serif" font-size="14.00">describes</text>
<text text-anchor="middle" x="580.354" y="-208.863" font-family="Times,serif" font-size="14.00">canonical</text>
</g>
<!-- PDF2 -->
<g id="node8" class="node"><title>PDF2</title>
<ellipse fill="none" stroke="black" cx="459.536" cy="-20.0627" rx="30.5053" ry="18"/>
<text text-anchor="middle" x="459.536" y="-15.8627" font-family="Times,serif" font-size="14.00">PDF2</text>
</g>
<!-- Splash_Page2&#45;&gt;PDF2 -->
<g id="edge19" class="edge"><title>Splash_Page2&#45;&gt;PDF2</title>
<path fill="none" stroke="black" d="M436.607,-114.544C416.577,-109.886 396,-100.953 383.654,-84.0627 376.31,-74.0162 376.945,-66.5443 383.654,-56.0627 392.041,-42.9573 406.72,-34.6897 420.945,-29.5066"/>
<polygon fill="black" stroke="black" points="422.191,-32.7828 430.639,-26.3896 420.048,-26.1189 422.191,-32.7828"/>
<text text-anchor="middle" x="396.978" y="-65.8627" font-family="Times,serif" font-size="14.00">item</text>
</g>
<!-- Splash_Page2&#45;&gt;PDF2 -->
<g id="edge21" class="edge"><title>Splash_Page2&#45;&gt;PDF2</title>
<path fill="none" stroke="black" stroke-dasharray="5,2" d="M456.088,-105.899C446.519,-100.645 437.387,-93.5303 431.874,-84.0627 425.613,-73.3084 427.79,-67.8178 431.874,-56.0627 433.373,-51.7486 435.649,-47.5648 438.265,-43.6803"/>
<polygon fill="black" stroke="black" points="441.061,-45.7867 444.364,-35.7201 435.504,-41.5295 441.061,-45.7867"/>
<text text-anchor="middle" x="452.367" y="-72.8627" font-family="Times,serif" font-size="14.00">HTML</text>
<text text-anchor="middle" x="452.367" y="-58.8627" font-family="Times,serif" font-size="14.00">link</text>
</g>
<!-- HTML2 -->
<g id="node9" class="node"><title>HTML2</title>
<ellipse fill="none" stroke="black" cx="595.536" cy="-20.0627" rx="39.6645" ry="18"/>
<text text-anchor="middle" x="595.536" y="-15.8627" font-family="Times,serif" font-size="14.00">HTML2</text>
</g>
<!-- Splash_Page2&#45;&gt;HTML2 -->
<g id="edge20" class="edge"><title>Splash_Page2&#45;&gt;HTML2</title>
<path fill="none" stroke="black" d="M516.784,-103.261C524.615,-97.55 533.218,-90.8339 540.536,-84.0627 553.438,-72.1254 566.437,-57.3894 576.557,-45.1713"/>
<polygon fill="black" stroke="black" points="579.464,-47.1441 583.065,-37.1803 574.036,-42.7234 579.464,-47.1441"/>
<text text-anchor="middle" x="578.978" y="-65.8627" font-family="Times,serif" font-size="14.00">item</text>
</g>
<!-- Splash_Page2&#45;&gt;HTML2 -->
<g id="edge22" class="edge"><title>Splash_Page2&#45;&gt;HTML2</title>
<path fill="none" stroke="black" stroke-dasharray="5,2" d="M548.616,-112.959C566.533,-108.059 584.602,-99.3749 595.536,-84.0627 602.861,-73.805 603.592,-60.0158 602.18,-47.9533"/>
<polygon fill="black" stroke="black" points="605.605,-47.2135 600.5,-37.9295 598.701,-48.3705 605.605,-47.2135"/>
<text text-anchor="middle" x="623.367" y="-72.8627" font-family="Times,serif" font-size="14.00">HTML</text>
<text text-anchor="middle" x="623.367" y="-58.8627" font-family="Times,serif" font-size="14.00">link</text>
</g>
<!-- RDF&#45;&gt;DOI -->
<g id="edge7" class="edge"><title>RDF&#45;&gt;DOI</title>
<path fill="none" stroke="black" d="M681.237,-238.161C679.194,-252.587 673.954,-272.658 660.536,-284.063 636.706,-304.318 549.523,-313.337 498.805,-316.945"/>
<polygon fill="black" stroke="black" points="498.314,-313.471 488.572,-317.635 498.785,-320.455 498.314,-313.471"/>
<text text-anchor="middle" x="704.354" y="-272.863" font-family="Times,serif" font-size="14.00">describes</text>
<text text-anchor="middle" x="704.354" y="-258.863" font-family="Times,serif" font-size="14.00">canonical</text>
</g>
<!-- PDF1&#45;&gt;Splash_Page1 -->
<g id="edge16" class="edge"><title>PDF1&#45;&gt;Splash_Page1</title>
<path fill="none" stroke="black" d="M92.015,-37.2182C101.417,-50.8546 116.19,-70.3004 132.336,-84.0627 138.898,-89.6553 146.482,-94.82 154.029,-99.3689"/>
<polygon fill="black" stroke="black" points="152.394,-102.466 162.808,-104.415 155.882,-96.3971 152.394,-102.466"/>
<text text-anchor="middle" x="160.137" y="-65.8627" font-family="Times,serif" font-size="14.00">collection</text>
</g>
<!-- PDF1&#45;&gt;HTML1 -->
<g id="edge25" class="edge"><title>PDF1&#45;&gt;HTML1</title>
<path fill="none" stroke="black" d="M112.397,-20.0627C128.73,-20.0627 149.186,-20.0627 167.703,-20.0627"/>
<polygon fill="black" stroke="black" points="167.753,-23.5628 177.752,-20.0627 167.752,-16.5628 167.753,-23.5628"/>
<text text-anchor="middle" x="145.121" y="-25.8627" font-family="Times,serif" font-size="14.00">alternate</text>
</g>
<!-- HTML1&#45;&gt;Splash_Page1 -->
<g id="edge17" class="edge"><title>HTML1&#45;&gt;Splash_Page1</title>
<path fill="none" stroke="black" d="M244.63,-33.4142C253.594,-38.9728 262.545,-46.4764 267.536,-56.0627 273.283,-67.1007 274.194,-73.549 267.536,-84.0627 262.401,-92.1721 254.825,-98.4386 246.453,-103.27"/>
<polygon fill="black" stroke="black" points="244.847,-100.16 237.51,-107.803 248.012,-106.404 244.847,-100.16"/>
<text text-anchor="middle" x="300.137" y="-65.8627" font-family="Times,serif" font-size="14.00">collection</text>
</g>
<!-- HTML1&#45;&gt;PDF1 -->
<g id="edge26" class="edge"><title>HTML1&#45;&gt;PDF1</title>
<path fill="none" stroke="black" d="M188.055,-7.92557C181.927,-5.90661 175.439,-4.12565 169.214,-3.06274 148.104,0.542394 142.003,1.26017 121.028,-3.06274 118.83,-3.51569 116.604,-4.0967 114.386,-4.76943"/>
<polygon fill="black" stroke="black" points="113.066,-1.52464 104.833,-8.19356 115.428,-8.11415 113.066,-1.52464"/>
<text text-anchor="middle" x="145.121" y="-5.86274" font-family="Times,serif" font-size="14.00">alternate</text>
</g>
<!-- PDF2&#45;&gt;Splash_Page2 -->
<g id="edge23" class="edge"><title>PDF2&#45;&gt;Splash_Page2</title>
<path fill="none" stroke="black" d="M465.391,-37.9374C470.586,-52.9117 478.264,-75.0426 484.289,-92.4085"/>
<polygon fill="black" stroke="black" points="481.03,-93.6921 487.614,-101.992 487.643,-91.3976 481.03,-93.6921"/>
<text text-anchor="middle" x="509.137" y="-65.8627" font-family="Times,serif" font-size="14.00">collection</text>
</g>
<!-- PDF2&#45;&gt;HTML2 -->
<g id="edge27" class="edge"><title>PDF2&#45;&gt;HTML2</title>
<path fill="none" stroke="black" d="M490.397,-20.0627C506.73,-20.0627 527.186,-20.0627 545.703,-20.0627"/>
<polygon fill="black" stroke="black" points="545.753,-23.5628 555.752,-20.0627 545.752,-16.5628 545.753,-23.5628"/>
<text text-anchor="middle" x="523.121" y="-25.8627" font-family="Times,serif" font-size="14.00">alternate</text>
</g>
<!-- HTML2&#45;&gt;Splash_Page2 -->
<g id="edge24" class="edge"><title>HTML2&#45;&gt;Splash_Page2</title>
<path fill="none" stroke="black" d="M623.413,-33.0222C632.823,-38.5704 642.269,-46.1686 647.536,-56.0627 653.384,-67.0477 655.3,-74.3369 647.536,-84.0627 636.318,-98.1163 596.167,-106.957 559.676,-112.237"/>
<polygon fill="black" stroke="black" points="558.939,-108.805 549.508,-113.633 559.891,-115.74 558.939,-108.805"/>
<text text-anchor="middle" x="681.137" y="-65.8627" font-family="Times,serif" font-size="14.00">collection</text>
</g>
<!-- HTML2&#45;&gt;PDF2 -->
<g id="edge28" class="edge"><title>HTML2&#45;&gt;PDF2</title>
<path fill="none" stroke="black" d="M566.055,-7.92557C559.927,-5.90661 553.439,-4.12565 547.214,-3.06274 526.104,0.542394 520.003,1.26017 499.028,-3.06274 496.83,-3.51569 494.604,-4.0967 492.386,-4.76943"/>
<polygon fill="black" stroke="black" points="491.066,-1.52464 482.833,-8.19356 493.428,-8.11415 491.066,-1.52464"/>
<text text-anchor="middle" x="523.121" y="-5.86274" font-family="Times,serif" font-size="14.00">alternate</text>
</g>
</g>
</svg>
