<?xml version="1.0" encoding="UTF-8" standalone="no"?>
<!DOCTYPE svg PUBLIC "-//W3C//DTD SVG 1.1//EN"
 "http://www.w3.org/Graphics/SVG/1.1/DTD/svg11.dtd">
<!-- Generated by graphviz version 2.38.0 (20140413.2041)
 -->
<!-- Title: PLOSCI Pages: 1 -->
<svg width="694pt" height="246pt"
 viewBox="0.00 0.00 694.29 246.33" xmlns="http://www.w3.org/2000/svg" xmlns:xlink="http://www.w3.org/1999/xlink">
<g id="graph0" class="graph" transform="scale(1 1) rotate(0) translate(4 242.334)">
<title>PLOSCI</title>
<polygon fill="white" stroke="none" points="-4,4 -4,-242.334 690.287,-242.334 690.287,4 -4,4"/>
<!-- DOI -->
<g id="node1" class="node"><title>DOI</title>
<ellipse fill="lightgrey" stroke="black" cx="521.645" cy="-220.334" rx="27" ry="18"/>
<text text-anchor="middle" x="521.645" y="-216.134" font-family="Times,serif" font-size="14.00">DOI</text>
</g>
<!-- Splash Page -->
<g id="node2" class="node"><title>Splash Page</title>
<ellipse fill="none" stroke="black" cx="491.645" cy="-120.334" rx="53.1871" ry="18"/>
<text text-anchor="middle" x="491.645" y="-116.134" font-family="Times,serif" font-size="14.00">Splash Page</text>
</g>
<!-- DOI&#45;&gt;Splash Page -->
<g id="edge1" class="edge"><title>DOI&#45;&gt;Splash Page</title>
<path fill="none" stroke="black" stroke-dasharray="5,2" d="M532.325,-203.699C539.869,-190.559 547.378,-171.544 539.645,-156.334 536.89,-150.916 532.859,-146.138 528.287,-141.991"/>
<polygon fill="black" stroke="black" points="530.225,-139.062 520.208,-135.609 525.885,-144.555 530.225,-139.062"/>
<text text-anchor="middle" x="576.109" y="-173.134" font-family="Times,serif" font-size="14.00">conneg 303</text>
<text text-anchor="middle" x="576.109" y="-159.134" font-family="Times,serif" font-size="14.00">text/html</text>
</g>
<!-- DOI&#45;&gt;Splash Page -->
<g id="edge13" class="edge"><title>DOI&#45;&gt;Splash Page</title>
<path fill="none" stroke="black" d="M548.565,-216.998C569.882,-213.57 598.366,-205.124 612.645,-184.334 619.69,-174.076 620.123,-166.282 612.645,-156.334 598.971,-138.144 576.42,-128.959 554.468,-124.464"/>
<polygon fill="black" stroke="black" points="554.912,-120.989 544.459,-122.713 553.706,-127.884 554.912,-120.989"/>
<text text-anchor="middle" x="652.466" y="-166.134" font-family="Times,serif" font-size="14.00">describedby</text>
</g>
<!-- RDF -->
<g id="node3" class="node"><title>RDF</title>
<ellipse fill="none" stroke="black" cx="393.645" cy="-120.334" rx="27.1216" ry="18"/>
<text text-anchor="middle" x="393.645" y="-116.134" font-family="Times,serif" font-size="14.00">RDF</text>
</g>
<!-- DOI&#45;&gt;RDF -->
<g id="edge2" class="edge"><title>DOI&#45;&gt;RDF</title>
<path fill="none" stroke="black" stroke-dasharray="5,2" d="M494.279,-218.617C467.995,-216.397 429.076,-208.827 406.717,-184.334 397.98,-174.763 394.477,-160.928 393.259,-148.66"/>
<polygon fill="black" stroke="black" points="396.74,-148.223 392.702,-138.428 389.751,-148.604 396.74,-148.223"/>
<text text-anchor="middle" x="440.109" y="-173.134" font-family="Times,serif" font-size="14.00">conneg 303</text>
<text text-anchor="middle" x="440.109" y="-159.134" font-family="Times,serif" font-size="14.00">text/turtle</text>
</g>
<!-- Splash Page&#45;&gt;DOI -->
<g id="edge12" class="edge"><title>Splash Page&#45;&gt;DOI</title>
<path fill="none" stroke="black" d="M482.568,-138.077C476.754,-151.188 471.495,-169.608 478.51,-184.334 481.818,-191.278 487.251,-197.292 493.164,-202.282"/>
<polygon fill="black" stroke="black" points="491.272,-205.237 501.37,-208.442 495.474,-199.639 491.272,-205.237"/>
<text text-anchor="middle" x="507.212" y="-173.134" font-family="Times,serif" font-size="14.00">canonical,</text>
<text text-anchor="middle" x="507.212" y="-159.134" font-family="Times,serif" font-size="14.00">describes</text>
</g>
<!-- PDF -->
<g id="node7" class="node"><title>PDF</title>
<ellipse fill="none" stroke="black" cx="426.645" cy="-20.3344" rx="27" ry="18"/>
<text text-anchor="middle" x="426.645" y="-16.1344" font-family="Times,serif" font-size="14.00">PDF</text>
</g>
<!-- Splash Page&#45;&gt;PDF -->
<g id="edge6" class="edge"><title>Splash Page&#45;&gt;PDF</title>
<path fill="none" stroke="black" d="M452.384,-108.166C444.858,-106.14 437.024,-104.109 429.645,-102.334 391.303,-93.1159 367.658,-114.917 342.762,-84.3344 334.906,-74.6835 335.862,-66.6906 342.762,-56.3344 353.368,-40.4173 372.736,-31.7266 390.19,-26.9876"/>
<polygon fill="black" stroke="black" points="391.239,-30.3362 400.166,-24.6292 389.629,-23.524 391.239,-30.3362"/>
<text text-anchor="middle" x="356.086" y="-66.1344" font-family="Times,serif" font-size="14.00">item</text>
</g>
<!-- Splash Page&#45;&gt;PDF -->
<g id="edge8" class="edge"><title>Splash Page&#45;&gt;PDF</title>
<path fill="none" stroke="black" stroke-dasharray="5,2" d="M452.361,-108.048C425.776,-100.014 394.816,-89.7252 390.983,-84.3344 383.772,-74.1924 386.167,-67.8092 390.983,-56.3344 393.349,-50.6977 397.114,-45.5121 401.33,-40.9564"/>
<polygon fill="black" stroke="black" points="403.88,-43.3604 408.681,-33.9158 399.038,-38.3049 403.88,-43.3604"/>
<text text-anchor="middle" x="411.476" y="-73.1344" font-family="Times,serif" font-size="14.00">HTML</text>
<text text-anchor="middle" x="411.476" y="-59.1344" font-family="Times,serif" font-size="14.00">link</text>
</g>
<!-- HTML -->
<g id="node8" class="node"><title>HTML</title>
<ellipse fill="none" stroke="black" cx="554.645" cy="-20.3344" rx="35.3216" ry="18"/>
<text text-anchor="middle" x="554.645" y="-16.1344" font-family="Times,serif" font-size="14.00">HTML</text>
</g>
<!-- Splash Page&#45;&gt;HTML -->
<g id="edge7" class="edge"><title>Splash Page&#45;&gt;HTML</title>
<path fill="none" stroke="black" d="M502.317,-102.453C510.369,-89.7468 521.709,-71.915 531.762,-56.3344 533.853,-53.0937 536.062,-49.6908 538.249,-46.3325"/>
<polygon fill="black" stroke="black" points="541.356,-47.9758 543.894,-37.6894 535.496,-44.148 541.356,-47.9758"/>
<text text-anchor="middle" x="545.086" y="-66.1344" font-family="Times,serif" font-size="14.00">item</text>
</g>
<!-- Splash Page&#45;&gt;HTML -->
<g id="edge9" class="edge"><title>Splash Page&#45;&gt;HTML</title>
<path fill="none" stroke="black" stroke-dasharray="5,2" d="M529.368,-107.452C540.062,-102.144 550.467,-94.6776 556.645,-84.3344 562.96,-73.7609 563.336,-60.3078 561.774,-48.5506"/>
<polygon fill="black" stroke="black" points="565.153,-47.5681 559.91,-38.3613 558.267,-48.828 565.153,-47.5681"/>
<text text-anchor="middle" x="582.476" y="-73.1344" font-family="Times,serif" font-size="14.00">HTML</text>
<text text-anchor="middle" x="582.476" y="-59.1344" font-family="Times,serif" font-size="14.00">link</text>
</g>
<!-- DOI.img -->
<g id="node4" class="node"><title>DOI.img</title>
<ellipse fill="lightgrey" stroke="black" cx="113.645" cy="-220.334" rx="41.5871" ry="18"/>
<text text-anchor="middle" x="113.645" y="-216.134" font-family="Times,serif" font-size="14.00">DOI.img</text>
</g>
<!-- Splash Page#img -->
<g id="node5" class="node"><title>Splash Page#img</title>
<ellipse fill="none" stroke="black" cx="116.645" cy="-120.334" rx="71.0461" ry="18"/>
<text text-anchor="middle" x="116.645" y="-116.134" font-family="Times,serif" font-size="14.00">Splash Page#img</text>
</g>
<!-- DOI.img&#45;&gt;Splash Page#img -->
<g id="edge3" class="edge"><title>DOI.img&#45;&gt;Splash Page#img</title>
<path fill="none" stroke="black" stroke-dasharray="5,2" d="M89.3933,-205.522C81.9984,-199.971 74.76,-192.847 70.7172,-184.334 65.3785,-173.093 65.1947,-167.486 70.7172,-156.334 73.0487,-151.626 76.3503,-147.379 80.1271,-143.601"/>
<polygon fill="black" stroke="black" points="82.5773,-146.11 87.8458,-136.918 77.995,-140.818 82.5773,-146.11"/>
<text text-anchor="middle" x="104.109" y="-173.134" font-family="Times,serif" font-size="14.00">conneg 303</text>
<text text-anchor="middle" x="104.109" y="-159.134" font-family="Times,serif" font-size="14.00">text/html</text>
</g>
<!-- DOI.img&#45;&gt;Splash Page#img -->
<g id="edge4" class="edge"><title>DOI.img&#45;&gt;Splash Page#img</title>
<path fill="none" stroke="black" d="M126.448,-203.167C130.166,-197.532 133.737,-190.955 135.645,-184.334 139.091,-172.377 138.708,-168.396 135.645,-156.334 134.887,-153.348 133.817,-150.341 132.566,-147.411"/>
<polygon fill="black" stroke="black" points="135.694,-145.84 128.12,-138.432 129.421,-148.947 135.694,-145.84"/>
<text text-anchor="middle" x="172.466" y="-173.134" font-family="Times,serif" font-size="14.00">describedby</text>
<text text-anchor="middle" x="172.466" y="-159.134" font-family="Times,serif" font-size="14.00">text/html</text>
</g>
<!-- RDF.img -->
<g id="node6" class="node"><title>RDF.img</title>
<ellipse fill="none" stroke="black" cx="248.645" cy="-120.334" rx="42.6493" ry="18"/>
<text text-anchor="middle" x="248.645" y="-116.134" font-family="Times,serif" font-size="14.00">RDF.img</text>
</g>
<!-- DOI.img&#45;&gt;RDF.img -->
<g id="edge5" class="edge"><title>DOI.img&#45;&gt;RDF.img</title>
<path fill="none" stroke="black" stroke-dasharray="5,2" d="M151.201,-212.121C170.564,-206.929 193.622,-198.303 210.645,-184.334 222.526,-174.585 231.634,-160.082 237.95,-147.448"/>
<polygon fill="black" stroke="black" points="241.18,-148.803 242.236,-138.261 234.836,-145.844 241.18,-148.803"/>
<text text-anchor="middle" x="266.109" y="-173.134" font-family="Times,serif" font-size="14.00">conneg 303</text>
<text text-anchor="middle" x="266.109" y="-159.134" font-family="Times,serif" font-size="14.00">text/turtle</text>
</g>
<!-- Splash Page#img&#45;&gt;Splash Page -->
<g id="edge19" class="edge"><title>Splash Page#img&#45;&gt;Splash Page</title>
<path fill="none" stroke="black" stroke-dasharray="1,5" d="M148.727,-136.465C196.917,-158.644 290.857,-193.918 370.69,-176.334 401.414,-169.567 433.618,-154.194 457.065,-141.264"/>
<polygon fill="black" stroke="black" points="458.926,-144.232 465.916,-136.27 455.486,-138.136 458.926,-144.232"/>
<text text-anchor="middle" x="344.645" y="-173.134" font-family="Times,serif" font-size="14.00">implied</text>
<text text-anchor="middle" x="344.645" y="-159.134" font-family="Times,serif" font-size="14.00">is&#45;part&#45;of</text>
</g>
<!-- Splash Page#img&#45;&gt;DOI.img -->
<g id="edge16" class="edge"><title>Splash Page#img&#45;&gt;DOI.img</title>
<path fill="none" stroke="black" d="M51.2233,-127.713C33.5873,-132.778 16.3974,-141.491 5.51018,-156.334 -1.85001,-166.369 -1.81017,-174.271 5.51018,-184.334 18.6369,-202.38 41.2685,-211.313 62.4455,-215.662"/>
<polygon fill="black" stroke="black" points="61.8994,-219.119 72.354,-217.401 63.1098,-212.225 61.8994,-219.119"/>
<text text-anchor="middle" x="34.2123" y="-173.134" font-family="Times,serif" font-size="14.00">canonical,</text>
<text text-anchor="middle" x="34.2123" y="-159.134" font-family="Times,serif" font-size="14.00">describes</text>
</g>
<!-- IMG -->
<g id="node9" class="node"><title>IMG</title>
<ellipse fill="none" stroke="black" cx="116.645" cy="-20.3344" rx="27.1044" ry="18"/>
<text text-anchor="middle" x="116.645" y="-16.1344" font-family="Times,serif" font-size="14.00">IMG</text>
</g>
<!-- Splash Page#img&#45;&gt;IMG -->
<g id="edge17" class="edge"><title>Splash Page#img&#45;&gt;IMG</title>
<path fill="none" stroke="black" d="M77.5887,-105.268C68.613,-100.11 60.1857,-93.2701 54.9828,-84.3344 48.7211,-73.5801 48.7211,-67.0887 54.9828,-56.3344 61.1626,-45.7208 71.8917,-38.0639 82.6853,-32.6712"/>
<polygon fill="black" stroke="black" points="84.3583,-35.7578 92.0744,-28.4976 81.5149,-29.3613 84.3583,-35.7578"/>
<text text-anchor="middle" x="75.476" y="-73.1344" font-family="Times,serif" font-size="14.00">HTML</text>
<text text-anchor="middle" x="75.476" y="-59.1344" font-family="Times,serif" font-size="14.00">img</text>
</g>
<!-- Splash Page#img&#45;&gt;IMG -->
<g id="edge18" class="edge"><title>Splash Page#img&#45;&gt;IMG</title>
<path fill="none" stroke="black" d="M116.645,-102.264C116.645,-87.4593 116.645,-65.7665 116.645,-48.5657"/>
<polygon fill="black" stroke="black" points="120.145,-48.5379 116.645,-38.5379 113.145,-48.538 120.145,-48.5379"/>
<text text-anchor="middle" x="129.086" y="-66.1344" font-family="Times,serif" font-size="14.00">item</text>
</g>
<!-- PDF&#45;&gt;Splash Page -->
<g id="edge14" class="edge"><title>PDF&#45;&gt;Splash Page</title>
<path fill="none" stroke="black" d="M432.311,-38.022C437.257,-51.2701 445.238,-69.9004 455.445,-84.3344 458.322,-88.4028 461.712,-92.3947 465.245,-96.1424"/>
<polygon fill="black" stroke="black" points="463.02,-98.8657 472.577,-103.438 467.957,-93.9038 463.02,-98.8657"/>
<text text-anchor="middle" x="483.245" y="-66.1344" font-family="Times,serif" font-size="14.00">collection</text>
</g>
<!-- PDF&#45;&gt;HTML -->
<g id="edge10" class="edge"><title>PDF&#45;&gt;HTML</title>
<path fill="none" stroke="black" d="M453.79,-20.3344C469.889,-20.3344 490.708,-20.3344 509.246,-20.3344"/>
<polygon fill="black" stroke="black" points="509.266,-23.8345 519.266,-20.3344 509.266,-16.8345 509.266,-23.8345"/>
<text text-anchor="middle" x="486.565" y="-26.1344" font-family="Times,serif" font-size="14.00">alternate</text>
</g>
<!-- HTML&#45;&gt;Splash Page -->
<g id="edge15" class="edge"><title>HTML&#45;&gt;Splash Page</title>
<path fill="none" stroke="black" d="M580.878,-32.3451C590.817,-37.9646 601.071,-45.864 606.645,-56.3344 612.493,-67.3194 614.054,-74.3356 606.645,-84.3344 594.206,-101.122 573.908,-110.132 553.8,-114.881"/>
<polygon fill="black" stroke="black" points="553.077,-111.456 543.979,-116.885 554.477,-118.314 553.077,-111.456"/>
<text text-anchor="middle" x="639.245" y="-66.1344" font-family="Times,serif" font-size="14.00">collection</text>
</g>
<!-- HTML&#45;&gt;PDF -->
<g id="edge11" class="edge"><title>HTML&#45;&gt;PDF</title>
<path fill="none" stroke="black" d="M528.12,-8.28728C522.467,-6.23285 516.453,-4.41526 510.658,-3.33444 489.605,0.592325 483.364,1.37106 462.471,-3.33444 460.557,-3.76555 458.625,-4.31136 456.703,-4.941"/>
<polygon fill="black" stroke="black" points="455.324,-1.72256 447.303,-8.64477 457.89,-8.23528 455.324,-1.72256"/>
<text text-anchor="middle" x="486.565" y="-6.13444" font-family="Times,serif" font-size="14.00">alternate</text>
</g>
<!-- IMG&#45;&gt;Splash Page#img -->
<g id="edge20" class="edge"><title>IMG&#45;&gt;Splash Page#img</title>
<path fill="none" stroke="black" d="M130.644,-35.794C135.418,-41.6827 140.173,-48.8604 142.645,-56.3344 146.553,-68.1493 146.553,-72.5196 142.645,-84.3344 141.542,-87.6694 139.984,-90.9455 138.173,-94.0743"/>
<polygon fill="black" stroke="black" points="135.232,-92.1755 132.565,-102.429 141.044,-96.0768 135.232,-92.1755"/>
<text text-anchor="middle" x="173.245" y="-66.1344" font-family="Times,serif" font-size="14.00">collection</text>
</g>
</g>
</svg>
