<?xml version="1.0" encoding="UTF-8" standalone="no"?>
<!DOCTYPE svg PUBLIC "-//W3C//DTD SVG 1.1//EN"
 "http://www.w3.org/Graphics/SVG/1.1/DTD/svg11.dtd">
<!-- Generated by graphviz version 2.38.0 (20140413.2041)
 -->
<!-- Title: PLOSCI Pages: 1 -->
<svg width="663pt" height="246pt"
 viewBox="0.00 0.00 663.32 246.33" xmlns="http://www.w3.org/2000/svg" xmlns:xlink="http://www.w3.org/1999/xlink">
<g id="graph0" class="graph" transform="scale(1 1) rotate(0) translate(4 242.334)">
<title>PLOSCI</title>
<polygon fill="white" stroke="none" points="-4,4 -4,-242.334 659.325,-242.334 659.325,4 -4,4"/>
<!-- DOI -->
<g id="node1" class="node"><title>DOI</title>
<ellipse fill="lightgrey" stroke="black" cx="181.397" cy="-220.334" rx="27" ry="18"/>
<text text-anchor="middle" x="181.397" y="-216.134" font-family="Times,serif" font-size="14.00">DOI</text>
</g>
<!-- Splash Page -->
<g id="node2" class="node"><title>Splash Page</title>
<ellipse fill="none" stroke="black" cx="136.397" cy="-120.334" rx="53.1871" ry="18"/>
<text text-anchor="middle" x="136.397" y="-116.134" font-family="Times,serif" font-size="14.00">Splash Page</text>
</g>
<!-- DOI&#45;&gt;Splash Page -->
<g id="edge1" class="edge"><title>DOI&#45;&gt;Splash Page</title>
<path fill="none" stroke="black" stroke-dasharray="5,2" d="M155.114,-216.141C120.428,-211.325 62.2564,-200.956 49.4692,-184.334 41.8813,-174.471 42.5042,-166.647 49.4692,-156.334 56.8704,-145.376 68.3348,-137.848 80.5363,-132.677"/>
<polygon fill="black" stroke="black" points="81.8089,-135.938 89.9554,-129.164 79.3627,-129.379 81.8089,-135.938"/>
<text text-anchor="middle" x="82.8609" y="-173.134" font-family="Times,serif" font-size="14.00">conneg 303</text>
<text text-anchor="middle" x="82.8609" y="-159.134" font-family="Times,serif" font-size="14.00">text/html</text>
</g>
<!-- DOI&#45;&gt;Splash Page -->
<g id="edge13" class="edge"><title>DOI&#45;&gt;Splash Page</title>
<path fill="none" stroke="black" d="M159.559,-209.207C149.774,-203.42 139.225,-195.14 133.755,-184.334 128.229,-173.417 128.032,-160.022 129.565,-148.395"/>
<polygon fill="black" stroke="black" points="133.048,-148.794 131.355,-138.335 126.157,-147.567 133.048,-148.794"/>
<text text-anchor="middle" x="168.218" y="-166.134" font-family="Times,serif" font-size="14.00">describedby</text>
</g>
<!-- RDF -->
<g id="node3" class="node"><title>RDF</title>
<ellipse fill="none" stroke="black" cx="307.397" cy="-120.334" rx="27.1216" ry="18"/>
<text text-anchor="middle" x="307.397" y="-116.134" font-family="Times,serif" font-size="14.00">RDF</text>
</g>
<!-- DOI&#45;&gt;RDF -->
<g id="edge2" class="edge"><title>DOI&#45;&gt;RDF</title>
<path fill="none" stroke="black" stroke-dasharray="5,2" d="M206.762,-214.123C225.974,-209.128 252.096,-199.976 270.397,-184.334 281.999,-174.418 290.869,-159.905 297.012,-147.307"/>
<polygon fill="black" stroke="black" points="300.22,-148.707 301.178,-138.155 293.849,-145.807 300.22,-148.707"/>
<text text-anchor="middle" x="324.861" y="-173.134" font-family="Times,serif" font-size="14.00">conneg 303</text>
<text text-anchor="middle" x="324.861" y="-159.134" font-family="Times,serif" font-size="14.00">text/turtle</text>
</g>
<!-- Splash Page&#45;&gt;DOI -->
<g id="edge12" class="edge"><title>Splash Page&#45;&gt;DOI</title>
<path fill="none" stroke="black" d="M176.02,-132.549C187.496,-137.837 198.72,-145.46 205.397,-156.334 212.937,-168.614 207.674,-183.654 200.178,-195.959"/>
<polygon fill="black" stroke="black" points="197.198,-194.117 194.477,-204.357 202.989,-198.049 197.198,-194.117"/>
<text text-anchor="middle" x="237.964" y="-173.134" font-family="Times,serif" font-size="14.00">canonical,</text>
<text text-anchor="middle" x="237.964" y="-159.134" font-family="Times,serif" font-size="14.00">describes</text>
</g>
<!-- PDF -->
<g id="node7" class="node"><title>PDF</title>
<ellipse fill="none" stroke="black" cx="89.397" cy="-20.3344" rx="27" ry="18"/>
<text text-anchor="middle" x="89.397" y="-16.1344" font-family="Times,serif" font-size="14.00">PDF</text>
</g>
<!-- Splash Page&#45;&gt;PDF -->
<g id="edge6" class="edge"><title>Splash Page&#45;&gt;PDF</title>
<path fill="none" stroke="black" d="M88.0461,-112.634C55.1174,-106.966 15.7196,-97.6276 5.51417,-84.3344 -2.06399,-74.4635 -1.3862,-66.6906 5.51417,-56.3344 16.1199,-40.4173 35.4876,-31.7266 52.9423,-26.9876"/>
<polygon fill="black" stroke="black" points="53.9913,-30.3362 62.9177,-24.6292 52.3807,-23.524 53.9913,-30.3362"/>
<text text-anchor="middle" x="18.8384" y="-66.1344" font-family="Times,serif" font-size="14.00">item</text>
</g>
<!-- Splash Page&#45;&gt;PDF -->
<g id="edge8" class="edge"><title>Splash Page&#45;&gt;PDF</title>
<path fill="none" stroke="black" stroke-dasharray="5,2" d="M91.3094,-110.657C76.8385,-105.509 62.3424,-97.3262 53.7349,-84.3344 46.8616,-73.9603 48.9188,-67.8092 53.7349,-56.3344 56.1007,-50.6977 59.8663,-45.5121 64.0817,-40.9564"/>
<polygon fill="black" stroke="black" points="66.6318,-43.3604 71.433,-33.9158 61.79,-38.3049 66.6318,-43.3604"/>
<text text-anchor="middle" x="74.228" y="-73.1344" font-family="Times,serif" font-size="14.00">HTML</text>
<text text-anchor="middle" x="74.228" y="-59.1344" font-family="Times,serif" font-size="14.00">link</text>
</g>
<!-- HTML -->
<g id="node8" class="node"><title>HTML</title>
<ellipse fill="none" stroke="black" cx="217.397" cy="-20.3344" rx="35.3216" ry="18"/>
<text text-anchor="middle" x="217.397" y="-16.1344" font-family="Times,serif" font-size="14.00">HTML</text>
</g>
<!-- Splash Page&#45;&gt;HTML -->
<g id="edge7" class="edge"><title>Splash Page&#45;&gt;HTML</title>
<path fill="none" stroke="black" d="M153.678,-103.105C159.507,-97.3601 165.92,-90.7317 171.397,-84.3344 181.714,-72.2835 192.221,-58.0701 200.584,-46.1966"/>
<polygon fill="black" stroke="black" points="203.692,-47.8572 206.522,-37.6475 197.942,-43.8638 203.692,-47.8572"/>
<text text-anchor="middle" x="205.838" y="-66.1344" font-family="Times,serif" font-size="14.00">item</text>
</g>
<!-- Splash Page&#45;&gt;HTML -->
<g id="edge9" class="edge"><title>Splash Page&#45;&gt;HTML</title>
<path fill="none" stroke="black" stroke-dasharray="5,2" d="M181.664,-110.7C196.194,-105.556 210.75,-97.3649 219.397,-84.3344 226.323,-73.8971 226.655,-60.1977 224.906,-48.2402"/>
<polygon fill="black" stroke="black" points="228.315,-47.4397 222.946,-38.3064 221.448,-48.7948 228.315,-47.4397"/>
<text text-anchor="middle" x="246.228" y="-73.1344" font-family="Times,serif" font-size="14.00">HTML</text>
<text text-anchor="middle" x="246.228" y="-59.1344" font-family="Times,serif" font-size="14.00">link</text>
</g>
<!-- DOI.img -->
<g id="node4" class="node"><title>DOI.img</title>
<ellipse fill="lightgrey" stroke="black" cx="509.397" cy="-220.334" rx="41.5871" ry="18"/>
<text text-anchor="middle" x="509.397" y="-216.134" font-family="Times,serif" font-size="14.00">DOI.img</text>
</g>
<!-- Splash Page#img -->
<g id="node5" class="node"><title>Splash Page#img</title>
<ellipse fill="none" stroke="black" cx="445.397" cy="-120.334" rx="71.0461" ry="18"/>
<text text-anchor="middle" x="445.397" y="-116.134" font-family="Times,serif" font-size="14.00">Splash Page#img</text>
</g>
<!-- DOI.img&#45;&gt;Splash Page#img -->
<g id="edge3" class="edge"><title>DOI.img&#45;&gt;Splash Page#img</title>
<path fill="none" stroke="black" stroke-dasharray="5,2" d="M470.217,-213.657C452.522,-208.922 433.214,-200.243 422.469,-184.334 414.838,-173.036 418.991,-158.886 425.742,-146.86"/>
<polygon fill="black" stroke="black" points="428.859,-148.48 431.259,-138.161 422.948,-144.732 428.859,-148.48"/>
<text text-anchor="middle" x="455.861" y="-173.134" font-family="Times,serif" font-size="14.00">conneg 303</text>
<text text-anchor="middle" x="455.861" y="-159.134" font-family="Times,serif" font-size="14.00">text/html</text>
</g>
<!-- DOI.img&#45;&gt;Splash Page#img -->
<g id="edge4" class="edge"><title>DOI.img&#45;&gt;Splash Page#img</title>
<path fill="none" stroke="black" d="M506.038,-202.136C502.832,-188.773 497.031,-170.237 487.397,-156.334 484.432,-152.056 480.81,-148.004 476.948,-144.278"/>
<polygon fill="black" stroke="black" points="479.144,-141.548 469.336,-137.542 474.505,-146.79 479.144,-141.548"/>
<text text-anchor="middle" x="535.218" y="-173.134" font-family="Times,serif" font-size="14.00">describedby</text>
<text text-anchor="middle" x="535.218" y="-159.134" font-family="Times,serif" font-size="14.00">text/html</text>
</g>
<!-- RDF.img -->
<g id="node6" class="node"><title>RDF.img</title>
<ellipse fill="none" stroke="black" cx="600.397" cy="-120.334" rx="42.6493" ry="18"/>
<text text-anchor="middle" x="600.397" y="-116.134" font-family="Times,serif" font-size="14.00">RDF.img</text>
</g>
<!-- DOI.img&#45;&gt;RDF.img -->
<g id="edge5" class="edge"><title>DOI.img&#45;&gt;RDF.img</title>
<path fill="none" stroke="black" stroke-dasharray="5,2" d="M539.94,-207.758C551.608,-202.123 564.284,-194.363 573.397,-184.334 582.713,-174.083 589.139,-160.128 593.378,-147.958"/>
<polygon fill="black" stroke="black" points="596.762,-148.865 596.439,-138.275 590.087,-146.755 596.762,-148.865"/>
<text text-anchor="middle" x="622.861" y="-173.134" font-family="Times,serif" font-size="14.00">conneg 303</text>
<text text-anchor="middle" x="622.861" y="-159.134" font-family="Times,serif" font-size="14.00">text/turtle</text>
</g>
<!-- IMG -->
<g id="node9" class="node"><title>IMG</title>
<ellipse fill="none" stroke="black" cx="445.397" cy="-20.3344" rx="27.1044" ry="18"/>
<text text-anchor="middle" x="445.397" y="-16.1344" font-family="Times,serif" font-size="14.00">IMG</text>
</g>
<!-- Splash Page#img&#45;&gt;IMG -->
<g id="edge16" class="edge"><title>Splash Page#img&#45;&gt;IMG</title>
<path fill="none" stroke="black" d="M406.341,-105.268C397.365,-100.11 388.938,-93.2701 383.735,-84.3344 377.473,-73.5801 377.473,-67.0887 383.735,-56.3344 389.915,-45.7208 400.644,-38.0639 411.437,-32.6712"/>
<polygon fill="black" stroke="black" points="413.11,-35.7578 420.826,-28.4976 410.267,-29.3613 413.11,-35.7578"/>
<text text-anchor="middle" x="404.228" y="-73.1344" font-family="Times,serif" font-size="14.00">HTML</text>
<text text-anchor="middle" x="404.228" y="-59.1344" font-family="Times,serif" font-size="14.00">img</text>
</g>
<!-- Splash Page#img&#45;&gt;IMG -->
<g id="edge17" class="edge"><title>Splash Page#img&#45;&gt;IMG</title>
<path fill="none" stroke="black" d="M445.397,-102.264C445.397,-87.4593 445.397,-65.7665 445.397,-48.5657"/>
<polygon fill="black" stroke="black" points="448.897,-48.5379 445.397,-38.5379 441.897,-48.538 448.897,-48.5379"/>
<text text-anchor="middle" x="457.838" y="-66.1344" font-family="Times,serif" font-size="14.00">item</text>
</g>
<!-- PDF&#45;&gt;Splash Page -->
<g id="edge14" class="edge"><title>PDF&#45;&gt;Splash Page</title>
<path fill="none" stroke="black" d="M95.8031,-37.8981C100.926,-50.7497 108.502,-68.9129 116.197,-84.3344 117.7,-87.3477 119.35,-90.4615 121.039,-93.5322"/>
<polygon fill="black" stroke="black" points="118.132,-95.5019 126.112,-102.471 124.22,-92.0466 118.132,-95.5019"/>
<text text-anchor="middle" x="143.997" y="-66.1344" font-family="Times,serif" font-size="14.00">collection</text>
</g>
<!-- PDF&#45;&gt;HTML -->
<g id="edge10" class="edge"><title>PDF&#45;&gt;HTML</title>
<path fill="none" stroke="black" d="M116.542,-20.3344C132.641,-20.3344 153.46,-20.3344 171.998,-20.3344"/>
<polygon fill="black" stroke="black" points="172.018,-23.8345 182.018,-20.3344 172.018,-16.8345 172.018,-23.8345"/>
<text text-anchor="middle" x="149.317" y="-26.1344" font-family="Times,serif" font-size="14.00">alternate</text>
</g>
<!-- HTML&#45;&gt;Splash Page -->
<g id="edge15" class="edge"><title>HTML&#45;&gt;Splash Page</title>
<path fill="none" stroke="black" d="M244.121,-32.2323C254.249,-37.8336 264.703,-45.7499 270.397,-56.3344 276.293,-67.2935 278.004,-74.4856 270.397,-84.3344 260.881,-96.6547 226.709,-105.466 195.258,-111.166"/>
<polygon fill="black" stroke="black" points="194.435,-107.756 185.177,-112.908 195.627,-114.654 194.435,-107.756"/>
<text text-anchor="middle" x="303.997" y="-66.1344" font-family="Times,serif" font-size="14.00">collection</text>
</g>
<!-- HTML&#45;&gt;PDF -->
<g id="edge11" class="edge"><title>HTML&#45;&gt;PDF</title>
<path fill="none" stroke="black" d="M190.872,-8.28728C185.219,-6.23285 179.205,-4.41526 173.41,-3.33444 152.357,0.592325 146.116,1.37106 125.224,-3.33444 123.309,-3.76555 121.377,-4.31136 119.455,-4.941"/>
<polygon fill="black" stroke="black" points="118.076,-1.72256 110.055,-8.64477 120.642,-8.23528 118.076,-1.72256"/>
<text text-anchor="middle" x="149.317" y="-6.13444" font-family="Times,serif" font-size="14.00">alternate</text>
</g>
<!-- IMG&#45;&gt;Splash Page#img -->
<g id="edge18" class="edge"><title>IMG&#45;&gt;Splash Page#img</title>
<path fill="none" stroke="black" d="M459.396,-35.794C464.17,-41.6827 468.925,-48.8604 471.397,-56.3344 475.305,-68.1493 475.305,-72.5196 471.397,-84.3344 470.294,-87.6694 468.736,-90.9455 466.925,-94.0743"/>
<polygon fill="black" stroke="black" points="463.984,-92.1755 461.317,-102.429 469.796,-96.0768 463.984,-92.1755"/>
<text text-anchor="middle" x="501.997" y="-66.1344" font-family="Times,serif" font-size="14.00">collection</text>
</g>
</g>
</svg>
