<?xml version="1.0" encoding="UTF-8" standalone="no"?>
<!DOCTYPE svg PUBLIC "-//W3C//DTD SVG 1.1//EN"
 "http://www.w3.org/Graphics/SVG/1.1/DTD/svg11.dtd">
<!-- Generated by graphviz version 2.38.0 (20140413.2041)
 -->
<!-- Title: PLOSCI Pages: 1 -->
<svg width="705pt" height="246pt"
 viewBox="0.00 0.00 705.40 246.33" xmlns="http://www.w3.org/2000/svg" xmlns:xlink="http://www.w3.org/1999/xlink">
<g id="graph0" class="graph" transform="scale(1 1) rotate(0) translate(4 242.334)">
<title>PLOSCI</title>
<polygon fill="white" stroke="none" points="-4,4 -4,-242.334 701.399,-242.334 701.399,4 -4,4"/>
<!-- DOI -->
<g id="node1" class="node"><title>DOI</title>
<ellipse fill="lightgrey" stroke="black" cx="194.472" cy="-220.334" rx="27" ry="18"/>
<text text-anchor="middle" x="194.472" y="-216.134" font-family="Times,serif" font-size="14.00">DOI</text>
</g>
<!-- Splash_Page -->
<g id="node2" class="node"><title>Splash_Page</title>
<ellipse fill="none" stroke="black" cx="154.472" cy="-120.334" rx="55.1094" ry="18"/>
<text text-anchor="middle" x="154.472" y="-116.134" font-family="Times,serif" font-size="14.00">Splash_Page</text>
</g>
<!-- DOI&#45;&gt;Splash_Page -->
<g id="edge1" class="edge"><title>DOI&#45;&gt;Splash_Page</title>
<path fill="none" stroke="black" stroke-dasharray="5,2" d="M168.318,-215.862C134.84,-210.819 79.6967,-200.292 67.5439,-184.334 60.004,-174.434 60.5788,-166.647 67.5439,-156.334 74.6569,-145.803 85.523,-138.439 97.1895,-133.291"/>
<polygon fill="black" stroke="black" points="98.6022,-136.498 106.661,-129.62 96.072,-129.971 98.6022,-136.498"/>
<text text-anchor="middle" x="100.935" y="-173.134" font-family="Times,serif" font-size="14.00">conneg 303</text>
<text text-anchor="middle" x="100.935" y="-159.134" font-family="Times,serif" font-size="14.00">test/html</text>
</g>
<!-- RDF -->
<g id="node3" class="node"><title>RDF</title>
<ellipse fill="none" stroke="black" cx="313.472" cy="-120.334" rx="27.1216" ry="18"/>
<text text-anchor="middle" x="313.472" y="-116.134" font-family="Times,serif" font-size="14.00">RDF</text>
</g>
<!-- DOI&#45;&gt;RDF -->
<g id="edge2" class="edge"><title>DOI&#45;&gt;RDF</title>
<path fill="none" stroke="black" stroke-dasharray="5,2" d="M219.328,-213.219C236.875,-207.905 260.086,-198.752 276.472,-184.334 287.93,-174.252 296.791,-159.729 302.965,-147.168"/>
<polygon fill="black" stroke="black" points="306.16,-148.598 307.161,-138.05 299.801,-145.671 306.16,-148.598"/>
<text text-anchor="middle" x="329.935" y="-173.134" font-family="Times,serif" font-size="14.00">conneg 303</text>
<text text-anchor="middle" x="329.935" y="-159.134" font-family="Times,serif" font-size="14.00">test/turtle</text>
</g>
<!-- Splash_Page&#45;&gt;DOI -->
<g id="edge11" class="edge"><title>Splash_Page&#45;&gt;DOI</title>
<path fill="none" stroke="black" d="M151.11,-138.455C149.358,-151.606 148.762,-169.9 155.337,-184.334 158.114,-190.431 162.522,-195.912 167.396,-200.629"/>
<polygon fill="black" stroke="black" points="165.404,-203.531 175.271,-207.389 169.964,-198.22 165.404,-203.531"/>
<text text-anchor="middle" x="184.039" y="-166.134" font-family="Times,serif" font-size="14.00">canonical </text>
</g>
<!-- Splash_Page&#45;&gt;DOI -->
<g id="edge12" class="edge"><title>Splash_Page&#45;&gt;DOI</title>
<path fill="none" stroke="black" d="M189.139,-134.596C198.361,-139.898 207.21,-147.015 212.472,-156.334 219.134,-168.137 215.696,-182.6 210.116,-194.691"/>
<polygon fill="black" stroke="black" points="206.891,-193.303 205.333,-203.782 213.086,-196.561 206.891,-193.303"/>
<text text-anchor="middle" x="244.267" y="-166.134" font-family="Times,serif" font-size="14.00">describes </text>
</g>
<!-- PDF -->
<g id="node7" class="node"><title>PDF</title>
<ellipse fill="none" stroke="black" cx="89.4716" cy="-20.3344" rx="27" ry="18"/>
<text text-anchor="middle" x="89.4716" y="-16.1344" font-family="Times,serif" font-size="14.00">PDF</text>
</g>
<!-- Splash_Page&#45;&gt;PDF -->
<g id="edge5" class="edge"><title>Splash_Page&#45;&gt;PDF</title>
<path fill="none" stroke="black" d="M102.685,-113.97C64.6778,-108.839 17.666,-99.58 5.58877,-84.3344 -2.13859,-74.5798 -1.3116,-66.6906 5.58877,-56.3344 16.1945,-40.4173 35.5622,-31.7266 53.0169,-26.9876"/>
<polygon fill="black" stroke="black" points="54.0659,-30.3362 62.9923,-24.6292 52.4553,-23.524 54.0659,-30.3362"/>
<text text-anchor="middle" x="18.913" y="-66.1344" font-family="Times,serif" font-size="14.00">item</text>
</g>
<!-- Splash_Page&#45;&gt;PDF -->
<g id="edge7" class="edge"><title>Splash_Page&#45;&gt;PDF</title>
<path fill="none" stroke="black" stroke-dasharray="5,2" d="M102.734,-113.762C84.205,-108.984 65.1208,-100.243 53.8095,-84.3344 46.5982,-74.1924 48.9934,-67.8092 53.8095,-56.3344 56.1753,-50.6977 59.9409,-45.5121 64.1563,-40.9564"/>
<polygon fill="black" stroke="black" points="66.7064,-43.3604 71.5076,-33.9158 61.8647,-38.3049 66.7064,-43.3604"/>
<text text-anchor="middle" x="74.3026" y="-73.1344" font-family="Times,serif" font-size="14.00">HTML</text>
<text text-anchor="middle" x="74.3026" y="-59.1344" font-family="Times,serif" font-size="14.00">link</text>
</g>
<!-- HTML -->
<g id="node8" class="node"><title>HTML</title>
<ellipse fill="none" stroke="black" cx="217.472" cy="-20.3344" rx="35.3216" ry="18"/>
<text text-anchor="middle" x="217.472" y="-16.1344" font-family="Times,serif" font-size="14.00">HTML</text>
</g>
<!-- Splash_Page&#45;&gt;HTML -->
<g id="edge6" class="edge"><title>Splash_Page&#45;&gt;HTML</title>
<path fill="none" stroke="black" d="M165.144,-102.453C173.196,-89.7468 184.535,-71.915 194.589,-56.3344 196.68,-53.0937 198.888,-49.6908 201.076,-46.3325"/>
<polygon fill="black" stroke="black" points="204.183,-47.9758 206.721,-37.6894 198.322,-44.148 204.183,-47.9758"/>
<text text-anchor="middle" x="207.913" y="-66.1344" font-family="Times,serif" font-size="14.00">item</text>
</g>
<!-- Splash_Page&#45;&gt;HTML -->
<g id="edge8" class="edge"><title>Splash_Page&#45;&gt;HTML</title>
<path fill="none" stroke="black" stroke-dasharray="5,2" d="M192.877,-107.11C203.33,-101.825 213.425,-94.4575 219.472,-84.3344 225.787,-73.7609 226.163,-60.3078 224.601,-48.5506"/>
<polygon fill="black" stroke="black" points="227.98,-47.5681 222.737,-38.3613 221.094,-48.828 227.98,-47.5681"/>
<text text-anchor="middle" x="245.303" y="-73.1344" font-family="Times,serif" font-size="14.00">HTML</text>
<text text-anchor="middle" x="245.303" y="-59.1344" font-family="Times,serif" font-size="14.00">link</text>
</g>
<!-- DOI.img -->
<g id="node4" class="node"><title>DOI.img</title>
<ellipse fill="lightgrey" stroke="black" cx="529.472" cy="-220.334" rx="41.5871" ry="18"/>
<text text-anchor="middle" x="529.472" y="-216.134" font-family="Times,serif" font-size="14.00">DOI.img</text>
</g>
<!-- Splash_Page#img -->
<g id="node5" class="node"><title>Splash_Page#img</title>
<ellipse fill="none" stroke="black" cx="489.472" cy="-120.334" rx="73.4671" ry="18"/>
<text text-anchor="middle" x="489.472" y="-116.134" font-family="Times,serif" font-size="14.00">Splash_Page#img</text>
</g>
<!-- DOI.img&#45;&gt;Splash_Page#img -->
<g id="edge3" class="edge"><title>DOI.img&#45;&gt;Splash_Page#img</title>
<path fill="none" stroke="black" stroke-dasharray="5,2" d="M490.48,-213.816C457.259,-208.222 413.243,-198.383 402.544,-184.334 395.004,-174.434 395.579,-166.647 402.544,-156.334 408.212,-147.942 416.264,-141.561 425.204,-136.71"/>
<polygon fill="black" stroke="black" points="426.853,-139.802 434.386,-132.352 423.851,-133.478 426.853,-139.802"/>
<text text-anchor="middle" x="435.935" y="-173.134" font-family="Times,serif" font-size="14.00">conneg 303</text>
<text text-anchor="middle" x="435.935" y="-159.134" font-family="Times,serif" font-size="14.00">test/html</text>
</g>
<!-- RDF.img -->
<g id="node6" class="node"><title>RDF.img</title>
<ellipse fill="none" stroke="black" cx="648.472" cy="-120.334" rx="42.6493" ry="18"/>
<text text-anchor="middle" x="648.472" y="-116.134" font-family="Times,serif" font-size="14.00">RDF.img</text>
</g>
<!-- DOI.img&#45;&gt;RDF.img -->
<g id="edge4" class="edge"><title>DOI.img&#45;&gt;RDF.img</title>
<path fill="none" stroke="black" stroke-dasharray="5,2" d="M564.126,-210.023C579.891,-204.494 597.992,-196.195 611.472,-184.334 622.854,-174.319 631.674,-159.921 637.842,-147.418"/>
<polygon fill="black" stroke="black" points="641.025,-148.875 642.041,-138.329 634.67,-145.939 641.025,-148.875"/>
<text text-anchor="middle" x="664.935" y="-173.134" font-family="Times,serif" font-size="14.00">conneg 303</text>
<text text-anchor="middle" x="664.935" y="-159.134" font-family="Times,serif" font-size="14.00">test/turtle</text>
</g>
<!-- Splash_Page#img&#45;&gt;DOI.img -->
<g id="edge15" class="edge"><title>Splash_Page#img&#45;&gt;DOI.img</title>
<path fill="none" stroke="black" d="M486.11,-138.455C484.358,-151.606 483.762,-169.9 490.337,-184.334 492.547,-189.187 495.791,-193.65 499.48,-197.647"/>
<polygon fill="black" stroke="black" points="497.303,-200.405 506.97,-204.741 502.117,-195.323 497.303,-200.405"/>
<text text-anchor="middle" x="519.039" y="-166.134" font-family="Times,serif" font-size="14.00">canonical </text>
</g>
<!-- Splash_Page#img&#45;&gt;DOI.img -->
<g id="edge16" class="edge"><title>Splash_Page#img&#45;&gt;DOI.img</title>
<path fill="none" stroke="black" d="M526.56,-136.037C534.889,-141.166 542.673,-147.834 547.472,-156.334 554.002,-167.903 550.829,-182.027 545.446,-193.967"/>
<polygon fill="black" stroke="black" points="542.268,-192.493 540.798,-202.985 548.491,-195.699 542.268,-192.493"/>
<text text-anchor="middle" x="579.267" y="-166.134" font-family="Times,serif" font-size="14.00">describes </text>
</g>
<!-- IMG -->
<g id="node9" class="node"><title>IMG</title>
<ellipse fill="none" stroke="black" cx="488.472" cy="-20.3344" rx="27.1044" ry="18"/>
<text text-anchor="middle" x="488.472" y="-16.1344" font-family="Times,serif" font-size="14.00">IMG</text>
</g>
<!-- Splash_Page#img&#45;&gt;IMG -->
<g id="edge17" class="edge"><title>Splash_Page#img&#45;&gt;IMG</title>
<path fill="none" stroke="black" d="M470.742,-102.855C465.918,-97.4858 461.369,-91.1396 458.809,-84.3344 454.429,-72.6865 454.525,-68.0179 458.809,-56.3344 460.536,-51.628 463.206,-47.1202 466.252,-42.9979"/>
<polygon fill="black" stroke="black" points="469.101,-45.0473 472.849,-35.1375 463.739,-40.5472 469.101,-45.0473"/>
<text text-anchor="middle" x="479.303" y="-73.1344" font-family="Times,serif" font-size="14.00">HTML</text>
<text text-anchor="middle" x="479.303" y="-59.1344" font-family="Times,serif" font-size="14.00">img</text>
</g>
<!-- Splash_Page#img&#45;&gt;IMG -->
<g id="edge18" class="edge"><title>Splash_Page#img&#45;&gt;IMG</title>
<path fill="none" stroke="black" d="M494.833,-102.055C496.321,-96.4585 497.731,-90.1854 498.472,-84.3344 500.034,-71.9884 500.198,-68.6586 498.472,-56.3344 498.09,-53.612 497.55,-50.8042 496.915,-48.0187"/>
<polygon fill="black" stroke="black" points="500.264,-46.9909 494.321,-38.2195 493.497,-48.7822 500.264,-46.9909"/>
<text text-anchor="middle" x="512.913" y="-66.1344" font-family="Times,serif" font-size="14.00">item</text>
</g>
<!-- PDF&#45;&gt;Splash_Page -->
<g id="edge13" class="edge"><title>PDF&#45;&gt;Splash_Page</title>
<path fill="none" stroke="black" d="M95.1374,-38.022C100.083,-51.2701 108.064,-69.9004 118.271,-84.3344 121.088,-88.3181 124.398,-92.2283 127.851,-95.9078"/>
<polygon fill="black" stroke="black" points="125.483,-98.4898 135.029,-103.086 130.433,-93.5401 125.483,-98.4898"/>
<text text-anchor="middle" x="146.072" y="-66.1344" font-family="Times,serif" font-size="14.00">collection</text>
</g>
<!-- PDF&#45;&gt;HTML -->
<g id="edge9" class="edge"><title>PDF&#45;&gt;HTML</title>
<path fill="none" stroke="black" d="M116.617,-20.3344C132.716,-20.3344 153.534,-20.3344 172.073,-20.3344"/>
<polygon fill="black" stroke="black" points="172.093,-23.8345 182.093,-20.3344 172.093,-16.8345 172.093,-23.8345"/>
<text text-anchor="middle" x="149.391" y="-26.1344" font-family="Times,serif" font-size="14.00">alternate</text>
</g>
<!-- HTML&#45;&gt;Splash_Page -->
<g id="edge14" class="edge"><title>HTML&#45;&gt;Splash_Page</title>
<path fill="none" stroke="black" d="M243.705,-32.3451C253.643,-37.9646 263.898,-45.864 269.472,-56.3344 275.319,-67.3194 276.88,-74.3356 269.472,-84.3344 257.408,-100.616 237.952,-109.581 218.447,-114.439"/>
<polygon fill="black" stroke="black" points="217.629,-111.035 208.592,-116.565 219.105,-117.877 217.629,-111.035"/>
<text text-anchor="middle" x="302.072" y="-66.1344" font-family="Times,serif" font-size="14.00">collection</text>
</g>
<!-- HTML&#45;&gt;PDF -->
<g id="edge10" class="edge"><title>HTML&#45;&gt;PDF</title>
<path fill="none" stroke="black" d="M190.947,-8.28728C185.294,-6.23285 179.279,-4.41526 173.485,-3.33444 152.431,0.592325 146.191,1.37106 125.298,-3.33444 123.384,-3.76555 121.452,-4.31136 119.53,-4.941"/>
<polygon fill="black" stroke="black" points="118.15,-1.72256 110.13,-8.64477 120.716,-8.23528 118.15,-1.72256"/>
<text text-anchor="middle" x="149.391" y="-6.13444" font-family="Times,serif" font-size="14.00">alternate</text>
</g>
</g>
</svg>
