<?xml version="1.0" encoding="UTF-8" standalone="no"?>
<!DOCTYPE svg PUBLIC "-//W3C//DTD SVG 1.1//EN"
 "http://www.w3.org/Graphics/SVG/1.1/DTD/svg11.dtd">
<!-- Generated by graphviz version 2.38.0 (20140413.2041)
 -->
<!-- Title: VIVO_PERSON Pages: 1 -->
<svg width="827pt" height="236pt"
 viewBox="0.00 0.00 826.82 235.70" xmlns="http://www.w3.org/2000/svg" xmlns:xlink="http://www.w3.org/1999/xlink">
<g id="graph0" class="graph" transform="scale(1 1) rotate(0) translate(4 231.697)">
<title>VIVO_PERSON</title>
<polygon fill="white" stroke="none" points="-4,4 -4,-231.697 822.817,-231.697 822.817,4 -4,4"/>
<text text-anchor="middle" x="409.408" y="-212.497" font-family="Times,serif" font-size="14.00">VIVO resource and link structure for a Person with HTML &amp; RDF</text>
<text text-anchor="middle" x="409.408" y="-198.497" font-family="Times,serif" font-size="14.00">(black=current, red=suggested)</text>
<!-- Person -->
<g id="node1" class="node"><title>Person</title>
<ellipse fill="lightgrey" stroke="black" cx="314.304" cy="-150.242" rx="121.703" ry="25.4118"/>
<text text-anchor="middle" x="314.304" y="-153.042" font-family="Times,serif" font-size="14.00">Person</text>
<text text-anchor="middle" x="314.304" y="-139.042" font-family="Times,serif" font-size="14.00">/individual/individual24416</text>
</g>
<!-- HTML -->
<g id="node2" class="node"><title>HTML</title>
<ellipse fill="none" stroke="black" cx="110.304" cy="-35.3299" rx="110.108" ry="25.4118"/>
<text text-anchor="middle" x="110.304" y="-38.1299" font-family="Times,serif" font-size="14.00">HTML</text>
<text text-anchor="middle" x="110.304" y="-24.1299" font-family="Times,serif" font-size="14.00">/display/individual24416</text>
</g>
<!-- Person&#45;&gt;HTML -->
<g id="edge2" class="edge"><title>Person&#45;&gt;HTML</title>
<path fill="none" stroke="black" stroke-dasharray="5,2" d="M214.819,-135.494C178.587,-128.614 143.321,-119.091 130.376,-106.786 120.629,-97.5206 115.509,-83.8899 112.857,-71.0804"/>
<polygon fill="black" stroke="black" points="116.29,-70.3845 111.218,-61.0825 109.382,-71.517 116.29,-70.3845"/>
<text text-anchor="middle" x="163.768" y="-95.5858" font-family="Times,serif" font-size="14.00">conneg 303</text>
<text text-anchor="middle" x="163.768" y="-81.5858" font-family="Times,serif" font-size="14.00">text/html</text>
</g>
<!-- RDF -->
<g id="node3" class="node"><title>RDF</title>
<ellipse fill="none" stroke="black" cx="615.304" cy="-35.3299" rx="203.526" ry="25.4118"/>
<text text-anchor="middle" x="615.304" y="-38.1299" font-family="Times,serif" font-size="14.00">RDF</text>
<text text-anchor="middle" x="615.304" y="-24.1299" font-family="Times,serif" font-size="14.00">/individual/individual24416/individual24416.rdf</text>
</g>
<!-- Person&#45;&gt;RDF -->
<g id="edge1" class="edge"><title>Person&#45;&gt;RDF</title>
<path fill="none" stroke="black" stroke-dasharray="5,2" d="M353.032,-125.951C379.413,-110.861 415.533,-91.6863 449.215,-78.7858 467.404,-71.8193 487.147,-65.6402 506.462,-60.301"/>
<polygon fill="black" stroke="black" points="507.465,-63.6555 516.205,-57.667 505.638,-56.8981 507.465,-63.6555"/>
<text text-anchor="middle" x="505.348" y="-95.5858" font-family="Times,serif" font-size="14.00">conneg 303</text>
<text text-anchor="middle" x="505.348" y="-81.5858" font-family="Times,serif" font-size="14.00">application/rdf+xml</text>
</g>
<!-- HTML&#45;&gt;Person -->
<g id="edge5" class="edge"><title>HTML&#45;&gt;Person</title>
<path fill="none" stroke="red" d="M159.381,-58.2563C172.803,-64.583 187.245,-71.6995 200.304,-78.7858 223.834,-91.5541 249.242,-107.078 270.087,-120.301"/>
<polygon fill="red" stroke="red" points="268.409,-123.382 278.722,-125.812 272.175,-117.482 268.409,-123.382"/>
<text text-anchor="middle" x="286.452" y="-95.5858" font-family="Times,serif" font-size="14.00">HTTP Link</text>
<text text-anchor="middle" x="286.452" y="-81.5858" font-family="Times,serif" font-size="14.00">rel=canonical</text>
</g>
<!-- HTML&#45;&gt;RDF -->
<g id="edge3" class="edge"><title>HTML&#45;&gt;RDF</title>
<path fill="none" stroke="black" d="M220.816,-35.3299C273.817,-35.3299 339.184,-35.3299 401.358,-35.3299"/>
<polygon fill="black" stroke="black" points="401.709,-38.83 411.709,-35.3299 401.709,-31.83 401.709,-38.83"/>
<text text-anchor="middle" x="316.199" y="-55.1299" font-family="Times,serif" font-size="14.00">HTML linktag rel=alternate</text>
<text text-anchor="middle" x="316.199" y="-41.1299" font-family="Times,serif" font-size="14.00">application/rdf+xml</text>
</g>
<!-- HTML&#45;&gt;RDF -->
<g id="edge4" class="edge"><title>HTML&#45;&gt;RDF</title>
<path fill="none" stroke="red" d="M182.051,-15.8795C202.786,-11.1206 225.558,-6.71281 246.811,-4.32992 328.007,4.77367 419.54,-2.83514 491.067,-12.7898"/>
<polygon fill="red" stroke="red" points="490.631,-16.2629 501.024,-14.2086 491.618,-9.33285 490.631,-16.2629"/>
<text text-anchor="middle" x="316.199" y="-21.1299" font-family="Times,serif" font-size="14.00">HTTP Link rel=alternate</text>
<text text-anchor="middle" x="316.199" y="-7.12992" font-family="Times,serif" font-size="14.00">application/rdf+xml</text>
</g>
<!-- RDF&#45;&gt;Person -->
<g id="edge6" class="edge"><title>RDF&#45;&gt;Person</title>
<path fill="none" stroke="red" d="M604.559,-60.7638C596.364,-76.4471 583.543,-95.8567 566.304,-106.786 543.992,-120.93 487.906,-131.103 434.297,-137.937"/>
<polygon fill="red" stroke="red" points="433.817,-134.47 424.324,-139.175 434.679,-141.417 433.817,-134.47"/>
<text text-anchor="middle" x="632.452" y="-95.5858" font-family="Times,serif" font-size="14.00">HTTP Link</text>
<text text-anchor="middle" x="632.452" y="-81.5858" font-family="Times,serif" font-size="14.00">rel=canonical</text>
</g>
</g>
</svg>
